<?xml version="1.0" encoding="utf-8"?>
<!-- Generator: Adobe Illustrator 16.0.0, SVG Export Plug-In . SVG Version: 6.00 Build 0)  -->
<!DOCTYPE svg PUBLIC "-//W3C//DTD SVG 1.1//EN" "http://www.w3.org/Graphics/SVG/1.1/DTD/svg11.dtd">
<svg version="1.1" id="Ebene_1" xmlns="http://www.w3.org/2000/svg" xmlns:xlink="http://www.w3.org/1999/xlink" x="0px" y="0px"
	 width="841.89px" height="595.281px" viewBox="0 0 841.89 595.281" enable-background="new 0 0 841.89 595.281"
	 xml:space="preserve">
<path fill="#F1F1F0" d="M841.89,139.233C789.019,73.859,685.542,29.445,566.537,29.445c-172.75,0-312.792,93.583-312.792,209.022
	c0,115.44,140.041,209.023,312.792,209.023c119.006,0,222.482-44.414,275.354-109.789V139.233L841.89,139.233z"/>
<path fill="#3780C3" d="M841.89,566.441c-72.348-44.942-176.287-73.125-291.795-73.125c-138.577,0-260.513,40.558-331.206,101.963
	H841.89V566.441z"/>
<path fill="#3780C3" d="M480.457,511.917c3.59-1.242,69.639-37.203,69.639-37.203l30.684,18.604l-20.289,37.864L480.457,511.917z"/>
<polygon fill="#C6C6C6" points="504.664,478.38 416.226,502.949 341.35,557.521 420.489,514.354 502.505,494.929 519.054,548.888 
	565.816,582.701 531.283,547.449 538.478,491.332 579.488,505 667.978,505 702.513,528.021 669.417,494.21 587.402,489.173 
	555.025,466.152 "/>
<polygon fill="#C6C6C6" points="603.228,500.683 640.638,533.058 644.957,574.066 644.957,532.339 619.056,498.525 "/>
<polygon fill="#C6C6C6" points="515.457,518.669 463.656,526.583 411.136,568.312 464.375,537.375 518.333,533.779 "/>
<polygon fill="#C6C6C6" points="415.452,513.634 410.415,539.535 381.64,556.8 414.013,544.57 428.402,509.316 "/>
<polygon fill="#C6C6C6" points="565.816,494.929 575.89,538.814 599.63,542.412 618.337,571.908 605.386,540.972 583.804,530.181 
	586.679,497.806 "/>
<polygon fill="#C6C6C6" points="566.537,395.645 632.726,393.484 708.267,359.671 767.263,377.658 706.111,346.001 629.847,374.781 
	566.537,370.824 566.537,398.521 "/>
<polygon fill="#C6C6C6" points="555.746,358.232 478.765,338.089 396.029,366.867 321.926,338.089 393.871,355.355 475.167,321.762 
	555.746,329.457 "/>
<polygon fill="#C6C6C6" points="552.15,301.396 641.361,291.325 734.167,179.092 837.769,158.947 726.974,169.02 630.568,275.496 
	540.638,276.936 "/>
<polygon fill="#C6C6C6" points="536.679,293.483 457.541,246 361.855,265.425 273.362,240.963 363.293,253.915 460.775,230.172 
	526.607,261.827 "/>
<polygon fill="#C6C6C6" points="478.765,166.142 428.402,135.205 377.323,150.674 330.56,117.219 378.043,138.083 438.835,121.536 
	478.765,141.68 "/>
<polygon fill="#C6C6C6" points="482.363,102.83 533.445,82.686 570.134,47.696 532.724,70.455 486.681,83.404 "/>
<polygon fill="#C6C6C6" points="744.962,173.337 767.263,141.68 767.263,92.04 776.617,141.68 767.263,169.74 "/>
<polygon fill="#C6C6C6" points="419.053,247.439 365.095,204.992 288.298,186.751 365.812,197.366 438.835,238.806 "/>
<polygon fill="#C6C6C6" points="575.89,141.68 603.228,102.83 608.265,56.067 612.583,102.83 594.236,141.68 "/>
<polygon fill="#C6C6C6" points="518.333,192.043 612.583,203.554 693.882,162.545 612.583,193.481 526.25,173.337 "/>
<polygon fill="#C6C6C6" points="475.476,256.761 433.443,293.483 375.886,301.396 435.599,304.275 498.193,264.706 "/>
<polygon fill="#C6C6C6" points="536.679,410.562 493.873,392.449 450.294,401.505 493.873,380.1 540.638,387.507 "/>
<polygon fill="#C6C6C6" points="612.583,389.979 659.414,417.146 629.775,385.861 "/>
<polygon fill="#C6C6C6" points="720.501,360.339 763.306,325.141 733.806,360.339 "/>
<polygon fill="#C6C6C6" points="438.835,132.689 411.136,98.873 416.54,68.891 418.186,92.04 454.412,132.689 "/>
<polygon fill="#C6C6C6" points="493.873,206.382 432.773,183.049 399.25,194.716 428.402,173.337 482.363,183.049 "/>
<polygon fill="#C6C6C6" points="644.957,139.804 673.017,146.717 749.976,125.699 682.464,136.208 666.9,125.699 "/>
<polygon fill="#C6C6C6" points="545.476,287.217 583.062,256.761 624.093,250.17 642.943,210.858 618.337,241.485 575.89,242.398 
	534.607,267.971 "/>
<path fill="#C6C6C6" d="M570.134,252.115c0.129-1.945,3.785-36.686,3.785-36.686l6.854,30.17L570.134,252.115z"/>
<circle fill="#3780C3" cx="322.624" cy="282.671" r="13.415"/>
<circle fill="#3780C3" cx="411.136" cy="274.06" r="13.415"/>
<circle fill="#3780C3" cx="437.041" cy="219.217" r="13.416"/>
<circle fill="#3780C3" cx="471.595" cy="219.218" r="13.415"/>
<circle fill="#3780C3" cx="354.766" cy="232.632" r="13.416"/>
<circle fill="#3780C3" cx="349.454" cy="173.337" r="13.416"/>
<circle fill="#3780C3" cx="389.302" cy="112.288" r="13.416"/>
<circle fill="#3780C3" cx="454.412" cy="98.874" r="13.415"/>
<circle fill="#3780C3" cx="423.625" cy="155.095" r="13.416"/>
<circle fill="#3780C3" cx="504.433" cy="117.219" r="13.415"/>
<circle fill="#3780C3" cx="536.679" cy="102.831" r="13.416"/>
<circle fill="#3780C3" cx="565.816" cy="122.793" r="13.416"/>
<circle fill="#3780C3" cx="583.55" cy="89.416" r="13.416"/>
<circle fill="#3780C3" cx="583.55" cy="168.51" r="13.416"/>
<circle fill="#3780C3" cx="540.638" cy="222.403" r="13.416"/>
<circle fill="#3780C3" cx="596.964" cy="224.274" r="13.417"/>
<circle fill="#3780C3" cx="498.193" cy="293.483" r="13.417"/>
<circle fill="#3780C3" cx="478.765" cy="360.338" r="13.417"/>
<circle fill="#3780C3" cx="588.775" cy="317.69" r="13.417"/>
<circle fill="#3780C3" cx="684.05" cy="267.971" r="13.417"/>
<circle fill="#3780C3" cx="720.501" cy="228.845" r="13.417"/>
<circle fill="#3780C3" cx="666.902" cy="202.015" r="13.417"/>
<circle fill="#3780C3" cx="624.093" cy="166.142" r="13.417"/>
<circle fill="#3780C3" cx="636" cy="109.378" r="13.417"/>
<circle fill="#3780C3" cx="697.466" cy="116.246" r="13.417"/>
<circle fill="#3780C3" cx="733.917" cy="149.623" r="13.417"/>
<circle fill="#3780C3" cx="749.976" cy="202.015" r="13.417"/>
<circle fill="#3780C3" cx="736.562" cy="296.086" r="13.417"/>
<circle fill="#3780C3" cx="776.619" cy="291.819" r="13.417"/>
<circle fill="#3780C3" cx="790.033" cy="189.86" r="13.417"/>
<circle fill="#3780C3" cx="803.451" cy="238.469" r="13.417"/>
<circle fill="#3780C3" cx="816.867" cy="280.519" r="13.417"/>
<circle fill="#3780C3" cx="765.261" cy="250.26" r="13.417"/>
<circle fill="#3780C3" cx="702.511" cy="331.106" r="13.417"/>
<circle fill="#3780C3" cx="653.486" cy="344.313" r="13.417"/>
<circle fill="#3780C3" cx="610.38" cy="353.452" r="13.417"/>
<circle fill="#3780C3" cx="624.093" cy="317.483" r="13.417"/>
<circle fill="#3780C3" cx="596.964" cy="414.918" r="13.417"/>
<circle fill="#3780C3" cx="672.296" cy="398.522" r="13.417"/>
<circle fill="#3780C3" cx="767.261" cy="353.452" r="13.417"/>
<circle fill="#3780C3" cx="515.949" cy="366.868" r="13.417"/>
<circle fill="#3780C3" cx="418.438" cy="325.142" r="13.417"/>
<circle fill="#3780C3" cx="375.886" cy="330.897" r="13.417"/>
<circle fill="#3780C3" cx="423.625" cy="380.282" r="13.417"/>
<circle fill="#3780C3" cx="493.873" cy="411.938" r="13.417"/>
<circle fill="#3780C3" cx="462.984" cy="306.898" r="13.417"/>
<circle fill="#3780C3" cx="362.471" cy="286.185" r="13.417"/>
<path fill="none" stroke="#3780C3" stroke-width="4" stroke-miterlimit="10" d="M301.788,540.729c0,0,69.545-19.226,25.545-28.812
	c-44-9.584-62-11.488-74.667-37.203s-4.667-9.84-4.667-9.84"/>
<g>
	<polygon fill="#C6C6C6" points="244.405,511.917 179.681,511.917 184.437,474.714 239.649,474.714 	"/>
	<path fill="#F1F1F0" d="M356.021,470.984c0,6.514-5.281,11.793-11.796,11.793H79.86c-6.514,0-11.794-5.279-11.794-11.793V295.943
		c0-6.514,5.281-11.795,11.794-11.795h264.366c6.516,0,11.794,5.281,11.794,11.795v175.042H356.021z"/>
	<polygon fill="#F1F1F0" points="244.405,511.917 179.681,511.917 167.793,521.533 168.299,523.078 255.5,523.078 256.293,521.533 	
		"/>
	<g>
		<path fill="#0B5D90" d="M68.066,457.328V295.943c0-6.514,5.281-11.795,11.794-11.795h264.366c6.516,0,11.794,5.281,11.794,11.795
			v161.385H68.066z"/>
		<path fill="#0B5D90" d="M344.226,284.148H79.86c-6.514,0-11.794,5.281-11.794,11.795v161.385h287.957V295.943
			C356.021,289.43,350.74,284.148,344.226,284.148z"/>
	</g>
	<rect x="80.093" y="297.282" fill="#3780C3" width="263.901" height="148.579"/>
	<circle fill="#0B5D90" cx="212.043" cy="470.477" r="5.603"/>
</g>
<path fill="#FFFFFF" d="M299.132,554.979c-9.963-25.304-10.754-21.906-19.783-22.587c-2.212-0.168-4.123-0.311-5.509-0.791
	c-2.604-0.899-5.167-1.354-7.619-1.354c-7.17,0-11.795,3.725-14.855,6.188c-0.424,0.345-0.829,0.668-1.199,0.949l-0.108,0.072
	l-0.184,0.146c-0.048,0.035-0.095,0.068-0.144,0.104l-0.037,0.027l-0.032,0.021l-0.028,0.021l-0.176,0.118l-0.028,0.021l-0.015,0.01
	l-0.044,0.029l-0.097,0.061l-0.017,0.013l-0.042,0.024l-0.004,0.002l-0.081,0.047l-0.056,0.031l-0.019,0.01l-0.074,0.037
	l-0.02,0.011l-0.042,0.02c-5.708,1.9-13.398,4.082-16.791,4.76c-0.815,0.164-1.601,0.404-2.352,0.717
	c-0.097-0.19-0.196-0.389-0.296-0.59c-6.913-13.826-13.791-19.342-18.518-21.514l-8.478-11.088
	c-6.44-8.422-70.454-88.478-96.547-109.438c-8.626-6.929-17.342-11.938-25.993-14.943c0.169-1.354,0.309-3.059,0.493-5.377
	c0.282-3.557,0.808-10.174,1.557-12.234c2.122-5.836,3.994-16.852,3.466-26.609c-0.148-2.746,0.253-4.404,0.809-6.697
	c0.744-3.069,1.671-6.893,1.21-12.731c-0.143-1.805-0.558-7.06-6.818-20.312c2.285-2.153,4.578-5.253,5.097-9.273
	c0.143-1.109,0.142-2.208,0.001-3.283c0.129-0.341,0.243-0.694,0.34-1.06c0.651-2.443,0.99-7.292-4.059-12.32
	c-2.79-2.778-5.932-4.644-8.457-6.142c-1.045-0.621-2.593-1.54-3.141-2.021c-0.147-0.229-0.293-0.459-0.441-0.691
	c-2.569-4.036-6.452-10.135-14.013-10.976c-1.618-0.18-3.176-0.188-4.682-0.195c-1.656-0.008-3.503-0.018-4.62-0.316
	c-2.473-3.228-5.715-4.765-10.405-4.961c-0.359-0.015-0.709-0.022-1.05-0.022c-0.402,0-0.793,0.01-1.172,0.028l2.24-4.426
	l-17.923,3.36c-4.624,0.867-14.215,4.014-18.376,8.174v337.256h94.083c0.047-0.111,3.299-7.865,7.176-17.56
	c2.209-5.521,4.297-15.692,5.837-24.52c2.068,1.797,3.916,3.42,5.069,4.469c3.157,2.869,28.353,25.975,41.033,37.605l105.156,0.002
	c4.491-3.729,18.438-18.523,22.921-21.213C287.127,570.554,303.936,567.175,299.132,554.979z"/>
<rect x="100.267" y="376.292" fill="#FFFFFF" width="106.173" height="62.219"/>
<path fill="#3780C3" d="M321.653,526.654c-6.109-8.769-22.364-7.998-36.305,1.715c-13.941,9.717-20.292,24.699-14.182,33.467
	c6.107,8.764,22.363,7.994,36.303-1.719C321.41,550.402,327.76,535.419,321.653,526.654z"/>
<path fill="#C6C6C6" d="M265.666,541.957c0,0,9.507-9.775,14.548-11.01c5.041-1.235,8.931-1.377,8.931-1.377l0.864,3.6
	c0,0,3.745-3.455,5.474-3.6c1.729-0.146,4.177,0.162,5.474,1.377s1.44,6.545,1.584,6.977c0.144,0.435,0,1.586,0,1.586
	s5.186-0.145,5.906,1.729c0.72,1.873-2.737,6.77-2.737,6.77s3.169,0.865,4.609,3.025c1.438,2.16,1.296,7.635-11.523,14.979
	c-12.819,7.347-12.82,7.347-12.82,7.347L265.666,541.957z"/>
<path fill="#F1F1F0" d="M72.406,396.382c0,0-2.26-7.032-1.582-10.184c0.678-3.15,0.904-15.804,2.712-20.775
	c1.808-4.971,3.39-14.688,2.938-23.049c-0.452-8.36,2.711-10.621,2.034-19.207c-0.677-8.588-11.299-27.569-11.299-27.569
	l-43.613,2.042l-7.457,42.249l-4.52,26.213l44.291,37.512L72.406,396.382z"/>
<path fill="#F1F1F0" d="M0,355.593c0,0,19.289-1.125,28.247,8.929c8.958,10.055,25.707,26.803,28.822,27.19
	c3.115,0.39,19.474-2.728,43.232,16.358c23.758,19.085,84.908,94.644,95.034,107.888c10.126,13.242,10.126,13.242,10.126,13.242l0,0
	c0,0,7.4,0.778,15.969,17.916c8.569,17.137,8.179,12.074,8.179,12.074s0.39-6.621,4.285-7.4s12.074-3.115,17.916-5.062
	c5.842-1.946,8.958-10.127,19.085-6.62c10.127,3.506,22.248-3.996,32.716,22.59c1.354,3.438-3.116,8.18-12.854,14.021
	c-9.737,5.84-23.758,18.562-23.758,18.562H166.514c0,0-44.011-40.375-48.296-44.271c-4.285-3.895-17.527-15.188-17.527-15.188
	s-3.895,28.819-7.79,38.559s-8.569,20.9-8.569,20.9H0V355.593z"/>
<path fill="#C6C6C6" d="M94.07,522.189c-10.516-9.349-29.211-48.687-29.211-48.687s-1.948,7.789-3.505,8.959
	c-1.557,1.168-1.947,6.23-1.947,6.23l-33.885-22.078c0,0,23.369,26.36,27.264,33.764c3.895,7.4,7.4,23.369,6.232,35.053
	c-1.168,11.687,0.779,39.729,4.284,51.023c1.909,6.15,1.738,8.217,1.187,8.824h19.846c0,0,4.674-11.162,8.569-20.898
	c3.895-9.738,7.79-38.559,7.79-38.559s13.242,11.295,17.527,15.188c4.285,3.896,48.296,44.271,48.296,44.271h9.481
	C171.393,591.171,104.225,531.216,94.07,522.189z"/>
<path fill="#C6C6C6" d="M51.688,394.046c4.065,1.498,15.619,1.713,29.098,6.634c13.479,4.922,27.173,16.688,33.164,23.536
	c5.991,6.849,57.341,65.043,57.341,65.043s-13.907-8.559-20.754-12.623c-6.847-4.063-40.866-23.106-40.866-23.106
	c2.781,5.562,16.261,19.471,21.396,23.535c5.135,4.063,30.166,22.305,33.669,25.307c3.503,3.004,26.694,22.271,31.449,26.861
	c4.755,4.588,8.675,4.254,8.675,4.254c1.167,1.5,5.088,10.178,5.756,12.596c0.668,2.42,1.001,7.09,1.501,16.268
	c0.5,9.179,2.669,5.841,3.003,3.421c0.334-2.421,0.417-8.177-0.584-15.267c-1.001-7.092-5.088-15.182-5.088-15.182
	s0.5,0,1.168,0.082c0.668,0.084,4.171,3.17,5.088,5.59c0.917,2.418,6.923,15.932,9.092,19.018
	c2.169,3.088,9.927,11.597,9.927,11.597l1.501,11.096l0.25-14.35l-3.92-6.341c0,0,6.006,0.084,7.758,3.673
	c1.752,3.588,1.668,15.85,1.668,15.85s0,0,0.75-2.752s1.084-11.599-0.083-15.685c-1.167-4.088-8.842-9.26-8.842-9.26
	s2.503-1.418,4.088-1.418s4.838,0.584,8.091,5.338c3.253,4.756,3.253,16.185,3.253,16.185s0,0,1.251-3.17
	c1.251-3.17-1.168-12.765-1.168-12.765s1.918,0.418,2.836,1.252s5.923,7.175,5.923,7.175s0,0-1.001-3.839
	c-1.001-3.836-7.729-8.45-9.381-9.631c-1.652-1.18,0.708-2.596,3.775-4.481s3.775-0.943,5.899,1.651s10.382,17.935,10.382,17.935
	l-5.191-15.812c0.708-0.235,14.394,4.482,14.394,4.482s0,0-3.067-2.123c-3.067-2.125-12.034-8.26-11.798-11.562
	c0.236-3.303,7.331-3.385,7.335-3.385c-8.972-2.256-12.066,5.207-17.615,7.058c-5.842,1.946-14.021,4.282-17.916,5.062
	s-4.285,7.4-4.285,7.4s0.39,5.062-8.179-12.074c-8.569-17.137-15.969-17.916-15.969-17.916s0,0-10.126-13.242
	c-10.126-13.244-71.275-88.803-95.034-107.888c-23.759-19.085-40.117-15.97-43.232-16.358c-0.615-0.076-1.768-0.799-3.281-1.974
	c-13.828-1.017-20.029-5.642-26.479-8.081C18.579,378.354,0,373.833,0,373.833v8.444c0,0,23.445,1.714,28.58,1.806
	C33.715,384.177,47.622,392.55,51.688,394.046z"/>
<path fill="#C6C6C6" d="M151.9,465.529c0,0-32.04-16.724-35.655-19.207c-3.615-2.486-14.688-7.23-20.563-10.621
	c-5.875-3.392-20.564-7.685-20.564-7.685s18.304,1.582,27.795,6.556c9.491,4.971,43.275,26.229,43.275,26.229L151.9,465.529z"/>
<path fill="#C6C6C6" d="M0,361.416l27.496,10.051c0,0,1.981-1.582,3.187-6.742c1.206-5.162-0.804-7.772-0.804-7.772
	s5.023,2.209,5.023,3.815c0,1.607,0,1.607,0,1.607s4.42-5.627,2.612-10.449c-1.808-4.82-2.547-13.461,0.435-19.689
	c2.982-6.229,4.311-15.873,7.162-18.282c2.851-2.412,6.87-2.412,8.678,0c1.808,2.409,2.412,2.01,3.416,4.621
	c1.004,2.61,0.401,11.854,1.808,14.266c1.407,2.41,5.224,1.81,5.224,1.81s3.014,3.416,4.219,3.617
	c1.205,0.198,3.617-0.203,3.215-3.617c-0.402-3.416-5.023-10.851-4.621-13.062c0.402-2.211,1.446-11.075,3.014-14.267
	c1.568-3.189,1.652-9.68,1.652-9.68s8.595-4.786,3.572-9.608c0,0,4.621-1.241,0.402-5.443c-4.219-4.202-10.448-6.01-12.658-9.426
	c-2.21-3.416-4.42-7.434-8.037-7.836c-3.617-0.402-8.438,0.402-12.457-1.406s-1.809-3.817-6.631-4.019
	c-4.822-0.202-7.032,1.808-10.247,1.406c-3.215-0.402-6.229-1.42-6.229-1.42l0.603-1.191c0,0-9.645,1.808-12.458,4.621
	S0,268.944,0,268.944V361.416z"/>
<path fill="#C6C6C6" d="M273.615,534.802l16.496-13.51l7.69-1.871c0,0,7.482-1.248,8.938-1.039c1.456,0.207,7.442,2.41,5.572,4.695
	c-1.868,2.287-14.303,3.502-14.303,3.502l-8.73,8.223H273.615L273.615,534.802z"/>
<path fill="#C6C6C6" d="M281.274,538.849l16.496-9.336l7.69-1.869c0,0,7.482-1.247,8.938-1.041c1.454,0.209,7.442,2.41,5.572,4.697
	c-1.87,2.285-14.303,3.502-14.303,3.502l-6.344,9.688L281.274,538.849z"/>
<path fill="#C6C6C6" d="M294.247,541.453l20.89-4.178c0,0,2.67-1.595,5.194-3.248c2.672-1.752,7.657-4.744,9.66-1.162
	c2.003,3.584-9.66,10.16-9.66,10.16l-15.639,7.248L294.247,541.453z"/>
<path fill="#C6C6C6" d="M305.62,558.861l15.783-5.57c0,0,8.73-3.805,8.588-7.025c-0.146-3.221-5.804-1.045-6.963-1.188
	c-1.16-0.144-6.499,2.875-6.499,2.875l-10.909,3.494V558.861z"/>
<g>
	<rect x="100.267" y="330.898" fill="#FFFFFF" width="34.132" height="5.291"/>
	<rect x="139.021" y="330.898" fill="#FFFFFF" width="34.132" height="5.291"/>
	<rect x="177.773" y="330.898" fill="#FFFFFF" width="13.959" height="5.291"/>
</g>
<rect x="100.267" y="355.555" fill="#FFFFFF" width="17.066" height="5.293"/>
<rect x="217.646" y="355.555" fill="#FFFFFF" width="17.066" height="5.293"/>
<rect x="121.955" y="355.555" fill="#FFFFFF" width="24.243" height="5.293"/>
<rect x="151.244" y="355.555" fill="#FFFFFF" width="63.449" height="5.293"/>
<rect x="100.267" y="343.355" fill="#FFFFFF" width="74.834" height="5.293"/>
<rect x="179.773" y="343.355" fill="#FFFFFF" width="74.833" height="5.293"/>
<rect x="258.312" y="343.355" fill="#FFFFFF" width="30.606" height="5.293"/>
<g>
	<g>
		
			<line fill="none" stroke="#FFFFFF" stroke-linecap="round" stroke-miterlimit="10" x1="100.267" y1="327.566" x2="101.267" y2="327.566"/>
		
			<line fill="none" stroke="#FFFFFF" stroke-linecap="round" stroke-miterlimit="10" stroke-dasharray="1.9473,1.9473" x1="103.214" y1="327.566" x2="156.765" y2="327.566"/>
		
			<line fill="none" stroke="#FFFFFF" stroke-linecap="round" stroke-miterlimit="10" x1="157.739" y1="327.566" x2="158.739" y2="327.566"/>
	</g>
</g>
<g>
	<g>
		
			<line fill="none" stroke="#3780C3" stroke-linecap="round" stroke-miterlimit="10" x1="104.267" y1="379.875" x2="105.267" y2="379.875"/>
		
			<line fill="none" stroke="#3780C3" stroke-linecap="round" stroke-miterlimit="10" stroke-dasharray="1.9473,1.9473" x1="107.214" y1="379.875" x2="160.765" y2="379.875"/>
		
			<line fill="none" stroke="#3780C3" stroke-linecap="round" stroke-miterlimit="10" x1="161.739" y1="379.875" x2="162.739" y2="379.875"/>
	</g>
</g>
<g>
	<g>
		
			<line fill="none" stroke="#FFFFFF" stroke-linecap="round" stroke-miterlimit="10" x1="100.267" y1="341.396" x2="101.267" y2="341.396"/>
		
			<line fill="none" stroke="#FFFFFF" stroke-linecap="round" stroke-miterlimit="10" stroke-dasharray="2.0833,2.0833" x1="103.351" y1="341.396" x2="135.643" y2="341.396"/>
		
			<line fill="none" stroke="#FFFFFF" stroke-linecap="round" stroke-miterlimit="10" x1="136.684" y1="341.396" x2="137.684" y2="341.396"/>
	</g>
</g>
<g>
	<g>
		
			<line fill="none" stroke="#FFFFFF" stroke-linecap="round" stroke-miterlimit="10" x1="179.773" y1="341.396" x2="180.773" y2="341.396"/>
		
			<line fill="none" stroke="#FFFFFF" stroke-linecap="round" stroke-miterlimit="10" stroke-dasharray="2.0833,2.0833" x1="182.857" y1="341.396" x2="215.149" y2="341.396"/>
		
			<line fill="none" stroke="#FFFFFF" stroke-linecap="round" stroke-miterlimit="10" x1="216.19" y1="341.396" x2="217.19" y2="341.396"/>
	</g>
</g>
<g>
	<g>
		
			<line fill="none" stroke="#FFFFFF" stroke-linecap="round" stroke-miterlimit="10" x1="221.868" y1="341.396" x2="222.868" y2="341.396"/>
		
			<line fill="none" stroke="#FFFFFF" stroke-linecap="round" stroke-miterlimit="10" stroke-dasharray="1.7522,1.7522" x1="224.62" y1="341.396" x2="230.753" y2="341.396"/>
		
			<line fill="none" stroke="#FFFFFF" stroke-linecap="round" stroke-miterlimit="10" x1="231.629" y1="341.396" x2="232.629" y2="341.396"/>
	</g>
</g>
<g>
	<g>
		
			<line fill="none" stroke="#FFFFFF" stroke-linecap="round" stroke-miterlimit="10" x1="100.267" y1="353.628" x2="101.267" y2="353.628"/>
		
			<line fill="none" stroke="#FFFFFF" stroke-linecap="round" stroke-miterlimit="10" stroke-dasharray="1.7522,1.7522" x1="103.02" y1="353.628" x2="109.152" y2="353.628"/>
		
			<line fill="none" stroke="#FFFFFF" stroke-linecap="round" stroke-miterlimit="10" x1="110.028" y1="353.628" x2="111.028" y2="353.628"/>
	</g>
</g>
<g enable-background="new    ">
	<path fill="#F1F1F0" d="M20.25,45.308h17.754c2.959,0,5.23,0.732,6.815,2.198c1.583,1.465,2.376,3.28,2.376,5.443
		c0,1.814-0.565,3.37-1.696,4.669c-0.754,0.865-1.856,1.549-3.308,2.052c2.206,0.53,3.828,1.441,4.868,2.731
		c1.04,1.292,1.56,2.914,1.56,4.868c0,1.591-0.37,3.022-1.11,4.292c-0.74,1.271-1.751,2.275-3.036,3.015
		c-0.795,0.461-1.996,0.796-3.601,1.005C38.736,75.86,37.319,76,36.622,76H20.25V45.308z M29.817,57.346h4.125
		c1.479,0,2.509-0.255,3.088-0.765c0.579-0.509,0.869-1.245,0.869-2.208c0-0.894-0.29-1.592-0.869-2.094
		c-0.579-0.503-1.588-0.754-3.025-0.754h-4.187V57.346z M29.817,69.405h4.836c1.633,0,2.785-0.29,3.455-0.869
		s1.005-1.357,1.005-2.334c0-0.907-0.332-1.637-0.994-2.188c-0.663-0.551-1.825-0.827-3.486-0.827h-4.815V69.405z"/>
	<path fill="#F1F1F0" d="M53.957,45.308h9.505V76h-9.505V45.308z"/>
	<path fill="#F1F1F0" d="M70.288,45.308h17.754c2.959,0,5.23,0.732,6.815,2.198c1.583,1.465,2.376,3.28,2.376,5.443
		c0,1.814-0.565,3.37-1.696,4.669c-0.754,0.865-1.856,1.549-3.308,2.052c2.206,0.53,3.828,1.441,4.868,2.731
		c1.04,1.292,1.56,2.914,1.56,4.868c0,1.591-0.37,3.022-1.11,4.292c-0.74,1.271-1.751,2.275-3.036,3.015
		c-0.795,0.461-1.996,0.796-3.601,1.005C88.774,75.86,87.357,76,86.66,76H70.288V45.308z M79.855,57.346h4.125
		c1.479,0,2.509-0.255,3.088-0.765c0.579-0.509,0.869-1.245,0.869-2.208c0-0.894-0.29-1.592-0.869-2.094
		c-0.579-0.503-1.588-0.754-3.025-0.754h-4.187V57.346z M79.855,69.405h4.836c1.633,0,2.785-0.29,3.455-0.869
		s1.005-1.357,1.005-2.334c0-0.907-0.332-1.637-0.994-2.188c-0.663-0.551-1.825-0.827-3.486-0.827h-4.815V69.405z"/>
	<path fill="#F1F1F0" d="M101.964,65.846l9.024-0.565c0.195,1.466,0.593,2.583,1.193,3.351c0.977,1.242,2.373,1.863,4.187,1.863
		c1.354,0,2.397-0.317,3.13-0.953c0.733-0.635,1.099-1.371,1.099-2.209c0-0.795-0.349-1.507-1.046-2.135
		c-0.698-0.629-2.317-1.222-4.857-1.78c-4.16-0.935-7.125-2.177-8.898-3.727c-1.787-1.549-2.68-3.524-2.68-5.925
		c0-1.577,0.457-3.067,1.371-4.47c0.914-1.403,2.289-2.506,4.125-3.309c1.835-0.802,4.351-1.203,7.547-1.203
		c3.922,0,6.913,0.729,8.971,2.188c2.059,1.459,3.284,3.779,3.675,6.961l-8.94,0.523c-0.238-1.382-0.736-2.387-1.497-3.015
		s-1.811-0.942-3.151-0.942c-1.103,0-1.934,0.234-2.492,0.702s-0.837,1.036-0.837,1.706c0,0.488,0.23,0.929,0.691,1.319
		c0.447,0.404,1.508,0.781,3.183,1.13c4.146,0.894,7.115,1.798,8.908,2.712s3.099,2.048,3.915,3.401
		c0.817,1.354,1.225,2.869,1.225,4.544c0,1.968-0.544,3.782-1.633,5.443c-1.088,1.661-2.61,2.92-4.564,3.778
		c-1.955,0.858-4.417,1.288-7.391,1.288c-5.22,0-8.835-1.005-10.845-3.015C103.367,71.499,102.229,68.944,101.964,65.846z"/>
	<path fill="#F1F1F0" d="M133.39,60.675c0-5.011,1.396-8.912,4.187-11.704c2.792-2.791,6.679-4.187,11.662-4.187
		c5.108,0,9.044,1.371,11.808,4.113c2.764,2.743,4.146,6.585,4.146,11.525c0,3.588-0.604,6.529-1.811,8.825
		c-1.208,2.296-2.952,4.083-5.234,5.359c-2.282,1.277-5.126,1.916-8.532,1.916c-3.462,0-6.327-0.551-8.594-1.654
		c-2.269-1.103-4.107-2.847-5.517-5.233S133.39,64.262,133.39,60.675z M142.874,60.717c0,3.099,0.576,5.324,1.728,6.679
		c1.151,1.354,2.718,2.03,4.7,2.03c2.038,0,3.615-0.662,4.731-1.988s1.675-3.706,1.675-7.14c0-2.89-0.583-5-1.748-6.333
		c-1.166-1.333-2.746-2-4.742-2c-1.912,0-3.448,0.678-4.606,2.031C143.453,55.35,142.874,57.59,142.874,60.717z"/>
	<path fill="#F1F1F0" d="M170.363,45.308h8.856l11.557,16.98v-16.98h8.94V76h-8.94l-11.494-16.853V76h-8.919V45.308z"/>
	<path fill="#F1F1F0" d="M204.825,60.675c0-5.011,1.396-8.912,4.187-11.704c2.792-2.791,6.679-4.187,11.662-4.187
		c5.108,0,9.044,1.371,11.808,4.113c2.764,2.743,4.146,6.585,4.146,11.525c0,3.588-0.604,6.529-1.811,8.825
		c-1.208,2.296-2.952,4.083-5.234,5.359c-2.282,1.277-5.126,1.916-8.532,1.916c-3.462,0-6.327-0.551-8.594-1.654
		c-2.269-1.103-4.107-2.847-5.517-5.233S204.825,64.262,204.825,60.675z M214.309,60.717c0,3.099,0.576,5.324,1.728,6.679
		c1.151,1.354,2.718,2.03,4.7,2.03c2.038,0,3.615-0.662,4.731-1.988s1.675-3.706,1.675-7.14c0-2.89-0.583-5-1.748-6.333
		c-1.166-1.333-2.746-2-4.742-2c-1.912,0-3.448,0.678-4.606,2.031C214.888,55.35,214.309,57.59,214.309,60.717z"/>
	<path fill="#F1F1F0" d="M241.63,45.308h12.473l4.81,18.675l4.776-18.675h12.465V76h-7.768V52.593L262.402,76h-7.031l-5.974-23.407
		V76h-7.768V45.308z"/>
	<path fill="#F1F1F0" d="M279.106,45.308h10.535l6.184,10.354l6.196-10.354H312.5l-11.934,17.838V76h-9.505V63.146L279.106,45.308z"
		/>
</g>
<g enable-background="new    ">
	<path fill="#F1F1F0" d="M35.659,104.188v-6.386h14.655v13.085c-2.806,1.913-5.287,3.214-7.443,3.905
		c-2.157,0.69-4.714,1.036-7.673,1.036c-3.643,0-6.612-0.621-8.908-1.863c-2.296-1.242-4.076-3.092-5.339-5.548
		c-1.263-2.457-1.895-5.276-1.895-8.459c0-3.35,0.69-6.263,2.072-8.74s3.406-4.358,6.072-5.643c2.08-0.991,4.878-1.486,8.396-1.486
		c3.392,0,5.928,0.307,7.61,0.921c1.682,0.614,3.078,1.567,4.187,2.857c1.11,1.292,1.944,2.928,2.502,4.91l-9.149,1.633
		c-0.377-1.158-1.016-2.045-1.916-2.659c-0.9-0.613-2.048-0.921-3.444-0.921c-2.08,0-3.737,0.723-4.972,2.167
		c-1.235,1.444-1.853,3.73-1.853,6.856c0,3.322,0.625,5.694,1.874,7.118c1.249,1.424,2.99,2.136,5.224,2.136
		c1.061,0,2.072-0.153,3.036-0.461c0.963-0.307,2.065-0.83,3.308-1.569v-2.89H35.659z"/>
	<path fill="#F1F1F0" d="M55.925,84.612h25.417v6.553H65.43v4.878h14.76v6.26H65.43v6.051h16.373v6.951H55.925V84.612z"/>
	<path fill="#F1F1F0" d="M86.973,84.612h8.856l11.557,16.98v-16.98h8.94v30.692h-8.94L95.892,98.452v16.853h-8.919V84.612z"/>
	<path fill="#F1F1F0" d="M122.607,84.612h25.417v6.553h-15.912v4.878h14.76v6.26h-14.76v6.051h16.373v6.951h-25.877V84.612z"/>
	<path fill="#F1F1F0" d="M172.463,110.238h-10.768l-1.496,5.066h-9.684l11.536-30.692h10.345l11.533,30.692h-9.932L172.463,110.238z
		 M170.495,103.602l-3.388-11.034l-3.353,11.034H170.495z"/>
	<path fill="#F1F1F0" d="M186.945,84.612h9.484v23.135h14.802v7.558h-24.286V84.612z"/>
	<path fill="#F1F1F0" d="M213.618,99.979c0-5.011,1.396-8.912,4.187-11.704c2.792-2.791,6.679-4.187,11.662-4.187
		c5.108,0,9.044,1.371,11.808,4.113c2.764,2.743,4.146,6.585,4.146,11.525c0,3.588-0.604,6.529-1.811,8.825
		c-1.208,2.296-2.952,4.083-5.234,5.359c-2.282,1.277-5.126,1.916-8.532,1.916c-3.462,0-6.327-0.551-8.594-1.654
		c-2.269-1.103-4.107-2.847-5.517-5.233S213.618,103.566,213.618,99.979z M223.102,100.021c0,3.099,0.576,5.324,1.728,6.679
		c1.151,1.354,2.718,2.03,4.7,2.03c2.038,0,3.615-0.662,4.731-1.988s1.675-3.706,1.675-7.14c0-2.89-0.583-5-1.748-6.333
		c-1.166-1.333-2.746-2-4.742-2c-1.912,0-3.448,0.678-4.606,2.031C223.681,94.654,223.102,96.895,223.102,100.021z"/>
	<path fill="#F1F1F0" d="M265.959,104.188v-6.386h14.655v13.085c-2.806,1.913-5.287,3.214-7.443,3.905
		c-2.157,0.69-4.714,1.036-7.673,1.036c-3.643,0-6.612-0.621-8.908-1.863c-2.296-1.242-4.076-3.092-5.339-5.548
		c-1.263-2.457-1.895-5.276-1.895-8.459c0-3.35,0.69-6.263,2.072-8.74s3.406-4.358,6.072-5.643c2.08-0.991,4.878-1.486,8.396-1.486
		c3.392,0,5.928,0.307,7.61,0.921c1.682,0.614,3.078,1.567,4.187,2.857c1.11,1.292,1.944,2.928,2.502,4.91l-9.149,1.633
		c-0.377-1.158-1.016-2.045-1.916-2.659c-0.9-0.613-2.048-0.921-3.444-0.921c-2.08,0-3.737,0.723-4.972,2.167
		c-1.235,1.444-1.853,3.73-1.853,6.856c0,3.322,0.625,5.694,1.874,7.118c1.249,1.424,2.99,2.136,5.224,2.136
		c1.061,0,2.072-0.153,3.036-0.461c0.963-0.307,2.065-0.83,3.308-1.569v-2.89H265.959z"/>
	<path fill="#F1F1F0" d="M286.623,84.612h9.505v30.692h-9.505V84.612z"/>
	<path fill="#F1F1F0" d="M302.91,84.612h25.418v6.553h-15.912v4.878h14.76v6.26h-14.76v6.051h16.373v6.951H302.91V84.612z"/>
</g>
<g enable-background="new    ">
	<path fill="#F1F1F0" d="M22.063,166.141v-23.285h12.881v2.748H24.589v7.211h8.958v2.748h-8.958v10.578H22.063z"/>
	<path fill="#F1F1F0" d="M38.662,166.141v-23.285h2.525v23.285H38.662z"/>
	<path fill="#F1F1F0" d="M45.523,166.141v-23.285h2.589l10.039,18.318v-18.318h2.414v23.285h-2.589l-10.022-18.321v18.321H45.523z"
		/>
	<path fill="#F1F1F0" d="M64.79,166.141v-23.285h6.591c1.631,0,2.87,0.143,3.717,0.429c1.112,0.371,2.075,1.049,2.891,2.033
		c0.815,0.985,1.451,2.227,1.906,3.725c0.455,1.499,0.683,3.274,0.683,5.329c0,2.637-0.387,4.874-1.16,6.711
		s-1.766,3.14-2.978,3.907c-1.213,0.768-2.798,1.151-4.757,1.151H64.79z M67.315,163.393h4.066c1.641,0,2.885-0.267,3.733-0.802
		c0.847-0.535,1.498-1.396,1.954-2.581c0.604-1.578,0.905-3.468,0.905-5.671c0-2.36-0.32-4.217-0.961-5.566
		c-0.641-1.351-1.464-2.253-2.47-2.708c-0.678-0.308-1.753-0.461-3.225-0.461h-4.002V163.393z"/>
	<path fill="#F1F1F0" d="M84.151,166.141v-23.285h13.803v2.748H86.677v7.115h10.562v2.748H86.677v7.926h11.722v2.748H84.151z"/>
	<path fill="#F1F1F0" d="M109.248,166.141v-23.285h6.591c1.631,0,2.87,0.143,3.717,0.429c1.112,0.371,2.075,1.049,2.891,2.033
		c0.815,0.985,1.451,2.227,1.906,3.725c0.455,1.499,0.683,3.274,0.683,5.329c0,2.637-0.387,4.874-1.16,6.711
		s-1.766,3.14-2.978,3.907c-1.213,0.768-2.798,1.151-4.757,1.151H109.248z M111.773,163.393h4.066c1.641,0,2.885-0.267,3.733-0.802
		c0.847-0.535,1.498-1.396,1.954-2.581c0.604-1.578,0.905-3.468,0.905-5.671c0-2.36-0.32-4.217-0.961-5.566
		c-0.641-1.351-1.464-2.253-2.47-2.708c-0.678-0.308-1.753-0.461-3.225-0.461h-4.002V163.393z"/>
	<path fill="#F1F1F0" d="M128.609,166.141v-23.285h13.803v2.748h-11.277v7.115h10.562v2.748h-10.562v7.926h11.722v2.748H128.609z"/>
	<path fill="#F1F1F0" d="M146.828,166.141v-23.285h2.525v23.285H146.828z"/>
	<path fill="#F1F1F0" d="M153.689,166.141v-23.285h2.589l10.039,18.318v-18.318h2.414v23.285h-2.589l-10.022-18.321v18.321H153.689z
		"/>
	<path fill="#F1F1F0" d="M173.066,166.141v-23.285h13.803v2.748h-11.277v7.115h10.562v2.748h-10.562v7.926h11.722v2.748H173.066z"/>
</g>
<g enable-background="new    ">
	<path fill="#F1F1F0" d="M38.995,195.418h-4.179l-1.672-5.273H25.5l-1.579,5.273h-4.098l7.435-23.285h4.083L38.995,195.418z
		 M31.902,186.206l-2.636-8.641l-2.587,8.641H31.902z"/>
	<path fill="#F1F1F0" d="M41.06,195.418v-23.285h3.844v10.365l7.806-10.365h5.195l-7.2,9.075l7.581,14.21h-4.989l-5.268-10.942
		l-3.125,3.906v7.036H41.06z"/>
	<path fill="#F1F1F0" d="M77.497,195.418h-4.179l-1.672-5.273h-7.643l-1.579,5.273h-4.098l7.435-23.285h4.083L77.497,195.418z
		 M70.404,186.206l-2.636-8.641l-2.587,8.641H70.404z"/>
	<path fill="#F1F1F0" d="M79.498,172.133h7.029c1.777,0,3.118,0.198,4.022,0.596s1.737,1.067,2.499,2.009
		c0.762,0.943,1.359,2.166,1.793,3.67c0.434,1.503,0.651,3.372,0.651,5.606c0,2.012-0.228,3.762-0.683,5.249
		c-0.455,1.488-1.031,2.666-1.729,3.534c-0.698,0.869-1.542,1.522-2.531,1.962s-2.261,0.659-3.816,0.659h-7.236V172.133z
		 M83.341,176.072v15.406h2.891c1.239,0,2.137-0.116,2.692-0.349c0.556-0.232,1.011-0.584,1.366-1.056
		c0.354-0.47,0.648-1.213,0.881-2.229s0.35-2.354,0.35-4.015c0-1.724-0.119-3.083-0.357-4.078c-0.238-0.994-0.609-1.776-1.112-2.348
		c-0.503-0.571-1.115-0.947-1.834-1.127c-0.54-0.138-1.583-0.206-3.129-0.206H83.341z"/>
	<path fill="#F1F1F0" d="M98.78,195.418v-23.285h14.168v3.939h-10.324v5.162h9.594v3.923h-9.594v6.321h10.674v3.939H98.78z"/>
	<path fill="#F1F1F0" d="M116.506,195.418v-23.285h5.765l3.472,15.899l3.444-15.899h5.792v23.285h-3.589v-18.346l-3.806,18.346
		h-3.709l-3.778-18.346v18.346H116.506z"/>
	<path fill="#F1F1F0" d="M138.664,195.418v-23.285h3.844v23.285H138.664z"/>
	<path fill="#F1F1F0" d="M145.223,187.826l3.765-0.445c0.423,2.976,1.811,4.463,4.161,4.463c1.165,0,2.081-0.304,2.748-0.912
		s1-1.363,1-2.263c0-0.529-0.117-0.979-0.349-1.35c-0.233-0.37-0.588-0.675-1.064-0.913s-1.631-0.637-3.462-1.197
		c-1.642-0.497-2.843-1.036-3.605-1.618c-0.763-0.581-1.369-1.346-1.819-2.293s-0.675-1.965-0.675-3.055
		c0-1.271,0.288-2.413,0.865-3.429s1.374-1.782,2.391-2.301s2.271-0.778,3.764-0.778c2.245,0,3.998,0.609,5.258,1.827
		c1.26,1.218,1.927,2.96,2.001,5.226l-3.859,0.206c-0.169-1.249-0.535-2.122-1.096-2.62s-1.361-0.747-2.398-0.747
		s-1.837,0.217-2.398,0.649c-0.561,0.433-0.842,0.972-0.842,1.615c0,0.634,0.255,1.166,0.764,1.6
		c0.509,0.433,1.68,0.908,3.512,1.428c1.937,0.562,3.337,1.151,4.2,1.771c0.862,0.619,1.521,1.418,1.976,2.397
		s0.683,2.168,0.683,3.565c0,2.021-0.622,3.721-1.866,5.098c-1.244,1.376-3.19,2.064-5.837,2.064
		C148.357,195.815,145.752,193.152,145.223,187.826z"/>
	<path fill="#F1F1F0" d="M176.211,186.856l3.732,1.445c-0.582,2.605-1.551,4.509-2.906,5.711c-1.356,1.201-3.023,1.803-5.003,1.803
		c-2.489,0-4.506-0.959-6.052-2.875c-1.779-2.213-2.668-5.199-2.668-8.959c0-3.971,0.896-7.078,2.687-9.323
		c1.558-1.948,3.651-2.923,6.28-2.923c2.141,0,3.932,0.731,5.374,2.192c1.028,1.038,1.78,2.578,2.257,4.622l-3.812,1.112
		c-0.244-1.261-0.729-2.227-1.456-2.899c-0.727-0.672-1.583-1.009-2.569-1.009c-1.411,0-2.562,0.614-3.453,1.843
		c-0.891,1.229-1.336,3.256-1.336,6.083c0,2.934,0.434,5.02,1.302,6.259c0.868,1.238,1.996,1.858,3.383,1.858
		c1.017,0,1.895-0.395,2.637-1.184C175.348,189.824,175.883,188.572,176.211,186.856z"/>
	<path fill="#F1F1F0" d="M183.248,195.418v-23.285h3.844v9.165h7.577v-9.165h3.844v23.285h-3.844v-10.182h-7.577v10.182H183.248z"/>
	<path fill="#F1F1F0" d="M202.499,195.418v-23.285h14.168v3.939h-10.324v5.162h9.594v3.923h-9.594v6.321h10.674v3.939H202.499z"/>
	<path fill="#F1F1F0" d="M220.32,195.418v-23.285h3.749l7.814,15.55v-15.55h3.59v23.285h-3.875l-7.688-15.185v15.185H220.32z"/>
</g>
<g enable-background="new    ">
	<path fill="#F1F1F0" d="M25.283,224.693l-5.086-23.285h2.584l2.911,15.264c0.307,1.567,0.578,3.156,0.811,4.766l0.856-4.305
		l3.633-15.725h3.068l2.724,11.785c0.665,2.87,1.161,5.618,1.488,8.244c0.244-1.515,0.557-3.203,0.938-5.067l3.006-14.962h2.541
		l-5.249,23.285h-2.428l-4.034-17.742l-0.604-2.731c-0.18,1.017-0.365,1.928-0.556,2.731l-4.05,17.742H25.283z"/>
	<path fill="#F1F1F0" d="M59.532,201.408h2.525v13.453c0,2.256-0.219,4.106-0.658,5.552s-1.238,2.586-2.396,3.423
		c-1.159,0.836-2.631,1.255-4.419,1.255c-2.518,0-4.403-0.752-5.656-2.256s-1.88-4.161-1.88-7.974v-13.453h2.525v13.438
		c0,2.107,0.164,3.632,0.493,4.574c0.328,0.942,0.866,1.66,1.612,2.152c0.746,0.492,1.654,0.738,2.724,0.738
		c1.8,0,3.105-0.508,3.916-1.524s1.215-2.997,1.215-5.94V201.408z"/>
	<path fill="#F1F1F0" d="M66.298,224.693v-23.285h8.466c1.769,0,3.074,0.217,3.916,0.651c0.842,0.434,1.533,1.155,2.073,2.166
		s0.81,2.183,0.81,3.517c0,1.756-0.458,3.18-1.374,4.27s-2.248,1.783-3.995,2.079c0.709,0.427,1.25,0.858,1.62,1.295
		c0.751,0.89,1.414,1.88,1.985,2.97l3.335,6.338h-3.177l-2.546-4.842c-0.987-1.894-1.731-3.17-2.234-3.827
		c-0.502-0.658-0.989-1.101-1.459-1.329c-0.471-0.228-1.129-0.342-1.976-0.342h-2.919v10.34H66.298z M68.824,211.685h5.432
		c1.186,0,2.086-0.143,2.7-0.429s1.102-0.735,1.461-1.35s0.54-1.329,0.54-2.145c0-1.176-0.344-2.1-1.032-2.771
		c-0.688-0.673-1.71-1.009-3.065-1.009h-6.036V211.685z"/>
	<path fill="#F1F1F0" d="M84.072,224.693v-2.859l9.771-14.914c0.677-1.038,1.337-1.959,1.983-2.764H85.168v-2.748h13.675v2.748
		L88.139,220.31l-1.16,1.636h12.183v2.748H84.072z"/>
	<path fill="#F1F1F0" d="M101.909,224.693v-23.285h13.803v2.748h-11.277v7.115h10.562v2.748h-10.562v7.926h11.722v2.748H101.909z"/>
	<path fill="#F1F1F0" d="M119.492,224.693v-23.285h2.525v20.537h9.403v2.748H119.492z"/>
	<path fill="#F1F1F0" d="M134.406,224.693v-23.285h2.589l10.039,18.318v-18.318h2.414v23.285h-2.589l-10.022-18.321v18.321H134.406z
		"/>
</g>
<g enable-background="new    ">
	<path fill="#FFFFFF" d="M100.004,309.881h2.266c0.315,0,0.619,0.032,0.913,0.097s0.555,0.171,0.784,0.321s0.412,0.348,0.548,0.591
		c0.136,0.243,0.204,0.544,0.204,0.902c0,0.415-0.117,0.771-0.349,1.068c-0.233,0.297-0.564,0.495-0.993,0.596v0.021
		c0.537,0.043,0.957,0.23,1.262,0.563c0.304,0.333,0.456,0.778,0.456,1.337c0,0.122-0.03,0.301-0.091,0.537
		c-0.061,0.236-0.188,0.471-0.381,0.703c-0.193,0.232-0.473,0.435-0.838,0.606c-0.365,0.172-0.852,0.258-1.46,0.258h-2.319V309.881z
		 M100.777,313.209h1.557c0.186,0,0.37-0.023,0.553-0.069c0.183-0.047,0.347-0.124,0.494-0.231c0.146-0.107,0.267-0.245,0.359-0.413
		c0.093-0.168,0.14-0.374,0.14-0.617c0-0.079-0.016-0.189-0.048-0.333s-0.104-0.286-0.214-0.43c-0.111-0.144-0.274-0.267-0.489-0.37
		s-0.504-0.156-0.87-0.156h-1.482V313.209z M100.777,316.773h1.482c0.279,0,0.541-0.028,0.784-0.086
		c0.243-0.057,0.455-0.145,0.634-0.263c0.179-0.118,0.32-0.267,0.424-0.445c0.104-0.179,0.156-0.394,0.156-0.645
		c0-0.501-0.161-0.873-0.483-1.116c-0.322-0.244-0.794-0.365-1.417-0.365h-1.579V316.773z"/>
	<path fill="#FFFFFF" d="M107.541,310.524c0,0.15-0.054,0.274-0.161,0.371c-0.107,0.097-0.225,0.145-0.354,0.145
		s-0.247-0.048-0.354-0.145s-0.161-0.221-0.161-0.371s0.054-0.273,0.161-0.37s0.226-0.145,0.354-0.145s0.247,0.048,0.354,0.145
		C107.487,310.251,107.541,310.374,107.541,310.524z M107.38,317.482h-0.708v-5.025h0.708V317.482z"/>
	<path fill="#FFFFFF" d="M109.087,309.365h0.709v3.93h0.021c0.114-0.172,0.25-0.318,0.408-0.44c0.157-0.121,0.322-0.222,0.494-0.301
		c0.172-0.078,0.349-0.136,0.531-0.172c0.183-0.035,0.356-0.054,0.521-0.054c0.394,0,0.753,0.066,1.079,0.199
		c0.326,0.133,0.606,0.316,0.843,0.553s0.42,0.516,0.553,0.838s0.199,0.673,0.199,1.052c0,0.38-0.066,0.73-0.199,1.053
		s-0.316,0.601-0.553,0.837s-0.517,0.421-0.843,0.554c-0.326,0.132-0.686,0.198-1.079,0.198c-0.165,0-0.338-0.018-0.521-0.054
		s-0.359-0.093-0.531-0.172s-0.337-0.179-0.494-0.301c-0.157-0.121-0.293-0.269-0.408-0.44h-0.021v0.838h-0.709V309.365z
		 M113.672,314.97c0-0.279-0.045-0.54-0.134-0.783c-0.089-0.244-0.217-0.455-0.381-0.634s-0.363-0.32-0.596-0.424
		c-0.233-0.104-0.496-0.156-0.789-0.156c-0.294,0-0.562,0.052-0.806,0.156c-0.243,0.104-0.455,0.245-0.633,0.424
		c-0.179,0.179-0.318,0.39-0.419,0.634c-0.1,0.243-0.15,0.504-0.15,0.783s0.05,0.541,0.15,0.784c0.101,0.243,0.24,0.454,0.419,0.634
		c0.179,0.179,0.39,0.32,0.633,0.424c0.244,0.104,0.512,0.155,0.806,0.155c0.293,0,0.556-0.052,0.789-0.155
		c0.232-0.104,0.431-0.245,0.596-0.424c0.165-0.18,0.292-0.391,0.381-0.634S113.672,315.249,113.672,314.97z"/>
	<path fill="#FFFFFF" d="M119.502,311.137c-0.337-0.494-0.827-0.741-1.471-0.741c-0.201,0-0.397,0.027-0.59,0.081
		c-0.193,0.054-0.367,0.136-0.521,0.247c-0.154,0.11-0.277,0.254-0.371,0.43c-0.093,0.175-0.139,0.381-0.139,0.617
		c0,0.344,0.096,0.61,0.29,0.8s0.433,0.346,0.72,0.467c0.286,0.122,0.599,0.231,0.939,0.327c0.34,0.097,0.653,0.226,0.939,0.387
		c0.286,0.161,0.526,0.374,0.719,0.639c0.193,0.266,0.29,0.627,0.29,1.085c0,0.344-0.074,0.653-0.22,0.929
		c-0.147,0.275-0.34,0.507-0.58,0.692c-0.24,0.187-0.508,0.329-0.806,0.43c-0.297,0.101-0.596,0.15-0.896,0.15
		c-0.465,0-0.907-0.088-1.326-0.263c-0.418-0.176-0.775-0.464-1.068-0.865l0.709-0.504c0.164,0.279,0.392,0.503,0.685,0.671
		c0.292,0.168,0.638,0.252,1.038,0.252c0.192,0,0.385-0.03,0.578-0.091c0.192-0.061,0.366-0.15,0.519-0.269s0.28-0.263,0.38-0.435
		c0.1-0.172,0.15-0.369,0.15-0.591c0-0.265-0.056-0.485-0.167-0.66c-0.111-0.176-0.258-0.322-0.44-0.44s-0.39-0.217-0.623-0.295
		c-0.233-0.079-0.473-0.158-0.72-0.236c-0.247-0.079-0.487-0.168-0.719-0.269s-0.44-0.228-0.623-0.382
		c-0.183-0.153-0.33-0.347-0.44-0.579s-0.167-0.524-0.167-0.875c0-0.365,0.07-0.684,0.209-0.956c0.14-0.271,0.326-0.497,0.559-0.677
		c0.232-0.179,0.496-0.311,0.789-0.396s0.594-0.129,0.902-0.129c0.43,0,0.819,0.067,1.17,0.204c0.351,0.136,0.676,0.375,0.977,0.719
		L119.502,311.137z"/>
	<path fill="#FFFFFF" d="M126.696,314.97c0,0.38-0.066,0.73-0.198,1.053c-0.133,0.322-0.317,0.601-0.553,0.837
		s-0.517,0.421-0.843,0.554c-0.326,0.132-0.686,0.198-1.079,0.198c-0.387,0-0.743-0.066-1.068-0.198
		c-0.326-0.133-0.606-0.317-0.843-0.554s-0.421-0.515-0.553-0.837s-0.198-0.673-0.198-1.053c0-0.379,0.066-0.729,0.198-1.052
		s0.317-0.602,0.553-0.838s0.517-0.42,0.843-0.553s0.682-0.199,1.068-0.199c0.394,0,0.753,0.066,1.079,0.199
		s0.606,0.316,0.843,0.553s0.42,0.516,0.553,0.838C126.63,314.24,126.696,314.591,126.696,314.97z M125.923,314.97
		c0-0.279-0.045-0.54-0.134-0.783c-0.089-0.244-0.216-0.455-0.381-0.634c-0.165-0.179-0.364-0.32-0.596-0.424
		c-0.232-0.104-0.496-0.156-0.789-0.156s-0.557,0.052-0.789,0.156c-0.233,0.104-0.43,0.245-0.591,0.424s-0.286,0.39-0.375,0.634
		c-0.09,0.243-0.134,0.504-0.134,0.783s0.044,0.541,0.134,0.784c0.089,0.243,0.214,0.454,0.375,0.634
		c0.161,0.179,0.358,0.32,0.591,0.424c0.232,0.104,0.496,0.155,0.789,0.155s0.557-0.052,0.789-0.155s0.431-0.245,0.596-0.424
		c0.165-0.18,0.292-0.391,0.381-0.634S125.923,315.249,125.923,314.97z"/>
	<path fill="#FFFFFF" d="M128.661,312.457c0.014,0.137,0.023,0.271,0.027,0.403c0.003,0.132,0.005,0.267,0.005,0.402h0.021
		c0.079-0.136,0.179-0.261,0.3-0.376c0.122-0.114,0.258-0.213,0.408-0.295s0.31-0.146,0.478-0.193c0.168-0.047,0.335-0.07,0.5-0.07
		c0.644,0,1.12,0.171,1.428,0.511c0.308,0.34,0.461,0.825,0.461,1.455v3.188h-0.708v-2.781c0-0.558-0.097-0.985-0.29-1.283
		c-0.193-0.297-0.551-0.445-1.074-0.445c-0.036,0-0.136,0.015-0.301,0.043c-0.165,0.029-0.338,0.107-0.521,0.236
		s-0.346,0.322-0.489,0.58s-0.214,0.615-0.214,1.073v2.577h-0.709v-3.919c0-0.136-0.005-0.308-0.016-0.516
		c-0.011-0.207-0.023-0.404-0.038-0.591H128.661z"/>
	<path fill="#FFFFFF" d="M139.033,314.97c0,0.38-0.066,0.73-0.198,1.053c-0.133,0.322-0.317,0.601-0.553,0.837
		s-0.517,0.421-0.843,0.554c-0.326,0.132-0.686,0.198-1.079,0.198c-0.387,0-0.743-0.066-1.068-0.198
		c-0.326-0.133-0.606-0.317-0.843-0.554s-0.421-0.515-0.553-0.837s-0.198-0.673-0.198-1.053c0-0.379,0.066-0.729,0.198-1.052
		s0.317-0.602,0.553-0.838s0.517-0.42,0.843-0.553s0.682-0.199,1.068-0.199c0.394,0,0.753,0.066,1.079,0.199
		s0.606,0.316,0.843,0.553s0.42,0.516,0.553,0.838C138.967,314.24,139.033,314.591,139.033,314.97z M138.26,314.97
		c0-0.279-0.045-0.54-0.134-0.783c-0.089-0.244-0.216-0.455-0.381-0.634c-0.165-0.179-0.364-0.32-0.596-0.424
		c-0.232-0.104-0.496-0.156-0.789-0.156s-0.557,0.052-0.789,0.156c-0.233,0.104-0.43,0.245-0.591,0.424s-0.286,0.39-0.375,0.634
		c-0.09,0.243-0.134,0.504-0.134,0.783s0.044,0.541,0.134,0.784c0.089,0.243,0.214,0.454,0.375,0.634
		c0.161,0.179,0.358,0.32,0.591,0.424c0.232,0.104,0.496,0.155,0.789,0.155s0.557-0.052,0.789-0.155s0.431-0.245,0.596-0.424
		c0.165-0.18,0.292-0.391,0.381-0.634S138.26,315.249,138.26,314.97z"/>
	<path fill="#FFFFFF" d="M140.321,313.574c0-0.187-0.005-0.372-0.016-0.559c-0.011-0.186-0.023-0.372-0.038-0.559h0.763v0.763h0.021
		c0.171-0.293,0.41-0.516,0.714-0.666s0.606-0.226,0.907-0.226c0.136,0,0.281,0.015,0.435,0.043
		c0.154,0.029,0.302,0.081,0.445,0.156s0.277,0.181,0.403,0.316c0.125,0.137,0.231,0.312,0.317,0.526
		c0.143-0.322,0.37-0.576,0.682-0.763c0.312-0.186,0.635-0.279,0.972-0.279c0.644,0,1.12,0.171,1.428,0.511
		c0.308,0.34,0.461,0.825,0.461,1.455v3.188h-0.708v-2.932c0-0.508-0.09-0.897-0.269-1.17c-0.179-0.272-0.512-0.408-0.999-0.408
		c-0.265,0-0.487,0.052-0.666,0.156c-0.179,0.104-0.324,0.241-0.435,0.413s-0.191,0.367-0.242,0.585
		c-0.05,0.219-0.075,0.445-0.075,0.682v2.674h-0.708v-2.932c0-0.508-0.089-0.897-0.269-1.17c-0.179-0.272-0.512-0.408-0.999-0.408
		c-0.043,0-0.141,0.015-0.295,0.043c-0.154,0.029-0.313,0.107-0.478,0.236s-0.313,0.322-0.446,0.58s-0.198,0.615-0.198,1.073v2.577
		h-0.709V313.574z"/>
	<path fill="#FFFFFF" d="M151.337,316.612l1.536-4.155h0.859l-2.512,6.335c-0.15,0.387-0.342,0.694-0.575,0.924
		c-0.232,0.229-0.567,0.344-1.004,0.344c-0.107,0-0.216-0.004-0.328-0.011c-0.111-0.008-0.22-0.029-0.327-0.064l0.075-0.688
		c0.15,0.079,0.329,0.118,0.537,0.118c0.25,0,0.447-0.079,0.591-0.236c0.143-0.157,0.268-0.379,0.375-0.665l0.365-0.967l-2.062-5.09
		h0.891L151.337,316.612z"/>
	<path fill="#FFFFFF" d="M163.503,311.276c-0.258-0.272-0.566-0.486-0.923-0.645c-0.358-0.157-0.773-0.236-1.246-0.236
		c-0.487,0-0.923,0.09-1.31,0.269c-0.387,0.18-0.714,0.419-0.982,0.72s-0.474,0.649-0.617,1.047
		c-0.144,0.397-0.215,0.814-0.215,1.251s0.071,0.854,0.215,1.251c0.143,0.397,0.349,0.746,0.617,1.047s0.596,0.54,0.982,0.719
		c0.387,0.18,0.823,0.269,1.31,0.269c0.394,0,0.771-0.048,1.133-0.145c0.361-0.097,0.685-0.228,0.972-0.392v-2.545h-1.815v-0.709
		h2.588v3.726c-0.43,0.251-0.9,0.442-1.412,0.575c-0.512,0.132-1,0.198-1.465,0.198c-0.566,0-1.09-0.101-1.573-0.301
		c-0.483-0.2-0.902-0.478-1.256-0.832c-0.354-0.354-0.632-0.774-0.832-1.262c-0.2-0.486-0.3-1.02-0.3-1.6s0.1-1.113,0.3-1.6
		c0.2-0.487,0.478-0.907,0.832-1.262c0.354-0.354,0.773-0.632,1.256-0.832c0.483-0.201,1.007-0.301,1.573-0.301
		c0.608,0,1.133,0.084,1.573,0.252c0.44,0.168,0.832,0.424,1.176,0.768L163.503,311.276z"/>
	<path fill="#FFFFFF" d="M166.477,315.163c0.021,0.251,0.082,0.487,0.183,0.709c0.1,0.222,0.232,0.413,0.397,0.574
		s0.354,0.288,0.569,0.381c0.214,0.094,0.447,0.14,0.698,0.14c0.379,0,0.707-0.087,0.982-0.263s0.485-0.378,0.628-0.606l0.547,0.45
		c-0.301,0.38-0.632,0.652-0.993,0.816c-0.362,0.165-0.75,0.247-1.165,0.247c-0.372,0-0.718-0.066-1.036-0.198
		c-0.318-0.133-0.592-0.317-0.821-0.554c-0.229-0.236-0.41-0.515-0.542-0.837s-0.198-0.673-0.198-1.053
		c0-0.379,0.064-0.729,0.193-1.052s0.308-0.602,0.537-0.838c0.229-0.236,0.498-0.42,0.805-0.553s0.641-0.199,0.999-0.199
		c0.379,0,0.719,0.068,1.02,0.204c0.301,0.137,0.553,0.317,0.757,0.543c0.204,0.225,0.36,0.49,0.467,0.794
		c0.107,0.305,0.161,0.628,0.161,0.972v0.322H166.477z M169.892,314.583c0-0.479-0.144-0.867-0.43-1.165
		c-0.287-0.297-0.687-0.445-1.203-0.445c-0.229,0-0.451,0.045-0.666,0.135c-0.215,0.089-0.403,0.209-0.564,0.359
		s-0.29,0.322-0.386,0.516s-0.145,0.394-0.145,0.601H169.892z"/>
	<path fill="#FFFFFF" d="M172.63,312.457c0.014,0.137,0.023,0.271,0.027,0.403c0.003,0.132,0.005,0.267,0.005,0.402h0.021
		c0.079-0.136,0.179-0.261,0.3-0.376c0.122-0.114,0.258-0.213,0.408-0.295s0.31-0.146,0.478-0.193c0.168-0.047,0.335-0.07,0.5-0.07
		c0.644,0,1.12,0.171,1.428,0.511c0.308,0.34,0.461,0.825,0.461,1.455v3.188h-0.708v-2.781c0-0.558-0.097-0.985-0.29-1.283
		c-0.193-0.297-0.551-0.445-1.074-0.445c-0.036,0-0.136,0.015-0.301,0.043c-0.165,0.029-0.338,0.107-0.521,0.236
		s-0.346,0.322-0.489,0.58s-0.214,0.615-0.214,1.073v2.577h-0.709v-3.919c0-0.136-0.005-0.308-0.016-0.516
		c-0.011-0.207-0.023-0.404-0.038-0.591H172.63z"/>
	<path fill="#FFFFFF" d="M178.417,315.163c0.021,0.251,0.082,0.487,0.183,0.709c0.1,0.222,0.232,0.413,0.397,0.574
		s0.354,0.288,0.569,0.381c0.214,0.094,0.447,0.14,0.698,0.14c0.379,0,0.707-0.087,0.982-0.263s0.485-0.378,0.628-0.606l0.547,0.45
		c-0.301,0.38-0.632,0.652-0.993,0.816c-0.362,0.165-0.75,0.247-1.165,0.247c-0.372,0-0.718-0.066-1.036-0.198
		c-0.318-0.133-0.592-0.317-0.821-0.554c-0.229-0.236-0.41-0.515-0.542-0.837s-0.198-0.673-0.198-1.053
		c0-0.379,0.064-0.729,0.193-1.052s0.308-0.602,0.537-0.838c0.229-0.236,0.498-0.42,0.805-0.553s0.641-0.199,0.999-0.199
		c0.379,0,0.719,0.068,1.02,0.204c0.301,0.137,0.553,0.317,0.757,0.543c0.204,0.225,0.36,0.49,0.467,0.794
		c0.107,0.305,0.161,0.628,0.161,0.972v0.322H178.417z M181.832,314.583c0-0.479-0.144-0.867-0.43-1.165
		c-0.287-0.297-0.687-0.445-1.203-0.445c-0.229,0-0.451,0.045-0.666,0.135c-0.215,0.089-0.403,0.209-0.564,0.359
		s-0.29,0.322-0.386,0.516s-0.145,0.394-0.145,0.601H181.832z"/>
	<path fill="#FFFFFF" d="M187.114,314.4v-0.128c0-0.866-0.429-1.3-1.289-1.3c-0.587,0-1.099,0.197-1.535,0.591l-0.43-0.505
		c0.473-0.486,1.181-0.73,2.126-0.73c0.243,0,0.478,0.036,0.704,0.107c0.225,0.072,0.42,0.182,0.585,0.328s0.297,0.331,0.397,0.553
		c0.1,0.222,0.15,0.487,0.15,0.795v2.244c0,0.192,0.009,0.396,0.026,0.606c0.018,0.211,0.038,0.385,0.059,0.521h-0.687
		c-0.021-0.122-0.038-0.254-0.048-0.397c-0.011-0.143-0.016-0.282-0.016-0.419h-0.021c-0.208,0.337-0.453,0.578-0.735,0.726
		c-0.283,0.146-0.628,0.22-1.036,0.22c-0.222,0-0.437-0.03-0.645-0.092c-0.208-0.061-0.392-0.153-0.553-0.278
		c-0.161-0.126-0.29-0.279-0.387-0.462s-0.145-0.396-0.145-0.639c0-0.408,0.105-0.729,0.316-0.961
		c0.211-0.233,0.476-0.406,0.794-0.521c0.319-0.114,0.659-0.186,1.02-0.215c0.362-0.028,0.693-0.043,0.994-0.043H187.114z
		 M186.749,314.98c-0.179,0-0.403,0.009-0.671,0.027c-0.269,0.018-0.526,0.061-0.773,0.129c-0.247,0.067-0.458,0.173-0.633,0.316
		c-0.176,0.144-0.263,0.34-0.263,0.591c0,0.164,0.034,0.306,0.102,0.424c0.068,0.118,0.159,0.215,0.273,0.29
		c0.115,0.075,0.242,0.129,0.381,0.161s0.281,0.048,0.424,0.048c0.257,0,0.481-0.043,0.671-0.129
		c0.189-0.086,0.349-0.202,0.478-0.349c0.128-0.146,0.224-0.318,0.284-0.516c0.061-0.196,0.091-0.406,0.091-0.628v-0.365H186.749z"
		/>
	<path fill="#FFFFFF" d="M190.335,317.482h-0.708v-8.117h0.708V317.482z"/>
	<path fill="#FFFFFF" d="M197.121,314.97c0,0.38-0.066,0.73-0.198,1.053c-0.133,0.322-0.317,0.601-0.553,0.837
		s-0.517,0.421-0.843,0.554c-0.326,0.132-0.686,0.198-1.079,0.198c-0.387,0-0.743-0.066-1.068-0.198
		c-0.326-0.133-0.606-0.317-0.843-0.554s-0.421-0.515-0.553-0.837s-0.198-0.673-0.198-1.053c0-0.379,0.066-0.729,0.198-1.052
		s0.317-0.602,0.553-0.838s0.517-0.42,0.843-0.553s0.682-0.199,1.068-0.199c0.394,0,0.753,0.066,1.079,0.199
		s0.606,0.316,0.843,0.553s0.42,0.516,0.553,0.838C197.055,314.24,197.121,314.591,197.121,314.97z M196.348,314.97
		c0-0.279-0.045-0.54-0.134-0.783c-0.089-0.244-0.216-0.455-0.381-0.634c-0.165-0.179-0.364-0.32-0.596-0.424
		c-0.232-0.104-0.496-0.156-0.789-0.156s-0.557,0.052-0.789,0.156c-0.233,0.104-0.43,0.245-0.591,0.424s-0.286,0.39-0.375,0.634
		c-0.09,0.243-0.134,0.504-0.134,0.783s0.044,0.541,0.134,0.784c0.089,0.243,0.214,0.454,0.375,0.634
		c0.161,0.179,0.358,0.32,0.591,0.424c0.232,0.104,0.496,0.155,0.789,0.155s0.557-0.052,0.789-0.155s0.431-0.245,0.596-0.424
		c0.165-0.18,0.292-0.391,0.381-0.634S196.348,315.249,196.348,314.97z"/>
	<path fill="#FFFFFF" d="M198.796,318.492c0.208,0.278,0.478,0.502,0.811,0.671c0.333,0.168,0.703,0.252,1.111,0.252
		c0.358,0,0.662-0.052,0.913-0.155c0.25-0.104,0.453-0.246,0.607-0.425c0.154-0.179,0.265-0.388,0.333-0.628
		s0.102-0.495,0.102-0.768v-0.902h-0.021c-0.229,0.344-0.508,0.588-0.837,0.73c-0.329,0.144-0.676,0.215-1.042,0.215
		s-0.707-0.064-1.025-0.193s-0.596-0.306-0.832-0.531s-0.422-0.496-0.559-0.811c-0.136-0.315-0.204-0.655-0.204-1.021
		s0.064-0.705,0.193-1.02c0.129-0.315,0.306-0.591,0.532-0.827s0.494-0.42,0.805-0.553s0.653-0.199,1.025-0.199
		c0.15,0,0.31,0.015,0.478,0.043c0.168,0.029,0.336,0.079,0.504,0.15c0.168,0.072,0.334,0.171,0.5,0.296
		c0.165,0.125,0.318,0.284,0.461,0.478h0.021v-0.838h0.709v4.982c0,0.272-0.034,0.562-0.102,0.87
		c-0.068,0.308-0.201,0.59-0.397,0.848s-0.471,0.473-0.821,0.645c-0.351,0.172-0.809,0.258-1.375,0.258
		c-0.501,0-0.949-0.083-1.342-0.247c-0.394-0.165-0.751-0.419-1.074-0.763L198.796,318.492z M198.925,314.905
		c0,0.265,0.048,0.514,0.145,0.746c0.097,0.233,0.229,0.438,0.397,0.612c0.168,0.176,0.365,0.315,0.591,0.419
		c0.225,0.104,0.47,0.155,0.735,0.155c0.258,0,0.503-0.046,0.735-0.14c0.233-0.093,0.438-0.224,0.618-0.392
		c0.179-0.168,0.316-0.37,0.413-0.606s0.142-0.501,0.134-0.795c0-0.265-0.043-0.514-0.129-0.746s-0.211-0.437-0.375-0.612
		c-0.165-0.175-0.365-0.314-0.602-0.418c-0.236-0.104-0.501-0.156-0.794-0.156c-0.265,0-0.51,0.052-0.735,0.156
		c-0.226,0.104-0.422,0.243-0.591,0.418c-0.168,0.176-0.3,0.38-0.397,0.612S198.925,314.641,198.925,314.905z"/>
	<path fill="#FFFFFF" d="M206,310.524c0,0.15-0.054,0.274-0.161,0.371c-0.107,0.097-0.225,0.145-0.354,0.145
		s-0.247-0.048-0.354-0.145s-0.161-0.221-0.161-0.371s0.054-0.273,0.161-0.37s0.226-0.145,0.354-0.145s0.247,0.048,0.354,0.145
		C205.946,310.251,206,310.374,206,310.524z M205.839,317.482h-0.708v-5.025h0.708V317.482z"/>
	<path fill="#FFFFFF" d="M208.041,315.163c0.021,0.251,0.082,0.487,0.183,0.709c0.1,0.222,0.232,0.413,0.397,0.574
		s0.354,0.288,0.569,0.381c0.214,0.094,0.447,0.14,0.698,0.14c0.379,0,0.707-0.087,0.982-0.263s0.485-0.378,0.628-0.606l0.547,0.45
		c-0.301,0.38-0.632,0.652-0.993,0.816c-0.362,0.165-0.75,0.247-1.165,0.247c-0.372,0-0.718-0.066-1.036-0.198
		c-0.318-0.133-0.592-0.317-0.821-0.554c-0.229-0.236-0.41-0.515-0.542-0.837s-0.198-0.673-0.198-1.053
		c0-0.379,0.064-0.729,0.193-1.052s0.308-0.602,0.537-0.838c0.229-0.236,0.498-0.42,0.805-0.553s0.641-0.199,0.999-0.199
		c0.379,0,0.719,0.068,1.02,0.204c0.301,0.137,0.553,0.317,0.757,0.543c0.204,0.225,0.36,0.49,0.467,0.794
		c0.107,0.305,0.161,0.628,0.161,0.972v0.322H208.041z M211.455,314.583c0-0.479-0.144-0.867-0.43-1.165
		c-0.287-0.297-0.687-0.445-1.203-0.445c-0.229,0-0.451,0.045-0.666,0.135c-0.215,0.089-0.403,0.209-0.564,0.359
		s-0.29,0.322-0.386,0.516s-0.145,0.394-0.145,0.601H211.455z"/>
</g>
<circle fill="#FFFFFF" stroke="#0B5D90" stroke-miterlimit="10" cx="217.398" cy="381.647" r="5.354"/>
<path fill="#C6C6C6" d="M279.832,407.695c-0.656,0.25-1.259,0.479-1.922,0.734c-0.859-2.365-1.71-4.705-2.545-7.005
	c-1.204,1.166-2.406,2.332-3.677,3.563c0-5.495,0-10.901,0-16.375c3.506,4.154,6.983,8.272,10.54,12.488
	c-1.77-0.153-3.429-0.3-5.183-0.451C277.995,403.057,278.903,405.35,279.832,407.695z"/>
<polygon fill="#C6C6C6" points="841.89,259.33 741.365,267.706 685.25,233.172 673.017,246.843 739.207,277.06 841.89,260.269 "/>
<polygon fill="#C6C6C6" points="624.093,289.887 662.945,325.141 702.513,307.514 720.501,321.762 706.83,293.483 663.664,307.514 
	644.957,274.06 "/>
<polyline fill="none" stroke="#3780C3" stroke-width="2" stroke-miterlimit="10" stroke-dasharray="6,4,6,4,6,4" points="
	610.38,353.451 630.083,353.451 630.083,344.312 653.486,344.312 684.05,344.312 684.05,274.06 "/>
<polyline fill="none" stroke="#3780C3" stroke-width="2" stroke-miterlimit="10" stroke-dasharray="6,4,6,4,6,4" points="
	749.976,202.015 720.501,202.015 720.501,228.845 684.05,228.845 684.05,267.77 566.537,267.77 566.537,201.83 265.983,201.83 
	265.349,251.917 19.823,252.25 19.823,291.819 "/>
<polyline fill="none" stroke="#3780C3" stroke-width="2" stroke-miterlimit="10" stroke-dasharray="6,4,6,4,6,4" points="
	765.261,250.26 720.501,250.26 720.501,228.845 "/>
<path fill="#C6C6C6" d="M493.681,488.246c0,0,62.236-112.184,44.221-167.865c-18.016-55.685-117.098-176.057-32.756-272.684
	c0,0-45.854,70.423,3.275,161.317c49.133,90.895,90.895,107.273,52.408,268.585L493.681,488.246z"/>
<polygon fill="#C6C6C6" points="511.925,230.172 536.679,158.947 666.9,135.924 706.83,63.26 660.785,123.694 523.744,146.717 
	493.873,197.366 "/>
<polyline fill="none" stroke="#3780C3" stroke-width="2" stroke-miterlimit="10" stroke-dasharray="6,4,6,4,6,4" points="
	624.093,317.482 656.142,317.482 656.142,344.312 "/>
</svg>
