<?xml version="1.0" encoding="utf-8"?>
<!-- Generator: Adobe Illustrator 16.0.0, SVG Export Plug-In . SVG Version: 6.00 Build 0)  -->
<!DOCTYPE svg PUBLIC "-//W3C//DTD SVG 1.1//EN" "http://www.w3.org/Graphics/SVG/1.1/DTD/svg11.dtd">
<svg version="1.1" id="Ebene_1" xmlns="http://www.w3.org/2000/svg" xmlns:xlink="http://www.w3.org/1999/xlink" x="0px" y="0px"
	 width="841.89px" height="595.281px" viewBox="0 0 841.89 595.281" enable-background="new 0 0 841.89 595.281"
	 xml:space="preserve">
<path fill="#F1F1F0" d="M842.117,560.939c0,19.049-15.443,34.487-34.492,34.487H34.493C15.443,595.427,0,579.988,0,560.939V49.036
	c0-19.049,15.443-34.494,34.493-34.494h773.131c19.049,0,34.492,15.445,34.492,34.494V560.939L842.117,560.939z"/>
<rect x="35.172" y="38.41" fill="#3780C3" width="771.982" height="434.203"/>
<path fill="#F1F1F0" d="M433.314,219.254c0,10.959-8.885,19.843-19.842,19.843H188.877c-10.958,0-19.842-8.884-19.842-19.843
	v-47.858c0-10.959,8.884-19.843,19.842-19.843h224.595c10.958,0,19.842,8.884,19.842,19.843V219.254z"/>
<path fill="#FFFFFF" d="M253.868,219.254c0,10.959-8.884,19.843-19.842,19.843H110.23c-10.958,0-19.842-8.884-19.842-19.843v-47.858
	c0-10.959,8.884-19.843,19.842-19.843h123.795c10.958,0,19.842,8.884,19.842,19.843L253.868,219.254L253.868,219.254z"/>
<path fill="#0B5D90" d="M437.441,551.917c0,9.055-7.336,16.389-16.384,16.389c-9.051,0-16.385-7.334-16.385-16.389
	c0-9.047,7.334-16.381,16.385-16.381C430.105,535.537,437.441,542.871,437.441,551.917z"/>
<text transform="matrix(1 0 0 1 90.3877 97.4854)" fill="#FFFFFF" font-family="'Avenir-Book'" font-size="31.4006">BibSonomy Genealogie</text>
<text transform="matrix(1 0 0 1 90.3877 133.334)" fill="#FFFFFF" font-family="'Avenir-Light'" font-size="22">Lea Musterfrau</text>
<text transform="matrix(1 0 0 1 106.667 171.9814)" fill="#0B5D90" font-family="'Avenir-Medium'" font-size="12">Eigene Abschlussarbeiten</text>
<rect x="90.388" y="184.187" fill="#FFFFFF" width="624.945" height="298.49"/>
<path fill="#F1F1F0" d="M768.996,495.335c0,2.57,2.084,4.654,4.654,4.654l0,0c2.57,0,4.654-2.084,4.654-4.654V78.128
	c0-2.57-2.084-4.654-4.654-4.654l0,0c-2.57,0-4.654,2.084-4.654,4.654V495.335z"/>
<path fill="#0B5D90" d="M807.625,0H34.493C15.443,0,0,15.445,0,34.494V506.46h842.117V34.494C842.117,15.445,826.673,0,807.625,0z
	 M806.945,472.925H35.172V38.41h771.773V472.925z"/>
<text transform="matrix(1 0 0 1 317.9087 219.5273)" fill="#0B5D90" font-family="'Avenir-Medium'" font-size="12">ABSCHLUSSARBEIT HINZUFÜGEN</text>
<circle fill="#0B5D90" cx="773.652" cy="261.85" r="10.601"/>
<rect x="106.667" y="203.023" fill="none" stroke="#3780C3" stroke-miterlimit="10" width="594.667" height="22.987"/>
<rect x="106.667" y="247.3" fill="none" stroke="#3780C3" stroke-miterlimit="10" width="228.386" height="88.646"/>
<rect x="113.103" y="253.734" fill="none" width="219.231" height="79.7"/>
<text transform="matrix(1 0 0 1 113.1025 262.8057)" fill="#0B5D90" font-family="'Avenir-Medium'" font-size="12">Musterdoktorarbeiten im Zeitalter</text>
<text transform="matrix(1 0 0 1 113.1025 277.2061)" fill="#0B5D90" font-family="'Avenir-Medium'" font-size="12">der Allgemeingültigkeit</text>
<text transform="matrix(1 0 0 1 113.1025 280.2061)" fill="#0B5D90" font-family="'Avenir-Medium'" font-size="12"> </text>
<text transform="matrix(1 0 0 1 113.1025 292.2061)" fill="#0B5D90" font-family="'Avenir-Light'" font-size="10">Lea Musterfrau. </text>
<text transform="matrix(1 0 0 1 184.6235 292.2061)" fill="#3780C3" font-family="'Avenir-Light'" font-size="10">Uni Kassel, (2015)</text>
<text transform="matrix(1 0 0 1 113.1025 328.2061)" fill="#3780C3" font-family="'Avenir-Light'" font-size="10">vor 2 Tagen von @leamusterfrau</text>
<rect x="106.667" y="352.154" fill="none" stroke="#3780C3" stroke-miterlimit="10" width="228.386" height="88.646"/>
<rect x="113.103" y="358.587" fill="none" width="219.231" height="79.699"/>
<text transform="matrix(1 0 0 1 113.1025 367.6602)" fill="#0B5D90" font-family="'Avenir-Medium'" font-size="12">Beispielarbeit zur Veranschaulichung</text>
<text transform="matrix(1 0 0 1 113.1025 382.0605)" fill="#0B5D90" font-family="'Avenir-Medium'" font-size="12">dauerhafter Relevanz</text>
<text transform="matrix(1 0 0 1 113.1025 385.0605)" fill="#0B5D90" font-family="'Avenir-Medium'" font-size="12"> </text>
<text transform="matrix(1 0 0 1 113.1025 397.0605)" fill="#0B5D90" font-family="'Avenir-Light'" font-size="10">Lea Musterfrau. </text>
<text transform="matrix(1 0 0 1 184.6235 397.0605)" fill="#3780C3" font-family="'Avenir-Light'" font-size="10">Uni Kassel, (2012)</text>
<text transform="matrix(1 0 0 1 113.1025 433.0605)" fill="#3780C3" font-family="'Avenir-Light'" font-size="10">vor 2 Tagen von @leamusterfrau</text>
<line fill="none" stroke="#F1F1F0" stroke-miterlimit="10" x1="355" y1="247.3" x2="355" y2="335.945"/>
<line fill="none" stroke="#F1F1F0" stroke-miterlimit="10" x1="355" y1="352.154" x2="355" y2="440.8"/>
<g>
	<rect x="394.904" y="253.734" fill="none" width="219.23" height="79.7"/>
	<text transform="matrix(1 0 0 1 394.9038 261.2939)" fill="#0B5D90" font-family="'Avenir-Light'" font-size="10">Doktorvater / Doktormutter: </text>
	<text transform="matrix(1 0 0 1 522.1958 261.2939)" fill="#0B5D90" font-family="'Avenir-Black'" font-size="10">+</text>
	<text transform="matrix(1 0 0 1 394.9038 273.2939)" fill="#0B5D90" font-family="'Avenir-Light'" font-size="10">Erstgutachter_in: </text>
	<text transform="matrix(1 0 0 1 472.6938 273.2939)" fill="#0B5D90" font-family="'Avenir-Black'" font-size="10">+</text>
	<text transform="matrix(1 0 0 1 394.9038 285.2939)" fill="#0B5D90" font-family="'Avenir-Light'" font-size="10">Gutachter_in: </text>
	<text transform="matrix(1 0 0 1 457.5132 285.2939)" fill="#0B5D90" font-family="'Avenir-Black'" font-size="10">+</text>
	<text transform="matrix(1 0 0 1 394.9038 297.2939)" fill="#0B5D90" font-family="'Avenir-Light'" font-size="10">Betreuer_in: </text>
	<text transform="matrix(1 0 0 1 451.5933 297.2939)" fill="#0B5D90" font-family="'Avenir-Black'" font-size="10">+</text>
	<text transform="matrix(1 0 0 1 394.9038 309.2939)" fill="#0B5D90" font-family="'Avenir-Light'" font-size="10">Autor_in: Lea Musterfrau </text>
	<text transform="matrix(1 0 0 1 506.9937 309.2939)" fill="#0B5D90" font-family="'Avenir-Black'" font-size="10">x</text>
	<text transform="matrix(1 0 0 1 512.5542 309.2939)" fill="#0B5D90" font-family="'Avenir-Light'" font-size="10"> </text>
	<text transform="matrix(1 0 0 1 515.1538 309.2939)" fill="#0B5D90" font-family="'Avenir-Black'" font-size="10">+ </text>
	<text transform="matrix(1 0 0 1 394.9038 321.2939)" fill="#0B5D90" font-family="'Avenir-Light'" font-size="10">Herausgeber_in: </text>
	<text transform="matrix(1 0 0 1 470.854 321.2939)" fill="#0B5D90" font-family="'Avenir-Black'" font-size="10">+</text>
	<text transform="matrix(1 0 0 1 394.9038 333.2939)" fill="#0B5D90" font-family="'Avenir-Light'" font-size="10">Andere: </text>
	<text transform="matrix(1 0 0 1 433.0737 333.2939)" fill="#0B5D90" font-family="'Avenir-Black'" font-size="10">+</text>
	<g>
		<circle fill="#0B5D90" cx="387.397" cy="257.792" r="4.058"/>
		<g>
			<path fill="#FFFFFF" d="M386.793,258.448c0-0.16,0.021-0.296,0.064-0.408c0.042-0.112,0.113-0.216,0.216-0.312
				c0.147-0.144,0.287-0.27,0.412-0.376c0.125-0.107,0.231-0.207,0.322-0.3c0.092-0.093,0.161-0.181,0.214-0.264
				c0.051-0.083,0.074-0.169,0.074-0.26c0-0.176-0.055-0.313-0.164-0.412c-0.107-0.099-0.247-0.148-0.41-0.148
				c-0.253,0-0.441,0.069-0.572,0.208c-0.13,0.139-0.204,0.307-0.222,0.504l-1.23-0.08c0.059-0.565,0.267-0.996,0.624-1.292
				c0.355-0.296,0.816-0.444,1.376-0.444c0.245,0,0.476,0.034,0.692,0.1c0.216,0.067,0.405,0.167,0.57,0.3
				c0.166,0.134,0.296,0.299,0.394,0.496c0.096,0.197,0.144,0.424,0.144,0.68c0,0.155-0.016,0.295-0.048,0.42
				s-0.087,0.25-0.164,0.372c-0.078,0.123-0.179,0.247-0.304,0.372s-0.284,0.263-0.478,0.412c-0.123,0.096-0.206,0.189-0.248,0.28
				c-0.043,0.091-0.062,0.181-0.062,0.272v0.232h-1.2V258.448L386.793,258.448z M386.657,259.984c0-0.101,0.019-0.197,0.056-0.288
				c0.037-0.09,0.089-0.169,0.156-0.236c0.064-0.067,0.145-0.119,0.236-0.156c0.091-0.037,0.187-0.056,0.286-0.056
				c0.103,0,0.197,0.019,0.288,0.056c0.092,0.038,0.169,0.089,0.236,0.156c0.066,0.067,0.119,0.146,0.156,0.236
				c0.038,0.091,0.056,0.187,0.056,0.288c0,0.102-0.019,0.197-0.056,0.288s-0.089,0.169-0.156,0.236
				c-0.067,0.067-0.146,0.119-0.236,0.156s-0.187,0.056-0.288,0.056c-0.101,0-0.195-0.019-0.286-0.056
				c-0.093-0.038-0.171-0.089-0.236-0.156c-0.067-0.066-0.119-0.145-0.156-0.236S386.657,260.085,386.657,259.984z"/>
		</g>
	</g>
	<g>
		<circle fill="#0B5D90" cx="387.397" cy="269.458" r="4.058"/>
		<g>
			<path fill="#FFFFFF" d="M386.793,270.114c0-0.16,0.021-0.296,0.064-0.408c0.042-0.112,0.113-0.216,0.216-0.312
				c0.147-0.144,0.287-0.27,0.412-0.376c0.125-0.107,0.231-0.207,0.322-0.3c0.092-0.093,0.161-0.181,0.214-0.264
				c0.051-0.083,0.074-0.169,0.074-0.26c0-0.176-0.055-0.313-0.164-0.412c-0.107-0.099-0.247-0.148-0.41-0.148
				c-0.253,0-0.441,0.069-0.572,0.208c-0.13,0.139-0.204,0.307-0.222,0.504l-1.23-0.08c0.059-0.565,0.267-0.996,0.624-1.292
				c0.355-0.296,0.816-0.444,1.376-0.444c0.245,0,0.476,0.034,0.692,0.1c0.216,0.067,0.405,0.167,0.57,0.3
				c0.166,0.134,0.296,0.299,0.394,0.496c0.096,0.197,0.144,0.424,0.144,0.68c0,0.155-0.016,0.295-0.048,0.42
				s-0.087,0.25-0.164,0.372c-0.078,0.123-0.179,0.247-0.304,0.372s-0.284,0.263-0.478,0.412c-0.123,0.096-0.206,0.189-0.248,0.28
				c-0.043,0.091-0.062,0.181-0.062,0.272v0.232h-1.2V270.114L386.793,270.114z M386.657,271.65c0-0.101,0.019-0.197,0.056-0.288
				c0.037-0.09,0.089-0.169,0.156-0.236c0.064-0.067,0.145-0.119,0.236-0.156c0.091-0.037,0.187-0.056,0.286-0.056
				c0.103,0,0.197,0.019,0.288,0.056c0.092,0.038,0.169,0.089,0.236,0.156c0.066,0.067,0.119,0.146,0.156,0.236
				c0.038,0.091,0.056,0.187,0.056,0.288c0,0.102-0.019,0.197-0.056,0.288s-0.089,0.169-0.156,0.236
				c-0.067,0.067-0.146,0.119-0.236,0.156s-0.187,0.056-0.288,0.056c-0.101,0-0.195-0.019-0.286-0.056
				c-0.093-0.038-0.171-0.089-0.236-0.156c-0.067-0.066-0.119-0.145-0.156-0.236S386.657,271.752,386.657,271.65z"/>
		</g>
	</g>
	<g>
		<circle fill="#0B5D90" cx="387.397" cy="282.14" r="4.058"/>
		<g>
			<path fill="#FFFFFF" d="M386.793,282.796c0-0.16,0.021-0.296,0.064-0.408c0.042-0.112,0.113-0.216,0.216-0.312
				c0.147-0.144,0.287-0.27,0.412-0.376c0.125-0.107,0.231-0.207,0.322-0.3c0.092-0.093,0.161-0.181,0.214-0.264
				c0.051-0.083,0.074-0.169,0.074-0.26c0-0.176-0.055-0.313-0.164-0.412c-0.107-0.099-0.247-0.148-0.41-0.148
				c-0.253,0-0.441,0.069-0.572,0.208c-0.13,0.139-0.204,0.307-0.222,0.504l-1.23-0.08c0.059-0.565,0.267-0.996,0.624-1.292
				c0.355-0.296,0.816-0.444,1.376-0.444c0.245,0,0.476,0.034,0.692,0.1c0.216,0.067,0.405,0.167,0.57,0.3
				c0.166,0.134,0.296,0.299,0.394,0.496c0.096,0.197,0.144,0.424,0.144,0.68c0,0.155-0.016,0.295-0.048,0.42
				s-0.087,0.25-0.164,0.372c-0.078,0.123-0.179,0.247-0.304,0.372s-0.284,0.263-0.478,0.412c-0.123,0.096-0.206,0.189-0.248,0.28
				c-0.043,0.091-0.062,0.181-0.062,0.272v0.232h-1.2V282.796L386.793,282.796z M386.657,284.332c0-0.101,0.019-0.197,0.056-0.288
				c0.037-0.09,0.089-0.169,0.156-0.236c0.064-0.067,0.145-0.119,0.236-0.156c0.091-0.037,0.187-0.056,0.286-0.056
				c0.103,0,0.197,0.019,0.288,0.056c0.092,0.038,0.169,0.089,0.236,0.156c0.066,0.067,0.119,0.146,0.156,0.236
				c0.038,0.091,0.056,0.187,0.056,0.288c0,0.102-0.019,0.197-0.056,0.288c-0.037,0.091-0.089,0.169-0.156,0.236
				s-0.146,0.119-0.236,0.156c-0.091,0.037-0.187,0.056-0.288,0.056c-0.101,0-0.195-0.019-0.286-0.056
				c-0.093-0.038-0.171-0.089-0.236-0.156c-0.067-0.066-0.119-0.145-0.156-0.236C386.676,284.529,386.657,284.434,386.657,284.332z"
				/>
		</g>
	</g>
	<g>
		<circle fill="#0B5D90" cx="387.397" cy="293.583" r="4.058"/>
		<g>
			<path fill="#FFFFFF" d="M386.793,294.239c0-0.16,0.021-0.296,0.064-0.408c0.042-0.112,0.113-0.216,0.216-0.312
				c0.147-0.144,0.287-0.27,0.412-0.376c0.125-0.107,0.231-0.207,0.322-0.3c0.092-0.093,0.161-0.181,0.214-0.264
				c0.051-0.083,0.074-0.169,0.074-0.26c0-0.176-0.055-0.313-0.164-0.412c-0.107-0.099-0.247-0.148-0.41-0.148
				c-0.253,0-0.441,0.069-0.572,0.208c-0.13,0.139-0.204,0.307-0.222,0.504l-1.23-0.08c0.059-0.565,0.267-0.996,0.624-1.292
				c0.355-0.296,0.816-0.444,1.376-0.444c0.245,0,0.476,0.034,0.692,0.1c0.216,0.067,0.405,0.167,0.57,0.3
				c0.166,0.134,0.296,0.299,0.394,0.496c0.096,0.197,0.144,0.424,0.144,0.68c0,0.155-0.016,0.295-0.048,0.42
				s-0.087,0.25-0.164,0.372c-0.078,0.123-0.179,0.247-0.304,0.372s-0.284,0.263-0.478,0.412c-0.123,0.096-0.206,0.189-0.248,0.28
				c-0.043,0.091-0.062,0.181-0.062,0.272v0.232h-1.2V294.239L386.793,294.239z M386.657,295.775c0-0.101,0.019-0.197,0.056-0.288
				c0.037-0.09,0.089-0.169,0.156-0.236c0.064-0.067,0.145-0.119,0.236-0.156c0.091-0.037,0.187-0.056,0.286-0.056
				c0.103,0,0.197,0.019,0.288,0.056c0.092,0.038,0.169,0.089,0.236,0.156c0.066,0.067,0.119,0.146,0.156,0.236
				c0.038,0.091,0.056,0.187,0.056,0.288c0,0.102-0.019,0.197-0.056,0.288s-0.089,0.169-0.156,0.236
				c-0.067,0.067-0.146,0.119-0.236,0.156s-0.187,0.056-0.288,0.056c-0.101,0-0.195-0.019-0.286-0.056
				c-0.093-0.038-0.171-0.089-0.236-0.156c-0.067-0.066-0.119-0.145-0.156-0.236S386.657,295.877,386.657,295.775z"/>
		</g>
	</g>
	<g>
		<circle fill="#0B5D90" cx="387.397" cy="305.75" r="4.059"/>
		<g>
			<path fill="#FFFFFF" d="M386.793,306.406c0-0.16,0.021-0.297,0.064-0.408c0.042-0.109,0.113-0.215,0.216-0.312
				c0.147-0.144,0.287-0.271,0.412-0.375c0.125-0.107,0.231-0.207,0.322-0.302c0.092-0.094,0.161-0.182,0.214-0.264
				c0.051-0.082,0.074-0.17,0.074-0.261c0-0.176-0.055-0.312-0.164-0.411c-0.107-0.101-0.247-0.148-0.41-0.148
				c-0.253,0-0.441,0.07-0.572,0.209c-0.13,0.14-0.204,0.308-0.222,0.505l-1.23-0.08c0.059-0.564,0.267-0.996,0.624-1.293
				c0.355-0.295,0.816-0.443,1.376-0.443c0.245,0,0.476,0.033,0.692,0.1c0.216,0.068,0.405,0.168,0.57,0.303
				c0.166,0.133,0.296,0.299,0.394,0.496c0.096,0.195,0.144,0.424,0.144,0.68c0,0.154-0.016,0.295-0.048,0.42
				s-0.087,0.25-0.164,0.371c-0.078,0.123-0.179,0.248-0.304,0.373s-0.284,0.263-0.478,0.412c-0.123,0.097-0.206,0.188-0.248,0.277
				c-0.043,0.094-0.062,0.184-0.062,0.271v0.231h-1.2V306.406L386.793,306.406z M386.657,307.941c0-0.101,0.019-0.195,0.056-0.287
				c0.037-0.09,0.089-0.17,0.156-0.236c0.064-0.064,0.145-0.117,0.236-0.154c0.091-0.037,0.187-0.057,0.286-0.057
				c0.103,0,0.197,0.02,0.288,0.057c0.092,0.037,0.169,0.09,0.236,0.154c0.066,0.066,0.119,0.146,0.156,0.236
				c0.038,0.092,0.056,0.188,0.056,0.287c0,0.104-0.019,0.197-0.056,0.289c-0.037,0.09-0.089,0.17-0.156,0.235
				s-0.146,0.117-0.236,0.156c-0.091,0.037-0.187,0.055-0.288,0.055c-0.101,0-0.195-0.018-0.286-0.055
				c-0.093-0.039-0.171-0.09-0.236-0.156c-0.067-0.065-0.119-0.146-0.156-0.235S386.657,308.044,386.657,307.941z"/>
		</g>
	</g>
	<g>
		<circle fill="#0B5D90" cx="387.397" cy="317.75" r="4.059"/>
		<g>
			<path fill="#FFFFFF" d="M386.793,318.406c0-0.16,0.021-0.297,0.064-0.408c0.042-0.109,0.113-0.215,0.216-0.312
				c0.147-0.144,0.287-0.271,0.412-0.375c0.125-0.107,0.231-0.207,0.322-0.302c0.092-0.094,0.161-0.182,0.214-0.264
				c0.051-0.082,0.074-0.17,0.074-0.261c0-0.176-0.055-0.312-0.164-0.411c-0.107-0.101-0.247-0.148-0.41-0.148
				c-0.253,0-0.441,0.07-0.572,0.209c-0.13,0.14-0.204,0.308-0.222,0.505l-1.23-0.08c0.059-0.564,0.267-0.996,0.624-1.293
				c0.355-0.295,0.816-0.443,1.376-0.443c0.245,0,0.476,0.033,0.692,0.1c0.216,0.068,0.405,0.168,0.57,0.303
				c0.166,0.133,0.296,0.299,0.394,0.496c0.096,0.195,0.144,0.424,0.144,0.68c0,0.154-0.016,0.295-0.048,0.42
				s-0.087,0.25-0.164,0.371c-0.078,0.123-0.179,0.248-0.304,0.373s-0.284,0.263-0.478,0.412c-0.123,0.097-0.206,0.188-0.248,0.277
				c-0.043,0.094-0.062,0.184-0.062,0.271v0.231h-1.2V318.406L386.793,318.406z M386.657,319.941c0-0.101,0.019-0.195,0.056-0.287
				c0.037-0.09,0.089-0.17,0.156-0.236c0.064-0.064,0.145-0.117,0.236-0.154c0.091-0.037,0.187-0.057,0.286-0.057
				c0.103,0,0.197,0.02,0.288,0.057c0.092,0.037,0.169,0.09,0.236,0.154c0.066,0.066,0.119,0.146,0.156,0.236
				c0.038,0.092,0.056,0.188,0.056,0.287c0,0.104-0.019,0.197-0.056,0.289c-0.037,0.09-0.089,0.17-0.156,0.235
				s-0.146,0.117-0.236,0.156c-0.091,0.037-0.187,0.055-0.288,0.055c-0.101,0-0.195-0.018-0.286-0.055
				c-0.093-0.039-0.171-0.09-0.236-0.156c-0.067-0.065-0.119-0.146-0.156-0.235S386.657,320.044,386.657,319.941z"/>
		</g>
	</g>
	<g>
		<circle fill="#0B5D90" cx="387.397" cy="330.084" r="4.059"/>
		<g>
			<path fill="#FFFFFF" d="M386.793,330.74c0-0.16,0.021-0.297,0.064-0.408c0.042-0.109,0.113-0.215,0.216-0.312
				c0.147-0.144,0.287-0.271,0.412-0.375c0.125-0.107,0.231-0.207,0.322-0.302c0.092-0.094,0.161-0.182,0.214-0.264
				c0.051-0.082,0.074-0.17,0.074-0.261c0-0.176-0.055-0.312-0.164-0.411c-0.107-0.101-0.247-0.148-0.41-0.148
				c-0.253,0-0.441,0.07-0.572,0.209c-0.13,0.14-0.204,0.308-0.222,0.505l-1.23-0.08c0.059-0.564,0.267-0.996,0.624-1.293
				c0.355-0.295,0.816-0.443,1.376-0.443c0.245,0,0.476,0.033,0.692,0.1c0.216,0.068,0.405,0.168,0.57,0.303
				c0.166,0.133,0.296,0.299,0.394,0.496c0.096,0.195,0.144,0.424,0.144,0.68c0,0.154-0.016,0.295-0.048,0.42
				s-0.087,0.25-0.164,0.371c-0.078,0.123-0.179,0.248-0.304,0.373s-0.284,0.263-0.478,0.412c-0.123,0.097-0.206,0.188-0.248,0.277
				c-0.043,0.094-0.062,0.184-0.062,0.271v0.231h-1.2V330.74L386.793,330.74z M386.657,332.275c0-0.101,0.019-0.195,0.056-0.287
				c0.037-0.09,0.089-0.17,0.156-0.236c0.064-0.064,0.145-0.117,0.236-0.154c0.091-0.037,0.187-0.057,0.286-0.057
				c0.103,0,0.197,0.02,0.288,0.057c0.092,0.037,0.169,0.09,0.236,0.154c0.066,0.066,0.119,0.146,0.156,0.236
				c0.038,0.092,0.056,0.188,0.056,0.287c0,0.104-0.019,0.197-0.056,0.289c-0.037,0.09-0.089,0.17-0.156,0.235
				c-0.067,0.066-0.146,0.117-0.236,0.156c-0.091,0.037-0.187,0.055-0.288,0.055c-0.101,0-0.195-0.018-0.286-0.055
				c-0.093-0.039-0.171-0.09-0.236-0.156c-0.067-0.065-0.119-0.146-0.156-0.235S386.657,332.378,386.657,332.275z"/>
		</g>
	</g>
</g>
<rect x="35.718" y="38.393" opacity="0.4" fill="#0B5D90" enable-background="new    " width="771.565" height="434.829"/>
<rect x="394.904" y="358.232" fill="none" width="219.23" height="79.698"/>
<text transform="matrix(1 0 0 1 394.9038 365.793)" fill="#0B5D90" font-family="'Avenir-Light'" font-size="10">Doktorvater / Doktormutter: </text>
<text transform="matrix(1 0 0 1 522.1958 365.793)" fill="#0B5D90" font-family="'Avenir-Black'" font-size="10">+</text>
<text transform="matrix(1 0 0 1 394.9038 377.793)" fill="#0B5D90" font-family="'Avenir-Light'" font-size="10">Erstgutachter_in: </text>
<text transform="matrix(1 0 0 1 472.6938 377.793)" fill="#0B5D90" font-family="'Avenir-Black'" font-size="10">+</text>
<text transform="matrix(1 0 0 1 394.9038 389.793)" fill="#0B5D90" font-family="'Avenir-Light'" font-size="10">Gutachter_in: </text>
<text transform="matrix(1 0 0 1 457.5132 389.793)" fill="#0B5D90" font-family="'Avenir-Black'" font-size="10">+</text>
<text transform="matrix(1 0 0 1 394.9038 401.793)" fill="#0B5D90" font-family="'Avenir-Light'" font-size="10">Betreuer_in: </text>
<text transform="matrix(1 0 0 1 451.5933 401.793)" fill="#0B5D90" font-family="'Avenir-Black'" font-size="10">+</text>
<text transform="matrix(1 0 0 1 394.9038 413.793)" fill="#0B5D90" font-family="'Avenir-Light'" font-size="10">Autor_in: Lea Musterfrau </text>
<text transform="matrix(1 0 0 1 506.9937 413.793)" fill="#0B5D90" font-family="'Avenir-Black'" font-size="10">x</text>
<text transform="matrix(1 0 0 1 512.5542 413.793)" fill="#0B5D90" font-family="'Avenir-Light'" font-size="10"> </text>
<text transform="matrix(1 0 0 1 515.1538 413.793)" fill="#0B5D90" font-family="'Avenir-Black'" font-size="10">+ </text>
<text transform="matrix(1 0 0 1 394.9038 425.793)" fill="#0B5D90" font-family="'Avenir-Light'" font-size="10">Herausgeber_in: </text>
<text transform="matrix(1 0 0 1 470.854 425.793)" fill="#0B5D90" font-family="'Avenir-Black'" font-size="10">+</text>
<text transform="matrix(1 0 0 1 394.9038 437.793)" fill="#0B5D90" font-family="'Avenir-Light'" font-size="10">Andere: </text>
<text transform="matrix(1 0 0 1 433.0737 437.793)" fill="#0B5D90" font-family="'Avenir-Black'" font-size="10">+</text>
<path fill="#0B5D90" d="M387.397,358.232c-2.241,0-4.059,1.817-4.059,4.059s1.817,4.059,4.059,4.059s4.058-1.817,4.058-4.059
	S389.639,358.232,387.397,358.232z M388.072,364.771c-0.037,0.09-0.089,0.168-0.156,0.233c-0.067,0.067-0.146,0.119-0.236,0.156
	s-0.187,0.057-0.288,0.057c-0.101,0-0.195-0.02-0.286-0.057c-0.093-0.037-0.171-0.088-0.236-0.156
	c-0.067-0.065-0.119-0.146-0.156-0.233c-0.037-0.092-0.056-0.188-0.056-0.289c0-0.103,0.019-0.197,0.056-0.287
	c0.037-0.092,0.089-0.17,0.156-0.236c0.064-0.064,0.145-0.119,0.236-0.154c0.091-0.037,0.187-0.057,0.286-0.057
	c0.103,0,0.197,0.02,0.288,0.057c0.092,0.035,0.169,0.09,0.236,0.154c0.066,0.066,0.119,0.146,0.156,0.236
	c0.038,0.09,0.056,0.188,0.056,0.287C388.128,364.584,388.109,364.68,388.072,364.771z M389.249,361.361
	c-0.032,0.125-0.087,0.25-0.164,0.371c-0.078,0.123-0.179,0.248-0.304,0.373s-0.284,0.263-0.478,0.412
	c-0.123,0.096-0.206,0.188-0.248,0.279c-0.043,0.09-0.062,0.182-0.062,0.271v0.23h-1.2v-0.352c0-0.16,0.021-0.297,0.064-0.408
	c0.042-0.111,0.113-0.217,0.216-0.312c0.147-0.144,0.287-0.271,0.412-0.375c0.125-0.105,0.231-0.207,0.322-0.302
	c0.092-0.094,0.161-0.182,0.214-0.264c0.051-0.082,0.074-0.17,0.074-0.261c0-0.176-0.055-0.312-0.164-0.412
	c-0.107-0.1-0.247-0.147-0.41-0.147c-0.253,0-0.441,0.07-0.572,0.209c-0.13,0.14-0.204,0.308-0.222,0.505l-1.23-0.08
	c0.059-0.564,0.267-0.996,0.624-1.293c0.355-0.296,0.816-0.443,1.376-0.443c0.245,0,0.476,0.033,0.692,0.102
	c0.216,0.066,0.405,0.166,0.57,0.301c0.166,0.133,0.296,0.299,0.394,0.494c0.096,0.197,0.144,0.426,0.144,0.682
	C389.297,361.096,389.281,361.236,389.249,361.361z"/>
<path fill="#0B5D90" d="M387.397,369.898c-2.241,0-4.059,1.817-4.059,4.059s1.817,4.059,4.059,4.059s4.058-1.817,4.058-4.059
	S389.639,369.898,387.397,369.898z M388.072,376.438c-0.037,0.09-0.089,0.17-0.156,0.235s-0.146,0.117-0.236,0.156
	c-0.091,0.037-0.187,0.055-0.288,0.055c-0.101,0-0.195-0.018-0.286-0.055c-0.093-0.039-0.171-0.091-0.236-0.156
	c-0.067-0.065-0.119-0.146-0.156-0.235s-0.056-0.187-0.056-0.289c0-0.101,0.019-0.195,0.056-0.287
	c0.037-0.09,0.089-0.17,0.156-0.236c0.064-0.064,0.145-0.117,0.236-0.156c0.091-0.035,0.187-0.055,0.286-0.055
	c0.103,0,0.197,0.02,0.288,0.055c0.092,0.039,0.169,0.092,0.236,0.156c0.066,0.066,0.119,0.146,0.156,0.236
	c0.038,0.092,0.056,0.188,0.056,0.287C388.128,376.252,388.109,376.346,388.072,376.438z M389.249,373.027
	c-0.032,0.125-0.087,0.25-0.164,0.371c-0.078,0.123-0.179,0.248-0.304,0.373s-0.284,0.263-0.478,0.412
	c-0.123,0.096-0.206,0.188-0.248,0.277c-0.043,0.094-0.062,0.184-0.062,0.271v0.231h-1.2v-0.351c0-0.16,0.021-0.297,0.064-0.408
	c0.042-0.109,0.113-0.215,0.216-0.312c0.147-0.144,0.287-0.271,0.412-0.375c0.125-0.107,0.231-0.207,0.322-0.302
	c0.092-0.094,0.161-0.182,0.214-0.264c0.051-0.082,0.074-0.17,0.074-0.261c0-0.176-0.055-0.312-0.164-0.412
	c-0.107-0.1-0.247-0.147-0.41-0.147c-0.253,0-0.441,0.07-0.572,0.209c-0.13,0.14-0.204,0.308-0.222,0.505l-1.23-0.08
	c0.059-0.564,0.267-0.996,0.624-1.293c0.355-0.295,0.816-0.443,1.376-0.443c0.245,0,0.476,0.033,0.692,0.1
	c0.216,0.067,0.405,0.168,0.57,0.303c0.166,0.133,0.296,0.299,0.394,0.494c0.096,0.197,0.144,0.426,0.144,0.682
	C389.297,372.76,389.281,372.902,389.249,373.027z"/>
<path fill="#0B5D90" d="M387.397,382.581c-2.241,0-4.059,1.817-4.059,4.058c0,2.242,1.817,4.059,4.059,4.059
	s4.058-1.816,4.058-4.059C391.455,384.398,389.639,382.581,387.397,382.581z M388.072,389.119c-0.037,0.092-0.089,0.17-0.156,0.236
	c-0.067,0.065-0.146,0.117-0.236,0.155c-0.091,0.037-0.187,0.056-0.288,0.056c-0.101,0-0.195-0.019-0.286-0.056
	c-0.093-0.038-0.171-0.09-0.236-0.155c-0.067-0.066-0.119-0.146-0.156-0.236s-0.056-0.186-0.056-0.287s0.019-0.197,0.056-0.289
	c0.037-0.09,0.089-0.168,0.156-0.234c0.064-0.065,0.145-0.119,0.236-0.156c0.091-0.036,0.187-0.055,0.286-0.055
	c0.103,0,0.197,0.019,0.288,0.055c0.092,0.037,0.169,0.091,0.236,0.156c0.066,0.066,0.119,0.146,0.156,0.234
	c0.038,0.092,0.056,0.188,0.056,0.289S388.109,389.027,388.072,389.119z M389.249,385.709c-0.032,0.125-0.087,0.25-0.164,0.371
	c-0.078,0.123-0.179,0.248-0.304,0.373s-0.284,0.262-0.478,0.412c-0.123,0.096-0.206,0.188-0.248,0.277
	c-0.043,0.092-0.062,0.184-0.062,0.272v0.229h-1.2v-0.351c0-0.16,0.021-0.295,0.064-0.407c0.042-0.111,0.113-0.216,0.216-0.312
	c0.147-0.146,0.287-0.271,0.412-0.378c0.125-0.106,0.231-0.206,0.322-0.301c0.092-0.092,0.161-0.182,0.214-0.264
	c0.051-0.082,0.074-0.17,0.074-0.26c0-0.176-0.055-0.312-0.164-0.412c-0.107-0.1-0.247-0.148-0.41-0.148
	c-0.253,0-0.441,0.07-0.572,0.209c-0.13,0.14-0.204,0.308-0.222,0.504l-1.23-0.08c0.059-0.563,0.267-0.995,0.624-1.291
	c0.355-0.297,0.816-0.444,1.376-0.444c0.245,0,0.476,0.033,0.692,0.101c0.216,0.067,0.405,0.168,0.57,0.301
	c0.166,0.135,0.296,0.301,0.394,0.496c0.096,0.197,0.144,0.426,0.144,0.682C389.297,385.441,389.281,385.584,389.249,385.709z"/>
<path fill="#0B5D90" d="M387.397,394.023c-2.241,0-4.059,1.817-4.059,4.059s1.817,4.059,4.059,4.059s4.058-1.817,4.058-4.059
	S389.639,394.023,387.397,394.023z M388.072,400.562c-0.037,0.09-0.089,0.17-0.156,0.235s-0.146,0.117-0.236,0.156
	c-0.091,0.037-0.187,0.055-0.288,0.055c-0.101,0-0.195-0.018-0.286-0.055c-0.093-0.039-0.171-0.091-0.236-0.156
	c-0.067-0.065-0.119-0.146-0.156-0.235s-0.056-0.187-0.056-0.289c0-0.101,0.019-0.195,0.056-0.287
	c0.037-0.09,0.089-0.17,0.156-0.236c0.064-0.064,0.145-0.117,0.236-0.156c0.091-0.035,0.187-0.055,0.286-0.055
	c0.103,0,0.197,0.02,0.288,0.055c0.092,0.039,0.169,0.092,0.236,0.156c0.066,0.066,0.119,0.146,0.156,0.236
	c0.038,0.092,0.056,0.188,0.056,0.287C388.128,400.377,388.109,400.471,388.072,400.562z M389.249,397.152
	c-0.032,0.125-0.087,0.25-0.164,0.371c-0.078,0.123-0.179,0.248-0.304,0.373s-0.284,0.263-0.478,0.412
	c-0.123,0.096-0.206,0.188-0.248,0.277c-0.043,0.094-0.062,0.184-0.062,0.271v0.231h-1.2v-0.351c0-0.16,0.021-0.297,0.064-0.408
	c0.042-0.109,0.113-0.215,0.216-0.312c0.147-0.144,0.287-0.271,0.412-0.375c0.125-0.107,0.231-0.207,0.322-0.302
	c0.092-0.094,0.161-0.182,0.214-0.264c0.051-0.082,0.074-0.17,0.074-0.261c0-0.176-0.055-0.312-0.164-0.412
	c-0.107-0.1-0.247-0.147-0.41-0.147c-0.253,0-0.441,0.07-0.572,0.209c-0.13,0.14-0.204,0.308-0.222,0.505l-1.23-0.08
	c0.059-0.564,0.267-0.996,0.624-1.293c0.355-0.295,0.816-0.443,1.376-0.443c0.245,0,0.476,0.033,0.692,0.1
	c0.216,0.067,0.405,0.168,0.57,0.303c0.166,0.133,0.296,0.299,0.394,0.494c0.096,0.197,0.144,0.426,0.144,0.682
	C389.297,396.885,389.281,397.027,389.249,397.152z"/>
<path fill="#0B5D90" d="M387.397,406.191c-2.241,0-4.059,1.816-4.059,4.058s1.817,4.058,4.059,4.058s4.058-1.816,4.058-4.058
	S389.639,406.191,387.397,406.191z M388.072,412.729c-0.037,0.092-0.089,0.17-0.156,0.235s-0.146,0.119-0.236,0.156
	s-0.187,0.055-0.288,0.055c-0.101,0-0.195-0.018-0.286-0.055c-0.093-0.037-0.171-0.091-0.236-0.156
	c-0.067-0.065-0.119-0.146-0.156-0.235c-0.037-0.088-0.056-0.187-0.056-0.287c0-0.103,0.019-0.197,0.056-0.289
	c0.037-0.09,0.089-0.168,0.156-0.234c0.064-0.066,0.145-0.119,0.236-0.156c0.091-0.037,0.187-0.055,0.286-0.055
	c0.103,0,0.197,0.018,0.288,0.055c0.092,0.037,0.169,0.09,0.236,0.156c0.066,0.066,0.119,0.146,0.156,0.234
	c0.038,0.092,0.056,0.188,0.056,0.289C388.128,412.543,388.109,412.639,388.072,412.729z M389.249,409.32
	c-0.032,0.125-0.087,0.25-0.164,0.371c-0.078,0.123-0.179,0.248-0.304,0.373s-0.284,0.264-0.478,0.412
	c-0.123,0.096-0.206,0.188-0.248,0.278c-0.043,0.093-0.062,0.183-0.062,0.271v0.23h-1.2v-0.352c0-0.158,0.021-0.295,0.064-0.406
	c0.042-0.111,0.113-0.217,0.216-0.312c0.147-0.145,0.287-0.27,0.412-0.375c0.125-0.106,0.231-0.207,0.322-0.303
	c0.092-0.092,0.161-0.18,0.214-0.264c0.051-0.082,0.074-0.168,0.074-0.26c0-0.176-0.055-0.312-0.164-0.412
	c-0.107-0.1-0.247-0.148-0.41-0.148c-0.253,0-0.441,0.07-0.572,0.209c-0.13,0.141-0.204,0.309-0.222,0.506l-1.23-0.08
	c0.059-0.565,0.267-0.996,0.624-1.293c0.355-0.295,0.816-0.443,1.376-0.443c0.245,0,0.476,0.033,0.692,0.101
	c0.216,0.066,0.405,0.168,0.57,0.302c0.166,0.133,0.296,0.299,0.394,0.496c0.096,0.196,0.144,0.424,0.144,0.68
	C389.297,409.055,389.281,409.195,389.249,409.32z"/>
<path fill="#0B5D90" d="M387.397,418.191c-2.241,0-4.059,1.816-4.059,4.058s1.817,4.058,4.059,4.058s4.058-1.816,4.058-4.058
	S389.639,418.191,387.397,418.191z M388.072,424.728c-0.037,0.093-0.089,0.173-0.156,0.236c-0.067,0.066-0.146,0.119-0.236,0.156
	s-0.187,0.055-0.288,0.055c-0.101,0-0.195-0.018-0.286-0.055c-0.093-0.037-0.171-0.09-0.236-0.156
	c-0.067-0.063-0.119-0.145-0.156-0.236c-0.037-0.09-0.056-0.186-0.056-0.286c0-0.103,0.019-0.197,0.056-0.287
	s0.089-0.17,0.156-0.236c0.064-0.066,0.145-0.119,0.236-0.156c0.091-0.037,0.187-0.055,0.286-0.055c0.103,0,0.197,0.018,0.288,0.055
	c0.092,0.037,0.169,0.09,0.236,0.156c0.066,0.066,0.119,0.146,0.156,0.236c0.038,0.09,0.056,0.188,0.056,0.287
	C388.128,424.543,388.109,424.638,388.072,424.728z M389.249,421.32c-0.032,0.125-0.087,0.25-0.164,0.373
	c-0.078,0.121-0.179,0.246-0.304,0.371s-0.284,0.264-0.478,0.411c-0.123,0.097-0.206,0.189-0.248,0.279
	c-0.043,0.092-0.062,0.183-0.062,0.271v0.229h-1.2v-0.35c0-0.16,0.021-0.297,0.064-0.408c0.042-0.111,0.113-0.217,0.216-0.312
	c0.147-0.145,0.287-0.27,0.412-0.377c0.125-0.104,0.231-0.207,0.322-0.301c0.092-0.092,0.161-0.18,0.214-0.264
	c0.051-0.082,0.074-0.168,0.074-0.26c0-0.176-0.055-0.312-0.164-0.412c-0.107-0.1-0.247-0.148-0.41-0.148
	c-0.253,0-0.441,0.07-0.572,0.209c-0.13,0.141-0.204,0.309-0.222,0.506l-1.23-0.08c0.059-0.565,0.267-0.996,0.624-1.293
	c0.355-0.295,0.816-0.443,1.376-0.443c0.245,0,0.476,0.033,0.692,0.101c0.216,0.066,0.405,0.168,0.57,0.302
	c0.166,0.133,0.296,0.299,0.394,0.496c0.096,0.196,0.144,0.424,0.144,0.68C389.297,421.055,389.281,421.195,389.249,421.32z"/>
<path fill="#0B5D90" d="M387.397,430.525c-2.241,0-4.059,1.816-4.059,4.058s1.817,4.058,4.059,4.058s4.058-1.816,4.058-4.058
	S389.639,430.525,387.397,430.525z M388.072,437.062c-0.037,0.093-0.089,0.173-0.156,0.236c-0.067,0.066-0.146,0.119-0.236,0.156
	s-0.187,0.055-0.288,0.055c-0.101,0-0.195-0.018-0.286-0.055c-0.093-0.037-0.171-0.09-0.236-0.156
	c-0.067-0.063-0.119-0.145-0.156-0.236c-0.037-0.09-0.056-0.186-0.056-0.286c0-0.103,0.019-0.197,0.056-0.287
	s0.089-0.17,0.156-0.236c0.064-0.066,0.145-0.119,0.236-0.156c0.091-0.037,0.187-0.055,0.286-0.055c0.103,0,0.197,0.018,0.288,0.055
	c0.092,0.037,0.169,0.09,0.236,0.156c0.066,0.066,0.119,0.146,0.156,0.236c0.038,0.09,0.056,0.188,0.056,0.287
	C388.128,436.877,388.109,436.972,388.072,437.062z M389.249,433.654c-0.032,0.125-0.087,0.25-0.164,0.373
	c-0.078,0.121-0.179,0.246-0.304,0.371s-0.284,0.264-0.478,0.411c-0.123,0.097-0.206,0.189-0.248,0.279
	c-0.043,0.092-0.062,0.183-0.062,0.271v0.229h-1.2v-0.35c0-0.16,0.021-0.297,0.064-0.408c0.042-0.111,0.113-0.217,0.216-0.312
	c0.147-0.145,0.287-0.27,0.412-0.377c0.125-0.104,0.231-0.207,0.322-0.301c0.092-0.092,0.161-0.18,0.214-0.264
	c0.051-0.082,0.074-0.168,0.074-0.26c0-0.177-0.055-0.312-0.164-0.412c-0.107-0.101-0.247-0.148-0.41-0.148
	c-0.253,0-0.441,0.07-0.572,0.209c-0.13,0.142-0.204,0.31-0.222,0.504l-1.23-0.08c0.059-0.563,0.267-0.996,0.624-1.291
	c0.355-0.297,0.816-0.442,1.376-0.442c0.245,0,0.476,0.033,0.692,0.1c0.216,0.066,0.405,0.168,0.57,0.301
	c0.166,0.134,0.296,0.3,0.394,0.496c0.096,0.197,0.144,0.425,0.144,0.681C389.297,433.388,389.281,433.529,389.249,433.654z"/>
<text transform="matrix(1 0 0 1 265.7896 184.8145)" fill="#3780C3" font-family="'Avenir-Medium'" font-size="12">Betreuung / Begutachtung</text>
<rect x="245.281" y="132.603" fill="#F1F1F0" width="351.333" height="78.549"/>
<rect x="344.048" y="163.386" fill="none" stroke="#0B5D90" stroke-miterlimit="10" width="242.801" height="15.739"/>
<g>
	<rect x="465.24" y="194.269" fill="none" width="54.17" height="12.18"/>
	<text transform="matrix(1 0 0 1 465.2397 200.3164)" fill="#0B5D90" font-family="'Avenir-Light'" font-size="8">ABBRECHEN</text>
	<rect x="459.519" y="189.71" fill="none" stroke="#0B5D90" stroke-miterlimit="10" width="59.123" height="15.739"/>
</g>
<g>
	<rect x="524.677" y="189.71" fill="#0B5D90" width="61.926" height="15.739"/>
	<rect x="530.396" y="194.269" fill="none" width="51.998" height="7.687"/>
	<text transform="matrix(1 0 0 1 530.396 200.3164)" fill="#FFFFFF" font-family="'Avenir-Light'" font-size="8">HINZUFÜGEN</text>
</g>
<rect x="367.483" y="167.479" fill="#0B5D90" width="50.132" height="8.836"/>
<rect x="250.981" y="138.028" fill="none" width="250.058" height="42.361"/>
<text transform="matrix(1 0 0 1 250.9814 147.0996)" fill="#0B5D90" font-family="'Avenir-Medium'" font-size="12">Doktorvater / Doktormutter hinzufügen</text>
<text transform="matrix(1 0 0 1 250.9814 165.0996)" fill="#0B5D90" font-family="'Avenir-Medium'" font-size="10">Person</text>
<text transform="matrix(1 0 0 1 250.9814 174.0996)" fill="#0B5D90" font-family="'Avenir-Light'" font-size="8">Autorenname oder Titel     Danie</text>
<text transform="matrix(1 0 0 1 367.5034 174.0996)" fill="#FFFFFF" font-family="'Avenir-Light'" font-size="8">l Mustermann</text>
<circle fill="none" stroke="#F1F1F0" stroke-miterlimit="10" cx="525.63" cy="258.319" r="8.143"/>
<polyline fill="none" stroke="#F1F1F0" stroke-miterlimit="10" stroke-dasharray="6,4,6,4,6,4" points="594,170.256 640.75,170.256 
	640.75,257.792 533.773,257.792 "/>
</svg>
