<?xml version="1.0" encoding="utf-8"?>
<!-- Generator: Adobe Illustrator 16.0.0, SVG Export Plug-In . SVG Version: 6.00 Build 0)  -->
<!DOCTYPE svg PUBLIC "-//W3C//DTD SVG 1.1//EN" "http://www.w3.org/Graphics/SVG/1.1/DTD/svg11.dtd">
<svg version="1.1" id="Ebene_1" xmlns="http://www.w3.org/2000/svg" xmlns:xlink="http://www.w3.org/1999/xlink" x="0px" y="0px"
	 width="841.89px" height="595.28px" viewBox="0 0 841.89 595.28" enable-background="new 0 0 841.89 595.28" xml:space="preserve">
<g>
	<circle fill-rule="evenodd" clip-rule="evenodd" fill="#F1F1F0" cx="280.953" cy="207.529" r="27.759"/>
	<circle fill-rule="evenodd" clip-rule="evenodd" fill="#F1F1F0" cx="374.147" cy="207.529" r="27.759"/>
	<circle fill-rule="evenodd" clip-rule="evenodd" fill="#F1F1F0" cx="470.456" cy="207.529" r="27.759"/>
	<circle fill-rule="evenodd" clip-rule="evenodd" fill="#F1F1F0" cx="560.938" cy="207.529" r="27.76"/>
</g>
<g>
	<circle fill-rule="evenodd" clip-rule="evenodd" fill="#F1F1F0" cx="324.869" cy="141.961" r="27.759"/>
	<circle fill-rule="evenodd" clip-rule="evenodd" fill="#F1F1F0" cx="421.178" cy="141.961" r="27.759"/>
	<circle fill-rule="evenodd" clip-rule="evenodd" fill="#F1F1F0" cx="511.659" cy="141.961" r="27.76"/>
</g>
<g>
	<circle fill-rule="evenodd" clip-rule="evenodd" fill="#F1F1F0" cx="164.607" cy="330.011" r="27.759"/>
	<circle fill-rule="evenodd" clip-rule="evenodd" fill="#F1F1F0" cx="164.607" cy="420.492" r="27.76"/>
</g>
<g>
	<circle fill-rule="evenodd" clip-rule="evenodd" fill="#F1F1F0" cx="673.141" cy="330.011" r="27.759"/>
	<circle fill-rule="evenodd" clip-rule="evenodd" fill="#F1F1F0" cx="673.141" cy="420.492" r="27.76"/>
</g>
<circle fill-rule="evenodd" clip-rule="evenodd" fill="#F1F1F0" cx="736.934" cy="375.072" r="27.76"/>
<path fill="#C6C6C6" d="M624.812,446.846l-77.324-18.559l79.644,30.929l88.922-30.929l66.575,17.421
	c-0.938,11.148-3.154,22.914-6.17,34.727l-44.168-6.997l-46.836,23.007l46.836-9.734l37.652,15.933
	c-10.959,33.361-25.906,64.058-33.312,78.44l-50.969,14.197H841.89l-0.281-4.072l-10.203-0.627l-25.568-19.096
	c7.435-32.187,11.793-58.862,13.606-81.636l22.223-0.769v-23.573l-21.233-1.411c-0.233-31.396-6.256-54.716-15.952-76.324
	l37.409-4.342v-21.829l-40.12,0.651l26.379-21.375l13.741-2.331v-13.533l-17.002,0.331l-6.565-28.889c0,0-2.211,21.004-3.374,32.387
	l-31.893,19.755c-8.532-13.942-18.028-28.771-27.945-46.126l10.526-30.29l76.253,10.167v-12.7l-69.404-17.173l5.812-16.725
	l63.592-10.727v-39.198l-18.256,26.828l-59.239,9.952l-26.711,45.292c-14.848-36.477-16.064-69.034-12.465-94.55l49.603-19.561
	l39.434-37.605l-40.207,24.46l-44.764,12.59c6.186-23.312,15.123-37.05,15.123-37.05c-27.015,30.949-36.519,64.165-36.04,97.132
	l-24.224-12.221l-33.198-37.252l-1.77-24.88l-5.808,32.224l21.742,26.542l-57.309,15.599l-51.034-22.424l50.259,35.957
	l54.899-16.625l48.928,30.055c1.137,6.892,2.625,13.741,4.397,20.525l-53.325-9.597l-31.332,22.978l36.03-12.541l55.356,21.141
	c6.395,18.347,14.365,35.99,22.404,52.426L696.72,312.3l-27.941,6.806l-74.121-42.062l-81.962,8.195h81.189l50.58,39.79
	l-52.517,12.791l-96.655-13.921l95.11,26.292l102.84-20.878l19.276,11.566l-45.177,39.469l-61.859,8.505l64.178,3.095l62.313-39.395
	l30.399,18.24c7.46,14.699,13.756,27.704,17.236,38.462c0.84,2.595,1.507,5.31,2.034,8.117l-69.457-6.634L624.812,446.846z"/>
<circle fill-rule="evenodd" clip-rule="evenodd" fill="#F1F1F0" cx="89.013" cy="375.072" r="27.76"/>
<path fill="#3780C3" d="M248.824,0c32.768,65.331,100.349,110.179,178.415,110.179S572.887,65.331,605.655,0H248.824z"/>
<g>
	<path fill-rule="evenodd" clip-rule="evenodd" fill="#FFFFFF" d="M401.246,86.869c0.961-3.396,2.26-6.74,2.775-10.203
		c0.416-2.8-0.471-5.694-2.146-8.077c-1.578-2.248-3.326-4.413-5.227-6.396c-3.535-3.691-6.189-7.866-6.914-12.944
		c-1.007-7.069,0.228-13.669,4.908-19.387c4.113-5.025,9.068-8.757,15.389-10.504c1.039-0.287,2.123-0.478,3.199-0.546
		c2.488-0.157,4.994-0.415,7.471-0.268c4.848,0.288,9.577,1.252,13.838,3.739c2.629,1.535,4.584,3.779,6.119,6.404
		c1.934,3.308,3.189,6.843,2.836,10.693c-0.279,3.052,1.395,5.002,3.17,7.02c1.133,1.287,2.248,2.592,3.326,3.923
		c0.867,1.07,0.678,2.306-0.412,3.142c-0.301,0.23-0.594,0.47-0.906,0.684c-0.943,0.65-1.209,1.453-0.787,2.567
		c0.824,2.18,0.791,2.192-0.564,3.639c1.574,1.743,1.451,1.717,0.227,4.235c-0.424,0.873-0.375,2.251-0.004,3.187
		c1.299,3.284-0.914,6.077-4.211,6.065c-3.057-0.011-5.908,0.685-8.352,2.654c-1.764,1.425-2.463,3.441-2.99,5.51
		c-0.406,1.594-0.611,3.24-0.906,4.863c9.754,0,19.506,0,29.26,0c0-25.59,0-51.18,0-76.77c-26.266,0-52.532,0-78.798,0
		c0,25.59,0,51.18,0,76.77C388.112,86.869,394.679,86.869,401.246,86.869z"/>
	<g>
		<path fill="#FFFFFF" d="M412.968,54.083c0.199-2.636,0.639-4.604,1.318-5.904c0.678-1.248,1.441-2.173,2.287-2.771
			c0.861-0.599,1.615-1.146,2.262-1.643c0.629-0.479,0.945-1.198,0.945-2.156c-0.033-0.955-0.51-1.571-1.432-1.849
			c-0.924-0.226-2.08-0.339-3.471-0.339c-1.197,0-2.443,0.18-3.738,0.539c-1.295,0.377-2.387,0.779-3.275,1.207v-8.932
			c3.596-1.3,7.293-1.949,11.09-1.949c1.324,0,2.768,0.085,4.327,0.257c1.574,0.256,3.09,0.692,4.551,1.309
			c1.457,0.633,2.66,1.531,3.604,2.694c0.945,1.198,1.443,2.721,1.492,4.569c0,0.975-0.141,1.873-0.422,2.694
			c-0.266,0.805-0.637,1.515-1.115,2.131c-0.447,0.633-0.953,1.215-1.514,1.745c-0.613,0.564-1.242,1.112-1.887,1.643
			c-1.258,0.906-2.342,1.865-3.252,2.874c-0.912,1.027-1.334,2.311-1.266,3.851L412.968,54.083z M423.611,57.856v9.752h-11.09
			v-9.752H423.611z"/>
	</g>
</g>
<line fill="none" stroke="#3780C3" stroke-width="2" stroke-miterlimit="10" stroke-dasharray="6,4,6,4,6,4" x1="239.98" y1="187.175" x2="239.98" y2="473.438"/>
<line fill="none" stroke="#3780C3" stroke-width="2" stroke-miterlimit="10" stroke-dasharray="6,4,6,4,6,4" x1="330.463" y1="187.175" x2="330.463" y2="473.438"/>
<line fill="none" stroke="#3780C3" stroke-width="2" stroke-miterlimit="10" stroke-dasharray="6,4,6,4,6,4" x1="420.945" y1="91" x2="420.945" y2="473.438"/>
<line fill="none" stroke="#3780C3" stroke-width="2" stroke-miterlimit="10" stroke-dasharray="6,4,6,4,6,4" x1="511.428" y1="187.175" x2="511.428" y2="473.438"/>
<line fill="none" stroke="#3780C3" stroke-width="2" stroke-miterlimit="10" stroke-dasharray="6,4,6,4,6,4" x1="601.91" y1="187.175" x2="601.91" y2="473.438"/>
<line fill="none" stroke="#3780C3" stroke-width="2" stroke-miterlimit="10" stroke-dasharray="6,4,6,4,6,4" x1="592.918" y1="469.992" x2="230.988" y2="469.992"/>
<line fill="none" stroke="#3780C3" stroke-width="2" stroke-miterlimit="10" stroke-dasharray="6,4,6,4,6,4" x1="592.918" y1="375.819" x2="230.988" y2="375.819"/>
<line fill="none" stroke="#3780C3" stroke-width="2" stroke-miterlimit="10" stroke-dasharray="6,4,6,4,6,4" x1="592.918" y1="283.693" x2="230.988" y2="283.693"/>
<line fill="none" stroke="#3780C3" stroke-width="2" stroke-miterlimit="10" stroke-dasharray="6,4,6,4,6,4" x1="602.975" y1="187.175" x2="239.003" y2="187.175"/>
<g>
	<path fill-rule="evenodd" clip-rule="evenodd" fill="#C6C6C6" d="M106.962,332.188c-5.111-1.109-7.513-4.796-8.718-9.46
		c-1.487-5.759-2.826-11.556-4.285-17.322c-0.342-1.353-0.892-2.653-1.378-3.966c-0.185-0.498-0.61-0.945-0.668-1.446
		c-0.601-5.177-1.342-10.351-1.617-15.547c-0.108-2.052,1.234-3.803,3.423-4.677c0.635-0.254,1.268-1.139,1.431-1.843
		c0.762-3.276,1.577-6.566,1.943-9.898c0.278-2.536,0.044-5.157-0.2-7.717c-0.378-3.951-0.076-7.673,1.247-11.535
		c1.118-3.265,0.993-6.957,1.412-10.46c0.01-0.08-0.025-0.184-0.075-0.25c-4.093-5.317,0.91-10.394,0.52-15.637
		c-0.044-0.587,1.522-1.58,2.501-1.91c5.732-1.935,11.534-3.664,17.256-5.625c1.16-0.398,2.191-1.386,3.08-2.299
		c0.986-1.014,1.694-2.291,2.604-3.387c2.358-2.843,4.297-6.396,9.72-5.049c-0.906-2.116-1.451-3.546-2.125-4.913
		c-0.51-1.033-1.268-1.943-1.772-2.977c-1.552-3.183-1.558-7.022-4.478-9.684c-0.791-0.721-0.649-2.506-0.855-3.815
		c-0.344-2.181-0.76-4.365-0.889-6.562c-0.107-1.821-0.377-3.932,0.378-5.435c1.234-2.457,1.403-4.882,1.388-7.471
		c-0.01-1.778,0.035-3.576,0.289-5.331c0.854-5.917,7.826-9.446,13.085-6.636c0.5-0.468,0.972-1.007,1.535-1.42
		c1.962-1.439,4.343-0.904,4.944,1.375c0.401,1.52,1.163,1.942,2.475,2.191c2.914,0.554,4.695,2.263,5.375,5.228
		c0.194,0.845,0.959,1.603,1.579,2.296c4.33,4.853,7.619,10.188,6.796,17.002c-0.411,3.408-0.601,7.351-2.439,9.961
		c-2.936,4.169-3.203,9.386-6.329,13.338c-0.946,1.196-0.316,2.217,0.848,3.366c5.369,5.3,12.268,4.961,18.949,5.538
		c1.597,0.137,3.186,0.428,4.784,0.48c5.801,0.191,7.913,2.714,8.3,9.234c0.427,7.196,0.311,14.422,0.646,21.625
		c0.202,4.352,0.84,8.681,1.225,13.025c0.313,3.538,0.509,7.086,0.822,10.624c0.116,1.318,0.068,2.822,0.692,3.895
		c2.733,4.693,1.935,9.811,2.148,14.82c0.049,1.136,0.007,2.428,0.52,3.369c4.183,7.679,4.178,15.689,2.012,23.855
		c-1.595,6.014-3.348,11.986-5.092,17.958c-0.317,1.086-0.932,2.084-1.101,2.451c-2.003-0.997-3.783-2.052-5.7-2.714
		c-0.465-0.16-1.93,0.934-1.975,1.524c-0.112,1.457,0.212,2.988,0.574,4.437c3.059,12.254,6.573,24.412,9.136,36.769
		c2.257,10.88,3.35,21.996,5.183,32.97c1.103,6.604,2.837,13.104,3.922,19.709c1.068,6.494,1.399,13.114,2.59,19.581
		c0.698,3.79,0.599,7.327-0.188,11.028c-0.305,1.437-0.025,3.202,0.549,4.585c2.381,5.736,4.05,11.559,3.755,17.863
		c-0.17,3.647-0.195,7.319,0.029,10.961c0.133,2.163,0.92,4.282,1.335,6.436c0.419,2.172,1.118,4.379,1.021,6.54
		c-0.155,3.407,1.19,5.874,3.719,7.827c4.605,3.557,6.437,8.843,8.722,13.832c0.839,1.832-0.199,2.932-2.007,2.551
		c-5.282-1.111-10.51-2.482-15.771-3.696c-2.1-0.485-3.237-1.627-3.188-3.857c0.126-5.673-3.541-9.444-7.019-13.922
		c-0.307,3.219-0.57,5.983-0.926,9.716c-1.029-1.061-1.882-1.549-2.108-2.241c-0.966-2.958-1.68-5.998-2.635-8.96
		c-0.299-0.927-0.877-2.033-1.658-2.481c-2.065-1.184-3.094-2.813-3.273-5.14c-0.537-6.986-2.429-13.878-1.327-20.988
		c0.179-1.153-0.194-2.494-0.632-3.623c-3.196-8.222-4.047-16.904-5.322-25.529c-0.91-6.153-2.261-12.252-3.631-18.326
		c-2.583-11.45-4.973-22.963-8.089-34.271c-3.522-12.782-7.871-25.329-13.95-37.183c-1.166-2.273-2.57-4.424-4.52-6.498
		c-0.226,3.732-0.501,7.464-0.666,11.2c-0.26,5.874-0.264,11.767-0.722,17.624c-0.324,4.137-1.041,8.267-1.913,12.329
		c-0.801,3.722-0.673,7.266-0.168,11.058c0.733,5.505,0.784,11.176,0.434,16.732c-0.546,8.673,0.139,17.239,0.805,25.861
		c0.736,9.519,1.9,18.925,3.738,28.303c0.655,3.343-0.279,7.068-0.845,10.562c-0.621,3.832-1.56,7.623-2.541,11.385
		c-0.641,2.456-1.647,4.816-2.402,7.247c-0.335,1.078-0.562,2.217-0.632,3.342c-0.055,0.871,0.231,1.761,0.329,2.646
		c0.613,5.569-1.033,8.378-6.179,10.845c-2.166,1.038-4.083,0.801-6.01-0.549c-5.494-3.847-6.477-8.141-3.234-14.251
		c0.233-0.438,0.437-0.975,0.413-1.453c-0.138-2.823-0.243-5.653-0.556-8.459c-0.608-5.457-1.5-10.886-1.995-16.351
		c-0.821-9.047-1.262-18.13-2.15-27.169c-1.55-15.771-3.488-31.508-4.938-47.288c-0.994-10.816-1.401-21.685-2.179-32.522
		c-0.077-1.08-0.672-2.338-1.436-3.108c-1.821-1.838-2.492-3.94-2.679-6.465c-0.188-2.536-0.374-5.255-1.399-7.513
		C105.61,345.958,105.836,339.353,106.962,332.188z M143.402,244.555c2.977,11.697,7.615,22.054,12.484,32.004
		c2.224-5.445,4.465-10.854,6.641-16.286c2.493-6.225,1.205-12.323-0.509-18.899C156.038,244.385,150.101,245.867,143.402,244.555z
		 M111.741,302.233c1.035-3.28,1.876-6.292,2.951-9.217c0.607-1.653,1.695-3.123,2.397-4.748c1.172-2.713,1.874-5.331,0.284-8.344
		c-1.167-2.211-1.467-4.886-2.114-7.364c-0.316-1.21-0.541-2.444-0.961-4.374c-0.661,1.119-0.97,1.504-1.135,1.943
		c-1.575,4.18-2.869,8.275,0.26,12.467c1.201,1.607,0.271,3.035-1.463,4.15c-0.938,0.603-1.716,1.928-1.941,3.052
		c-0.285,1.433,0.245,3.011,0.089,4.489c-0.175,1.648-0.645,3.282-1.141,4.873c-0.347,1.113-0.955,2.145-1.559,3.458
		C109.36,302.445,110.817,302.315,111.741,302.233z M160.367,304.994c-1.918,0-3.507-0.035-5.093,0.007
		c-4.085,0.109-4.379,0.393-5.143,4.893c3.312-0.148,6.57-0.296,10.033-0.451C160.233,307.905,160.293,306.593,160.367,304.994z
		 M160.035,301.36c-1.474-2.264-2.719-4.173-4.103-6.297c-0.991,1.863-1.92,3.609-3.054,5.739
		C155.455,301.003,157.59,301.169,160.035,301.36z M166.52,309.077c0.068-0.209,0.136-0.417,0.205-0.626
		c-2.012-0.759-1.816-4.876-5.431-3.452c-0.114,1.473-0.213,2.766-0.314,4.078C162.925,309.077,164.723,309.077,166.52,309.077z"/>
	<path fill-rule="evenodd" clip-rule="evenodd" fill="#3780C3" d="M184.528,149.698c-0.677-0.584-1.469-0.945-2.334-1.139
		c-1.104-0.247-2.218-0.45-3.318-0.713c-1.86-0.443-3.705-0.957-5.57-1.374c-3.143-0.702-6.312-1.287-9.442-2.037
		c-4.913-1.179-9.904-1.826-14.909-2.413c-2.192-0.257-4.378-0.586-6.576-0.787c-1.593-0.146-3.203-0.225-4.799-0.166
		c-1.284,0.047-2.557,0.368-3.84,0.527c-3.047,0.379-6.099,0.711-9.144,1.107c-3.741,0.486-7.473,1.037-11.213,1.523
		c-2.832,0.369-5.673,0.662-8.505,1.029c-1.077,0.14-2.141,0.388-3.208,0.598c-0.122,0.024-0.229,0.117-0.344,0.178
		c0.008,0.033,0.016,0.066,0.024,0.099c7.843,1.907,15.687,3.813,23.542,5.723c-0.025,0.29-0.044,0.545-0.071,0.798
		c-0.119,1.122,0.031,2.264-0.312,3.37c-0.458,1.475-0.626,3.002-0.767,4.535c-0.075,0.816-0.195,1.628-0.313,2.439
		c-0.07,0.479-0.214,0.948-0.256,1.428c-0.152,1.717-0.27,3.437-0.412,5.155c-0.06,0.724-0.147,1.446-0.227,2.168
		c-0.076,0.69-0.014,1.301,0.668,1.72c0.548,0.336,1.025,0.787,1.572,1.125c0.615,0.38,1.241,0.784,1.918,1.011
		c1.312,0.44,2.66,0.78,4.001,1.13c0.977,0.255,1.956,0.525,2.951,0.677c2.476,0.377,4.967,0.653,7.44,1.043
		c1.476,0.233,1.56-0.425,2.888,0.313c0.348,0.194,0.707,0.247,1.088,0.11c0.519-0.186,2.412,0.658,2.932,0.475
		c2.301-0.811,4.703-1.161,7.096-1.536c2.499-0.392,4.954-0.887,7.184-2.175c1.014-0.585,1.444-1.353,1.364-2.473
		c-0.085-1.19-0.156-2.389-0.107-3.58c0.135-3.293,0.129-6.572-0.64-9.804c-0.137-0.575-0.233-1.169-0.452-1.713
		c-0.523-1.297-1.109-2.569-1.667-3.853c-0.013-0.031,0.008-0.076,0.016-0.131c0.061-0.021,0.12-0.054,0.183-0.062
		c1.296-0.16,2.592-0.329,3.89-0.471c0.559-0.061,0.742,0.167,0.688,0.742c-0.021,0.225-0.046,0.46-0.006,0.678
		c0.1,0.532-0.078,1.072,0.125,1.613c0.113,0.3,0.014,0.678,0.022,1.021c0.014,0.581,0.026,1.162,0.058,1.742
		c0.029,0.513,0.099,1.024,0.123,1.537c0.023,0.492,0.006,0.986,0.017,1.479c0.008,0.343,0.031,0.686,0.052,1.027
		c0.046,0.76,0.105,1.519,0.14,2.278c0.02,0.434,0.003,0.869,0,1.304c-0.003,0.352-0.017,0.704-0.013,1.055
		c0.005,0.441,0.015,0.883,0.039,1.324c0.03,0.552,0.077,1.104,0.115,1.656c0.01,0.144,0.013,0.288,0.018,0.393
		c-0.339,0.14-0.63,0.276-0.933,0.382c-0.389,0.136-0.646,0.389-0.728,0.791c-0.096,0.472-0.17,0.949-0.244,1.425
		c-0.092,0.594-0.249,1.19-0.245,1.784c0.007,1.204,0.092,2.408,0.166,3.611c0.129,2.108,0.243,4.217,0.418,6.321
		c0.358,4.295,0.75,8.587,1.134,12.88c0.299,3.326,0.608,6.651,0.914,9.978c0.099,1.073,0.207,2.145,0.294,3.218
		c0.021,0.258,0.12,0.39,0.373,0.331c0.446-0.104,0.886-0.027,1.33-0.002c0.209,0.013,0.444-0.117,0.629-0.059
		c0.939,0.29,1.851-0.06,2.774-0.087c0.096-0.003,0.26-0.186,0.266-0.292c0.029-0.506,0.05-1.019,0.01-1.524
		c-0.142-1.78-0.338-3.557-0.461-5.338c-0.136-1.971-0.215-3.945-0.321-5.918c-0.007-0.134-0.037-0.267-0.053-0.4
		c-0.188-1.548-0.411-3.093-0.554-4.645c-0.147-1.594-0.186-3.197-0.327-4.792c-0.232-2.623-0.499-5.243-0.763-7.862
		c-0.012-0.698-0.034-1.348-0.064-1.954c0.004-0.013,0.007-0.025,0.011-0.038v-0.536c-0.004,0.014-0.009,0.027-0.013,0.042
		c-0.007,0.021-0.015,0.043-0.022,0.065c-0.281-4.832-1.098-6.64-1.79-7.281c0.009-0.123,0.01-0.24-0.016-0.351
		c-0.067-0.284-0.311-0.417-0.607-0.45c-0.389-0.043-0.417-0.176-0.338-0.574c0.053-0.267-0.049-0.566-0.086-0.851
		c-0.016-0.126-0.05-0.25-0.065-0.375c-0.044-0.365-0.079-0.73-0.125-1.094c-0.029-0.229-0.076-0.457-0.107-0.686
		c-0.024-0.179-0.036-0.36-0.055-0.54c-0.009-0.088-0.028-0.176-0.031-0.264c-0.014-0.513-0.018-1.027-0.036-1.541
		c-0.015-0.422-0.042-0.844-0.067-1.265c-0.017-0.285-0.074-0.572-0.055-0.854c0.043-0.616,0.143-1.23-0.073-1.835
		c-0.022-0.06-0.03-0.128-0.029-0.193c0.007-0.528,0.022-1.057,0.024-1.585c0-0.09-0.062-0.178-0.078-0.27
		c-0.022-0.13-0.039-0.263-0.037-0.394c0.011-0.527,0.031-1.053,0.043-1.58c0.001-0.065-0.037-0.13-0.044-0.196
		c-0.054-0.468-0.114-0.936-0.152-1.405c-0.025-0.311,0.024-0.633-0.034-0.937c-0.117-0.61,0.032-0.881,0.642-1.026
		c0.118-0.028,0.235-0.06,0.354-0.08c3.475-0.612,6.949-1.234,10.427-1.829c2.189-0.374,4.387-0.706,6.581-1.053
		c0.263-0.042,0.528-0.063,0.875-0.104C184.773,149.969,184.666,149.816,184.528,149.698z M167.856,171.352
		c-0.273-0.184-0.515-0.198-0.679-0.173c-0.013-0.043-0.024-0.09-0.031-0.142C167.502,170.959,167.734,171.048,167.856,171.352z"/>
</g>
<circle fill-rule="evenodd" clip-rule="evenodd" fill="#3780C3" cx="240.48" cy="282.284" r="38.119"/>
<g>
	<circle fill-rule="evenodd" clip-rule="evenodd" fill="#F1F1F0" cx="280.953" cy="540.679" r="27.759"/>
	<circle fill-rule="evenodd" clip-rule="evenodd" fill="#F1F1F0" cx="374.147" cy="540.679" r="27.759"/>
	<circle fill-rule="evenodd" clip-rule="evenodd" fill="#F1F1F0" cx="470.456" cy="540.679" r="27.759"/>
	<circle fill-rule="evenodd" clip-rule="evenodd" fill="#F1F1F0" cx="560.938" cy="540.679" r="27.76"/>
</g>
<circle fill-rule="evenodd" clip-rule="evenodd" fill="#3780C3" cx="330.463" cy="282.349" r="38.119"/>
<circle fill-rule="evenodd" clip-rule="evenodd" fill="#3780C3" cx="420.945" cy="282.349" r="38.119"/>
<circle fill-rule="evenodd" clip-rule="evenodd" fill="#3780C3" cx="511.428" cy="282.349" r="38.119"/>
<circle fill-rule="evenodd" clip-rule="evenodd" fill="#3780C3" cx="601.91" cy="282.349" r="38.119"/>
<circle fill-rule="evenodd" clip-rule="evenodd" fill="#3780C3" cx="239.98" cy="375.819" r="38.119"/>
<circle fill-rule="evenodd" clip-rule="evenodd" fill="#3780C3" cx="330.463" cy="375.819" r="38.119"/>
<circle fill-rule="evenodd" clip-rule="evenodd" fill="#3780C3" cx="420.945" cy="375.819" r="38.119"/>
<circle fill-rule="evenodd" clip-rule="evenodd" fill="#3780C3" cx="511.428" cy="375.819" r="38.119"/>
<circle fill-rule="evenodd" clip-rule="evenodd" fill="#3780C3" cx="601.91" cy="375.819" r="38.119"/>
<circle fill-rule="evenodd" clip-rule="evenodd" fill="#3780C3" cx="239.98" cy="468.221" r="38.119"/>
<circle fill-rule="evenodd" clip-rule="evenodd" fill="#3780C3" cx="330.463" cy="468.221" r="38.119"/>
<circle fill-rule="evenodd" clip-rule="evenodd" fill="#3780C3" cx="420.945" cy="468.221" r="38.119"/>
<circle fill-rule="evenodd" clip-rule="evenodd" fill="#3780C3" cx="511.428" cy="468.221" r="38.119"/>
<circle fill-rule="evenodd" clip-rule="evenodd" fill="#3780C3" cx="601.91" cy="468.221" r="38.119"/>
<g>
	<path fill="#FFFFFF" d="M251.823,280.621c-0.105-0.048-0.212-0.092-0.318-0.138c-0.333-0.147-0.671-0.287-1.014-0.419
		c-0.138-0.053-0.276-0.104-0.415-0.155c-0.335-0.122-0.675-0.236-1.02-0.344c-0.129-0.041-0.257-0.083-0.387-0.122
		c-0.942-0.279-1.916-0.507-2.92-0.683c-0.144-0.025-0.29-0.045-0.435-0.068c-0.362-0.058-0.728-0.109-1.098-0.154
		c-0.175-0.021-0.35-0.04-0.526-0.058c-0.366-0.037-0.736-0.067-1.109-0.091c-0.162-0.011-0.323-0.023-0.487-0.032
		c-0.532-0.026-1.069-0.043-1.614-0.043c-10.536,0-16.527-17.38-16.614-17.645c-0.544-1.678-2.1-2.746-3.774-2.746
		c-0.404,0-0.815,0.062-1.22,0.193c-2.085,0.673-3.23,2.91-2.557,4.995c0.211,0.656,3.821,11.546,11.527,18.149l0,0c0,0,0,0,0,0
		c0.844,0.723,1.736,1.394,2.679,1.995c0.017,0.011,0.035,0.021,0.051,0.032c0.209,0.133,0.421,0.262,0.636,0.387
		c0.033,0.02,0.066,0.039,0.1,0.059c0.212,0.123,0.427,0.242,0.644,0.357c0.023,0.012,0.046,0.025,0.069,0.037
		c0.484,0.255,0.98,0.491,1.488,0.705c0.04,0.017,0.079,0.032,0.119,0.048c0.206,0.085,0.413,0.167,0.623,0.245
		c0.066,0.024,0.133,0.048,0.2,0.072c0.19,0.068,0.382,0.133,0.576,0.196c0.069,0.022,0.139,0.045,0.208,0.067
		c0.216,0.066,0.434,0.129,0.654,0.188c0.044,0.011,0.087,0.025,0.131,0.036c0.266,0.069,0.535,0.132,0.806,0.189
		c0.049,0.01,0.099,0.018,0.147,0.028c0.218,0.043,0.437,0.083,0.659,0.119c0.089,0.014,0.18,0.027,0.27,0.04
		c0.187,0.027,0.375,0.052,0.564,0.073c0.098,0.011,0.196,0.021,0.294,0.031c0.195,0.019,0.391,0.033,0.588,0.046
		c0.089,0.005,0.178,0.012,0.268,0.017c0.285,0.014,0.572,0.022,0.863,0.022c15.237,0,16.421,12.569,16.421,16.423
		c0,2.191,1.776,3.967,3.968,3.967c2.191,0,3.968-1.775,3.968-3.967c0-6.635-2.146-12.661-6.042-16.969
		C256.842,283.547,254.497,281.847,251.823,280.621z"/>
	<path fill="#FFFFFF" d="M231.234,266.386h23.334c-0.287,0.546-0.595,1.109-0.929,1.682h-20.512c-0.487,0-0.882,0.395-0.882,0.882
		c0,0.487,0.395,0.882,0.882,0.882h19.421c-0.372,0.566-0.767,1.129-1.182,1.683h-16.102c-0.487,0-0.882,0.395-0.882,0.882
		s0.395,0.882,0.882,0.882h14.661c-0.996,1.116-2.087,2.134-3.275,2.956c3.101,0.589,5.94,1.641,8.474,3.127
		c6.329-6.602,9.328-15.651,9.521-16.247c0.673-2.083-0.47-4.314-2.552-4.991c-2.082-0.675-4.319,0.465-4.998,2.547
		c-0.018,0.053-0.581,1.694-1.648,3.952h-24.213c-0.487,0-0.882,0.395-0.882,0.882S230.747,266.386,231.234,266.386z"/>
	<path fill="#FFFFFF" d="M249.997,297.517h-25.29c0.141-0.55,0.311-1.113,0.517-1.683h22.878c0.487,0,0.882-0.394,0.882-0.882
		c0-0.486-0.395-0.881-0.882-0.881h-22.123c0.286-0.569,0.613-1.134,0.988-1.683h18.998c0.487,0,0.881-0.395,0.881-0.882
		c0-0.487-0.395-0.882-0.881-0.882h-17.553c1.21-1.246,2.75-2.334,4.715-3.112c-2.676-1.032-5.225-2.636-7.61-4.791
		c-1.215,0.872-2.338,1.864-3.352,2.984c-3.896,4.308-6.043,10.333-6.043,16.969c0,2.191,1.777,3.967,3.968,3.967
		s3.968-1.775,3.968-3.967c0-0.812,0.055-2.01,0.28-3.394h25.657c0.487,0,0.882-0.396,0.882-0.882
		C250.878,297.912,250.483,297.517,249.997,297.517z"/>
</g>
<g>
	<g>
		<path fill="#FFFFFF" d="M533.171,491.836h-40.952c-0.857,0-1.656-0.439-2.114-1.166c-0.458-0.725-0.512-1.635-0.143-2.41
			l11.15-23.391v-20.295c0-1.381,1.119-2.5,2.5-2.5h18.165c1.381,0,2.5,1.119,2.5,2.5v20.369l11.148,23.314
			c0.371,0.775,0.318,1.686-0.141,2.412C534.828,491.396,534.029,491.836,533.171,491.836z M496.18,486.836h33.024l-9.683-20.248
			c-0.16-0.336-0.244-0.705-0.244-1.078v-18.436h-13.165v18.36c0,0.372-0.083,0.739-0.243,1.075L496.18,486.836z"/>
	</g>
	<g>
		<polygon fill="#FFFFFF" points="501.498,484.389 506.718,473.103 518.168,473.103 523.893,484.389 		"/>
	</g>
	<g>
		<rect x="498.215" y="441.111" fill="#FFFFFF" width="28.961" height="7.408"/>
	</g>
</g>
<g>
	<path fill-rule="evenodd" clip-rule="evenodd" fill="#FFFFFF" d="M416.135,256.116c2.883-1.402,5.553,0.812,8.308,1.223
		c0.568,0.085,0.981,1.205,1.465,1.848c-0.189,0.213-0.379,0.427-0.569,0.641c-2.095-0.548-4.194-1.08-6.282-1.651
		c-0.981-0.269-1.941-0.617-2.911-0.928C416.143,256.871,416.139,256.494,416.135,256.116z"/>
	<path fill-rule="evenodd" clip-rule="evenodd" fill="#FFFFFF" d="M412.451,279.308c1.77,1.252,3.3,2.334,4.83,3.417
		c-0.933,0.292-1.919,0.941-2.79,0.813C411.643,283.117,411.522,282.803,412.451,279.308z"/>
	<path fill-rule="evenodd" clip-rule="evenodd" fill="#FFFFFF" d="M438.865,280.738c-1.047-8.527-6.579-13.422-14.516-15.785
		c0.259-1.314,0.455-2.309,0.715-3.63c-3.208-0.854-6.283-1.673-9.606-2.557c-1.76,6.562-3.428,12.785-5.192,19.365
		c3.37,0.893,6.426,1.703,9.633,2.552c0.944-3.196,1.756-5.942,2.561-8.665c6.831,1.448,10.503,6.547,9.523,12.926
		c-0.93,6.06-6.347,9.771-13.204,8.953c1.06-1.522,2.701-3.816-0.225-4.2c-4.683-0.616-9.505-0.223-14.266-0.115
		c-0.52,0.011-1.422,0.946-1.429,1.463c-0.01,0.744,0.442,1.773,1.04,2.197c3.066,2.169,6.242,4.183,9.401,6.265
		c-1.562,1.216-2.917,1.87-3.663,2.948c-0.954,1.377-1.484,3.518,1.094,3.598c7.234,0.221,14.479,0.076,21.646,0.076
		c1.346-3.668-1.556-4.873-3.887-6.474C436.061,295.296,439.897,289.146,438.865,280.738z M421.355,303.162
		c-0.842-0.912-2.163-1.729-2.364-2.765c-0.141-0.728,1.242-1.751,2.45-3.284c1.143,1.556,2.477,2.608,2.32,3.34
		C423.541,301.48,422.211,302.27,421.355,303.162z"/>
</g>
<path fill-rule="evenodd" clip-rule="evenodd" fill="#FFFFFF" d="M529.907,288.488c0,10.206-8.273,18.48-18.479,18.48
	s-18.48-8.274-18.48-18.48s18.48-31.018,18.48-31.018S529.907,278.282,529.907,288.488z"/>
<path fill-rule="evenodd" clip-rule="evenodd" fill="none" stroke="#3780C3" stroke-width="4" stroke-linecap="round" stroke-miterlimit="10" d="
	M499.65,284.769c0,0-3.35,13.86,12.326,16.808"/>
<g>
	<path fill="#FFFFFF" d="M435.853,468.086c-0.838,0-1.647,0.11-2.428,0.298l-3.334-5.679c-1.438,1.395-3.214,2.438-5.192,3.006
		l3.353,5.712c-1.051,1.137-1.855,2.503-2.314,4.023h-8.873c-1.286-4.259-5.236-7.36-9.915-7.36c-5.723,0-10.36,4.639-10.36,10.36
		s4.638,10.359,10.36,10.359c4.679,0,8.629-3.102,9.915-7.359h8.873c1.287,4.258,5.238,7.359,9.916,7.359
		c5.722,0,10.36-4.638,10.36-10.359S441.574,468.086,435.853,468.086z"/>
	<path fill="#FFFFFF" d="M415.799,469.635l3.273-5.576c0.78,0.188,1.591,0.297,2.429,0.297c5.722,0,10.36-4.638,10.36-10.359
		c0-5.723-4.639-10.361-10.36-10.361c-5.723,0-10.36,4.639-10.36,10.361c0,2.713,1.052,5.176,2.759,7.022l-3.275,5.581
		C412.598,467.18,414.368,468.23,415.799,469.635z"/>
</g>
<g>
	<path fill-rule="evenodd" clip-rule="evenodd" fill="#FFFFFF" d="M262.518,395.614l-3.269-11.359
		c1.042-2.449,1.62-5.142,1.62-7.967c0-8.433-5.055-15.832-12.751-18.931v-8.658c0-1.312-1.063-2.376-2.375-2.376h-10.588
		c-1.312,0-2.375,1.063-2.375,2.376v8.659c-7.695,3.099-12.75,10.498-12.75,18.93c0,2.857,0.595,5.578,1.66,8.051l-3.245,11.275
		c-0.363,1.262,0.365,2.577,1.626,2.94c1.261,0.36,2.577-0.365,2.939-1.626l2.08-7.229c3.747,4.285,9.235,7.009,15.36,7.009
		c6.151,0,11.662-2.746,15.408-7.062l2.096,7.282c0.3,1.041,1.25,1.72,2.282,1.72c0.217,0,0.438-0.031,0.658-0.094
		C262.152,398.191,262.88,396.876,262.518,395.614z M235.85,361.308c0.998-0.307,1.679-1.229,1.679-2.272v-7.961h5.837v7.961
		c0,1.044,0.682,1.966,1.679,2.272c6.622,2.029,11.071,8.049,11.071,14.98c0,1.938-0.37,3.786-1.016,5.501h-29.306
		c-0.646-1.715-1.016-3.563-1.016-5.501C224.779,369.357,229.228,363.338,235.85,361.308z M240.448,391.957
		c-4.719,0-8.947-2.106-11.822-5.417h23.645C249.395,389.851,245.167,391.957,240.448,391.957z"/>
	<path fill-rule="evenodd" clip-rule="evenodd" fill="#FFFFFF" d="M253.756,379.8c0,0,1.574-3.756,0.53-6.291l-10.625,2.518
		c0.024-0.14,0.043-0.282,0.043-0.429c0-1.349-1.092-2.441-2.44-2.441c-1.348,0-2.44,1.093-2.44,2.441
		c0,0.549,0.188,1.05,0.494,1.457l-11.584,2.745H253.756z"/>
	<circle fill-rule="evenodd" clip-rule="evenodd" fill="#FFFFFF" cx="231.612" cy="370.323" r="2.833"/>
</g>
<g>
	<path fill="#FFFFFF" d="M348.799,352.077h-4.632h-3.742H320.5h-3.742h-4.632c-1.034,0-1.871,0.837-1.871,1.871
		c0,1.033,0.837,1.871,1.871,1.871h4.632v33.251c0,7.557,6.147,13.704,13.704,13.704c7.557,0,13.705-6.147,13.705-13.704v-33.251
		h4.632c1.033,0,1.871-0.838,1.871-1.871C350.67,352.914,349.833,352.077,348.799,352.077z M340.425,389.07
		c0,5.502-4.46,9.962-9.963,9.962c-5.501,0-9.962-4.46-9.962-9.962v-0.35h9.962c1.034,0,1.871-0.837,1.871-1.871
		c0-1.033-0.837-1.87-1.871-1.87H320.5v-3.283h9.962c1.034,0,1.871-0.838,1.871-1.871s-0.837-1.871-1.871-1.871H320.5v-3.283h9.962
		c1.034,0,1.871-0.838,1.871-1.872c0-1.033-0.837-1.87-1.871-1.87H320.5v-3.283h9.962c1.034,0,1.871-0.838,1.871-1.871
		s-0.837-1.87-1.871-1.87H320.5v-8.085h19.925V389.07z"/>
</g>
<g>
	<path fill="#FFFFFF" d="M574.471,379.169c0-1.857,0-3.717,0-5.575c0.074-0.229,0.166-0.456,0.219-0.69
		c0.364-1.631,0.557-3.319,1.104-4.884c3.406-9.72,10.124-15.878,20.122-18.418c1.059-0.27,2.141-0.446,3.213-0.665
		c1.857,0,3.716,0,5.574,0c0.158,0.068,0.312,0.18,0.477,0.199c4.18,0.484,8.061,1.847,11.547,4.181
		c7.805,5.225,12.133,12.542,12.586,21.944c0.371,7.676-2.146,14.451-7.521,19.938c-7.889,8.053-17.471,10.662-28.214,7.26
		c-9.817-3.107-15.899-10.075-18.441-20.075C574.866,381.323,574.689,380.241,574.471,379.169z M601.013,352.419
		c-14.03,0.581-24.401,12.836-22.931,26.577c1.325,12.387,12.533,22.663,26.445,21.213c12.402-1.294,22.693-12.543,21.207-26.439
		C624.4,361.293,613.611,351.969,601.013,352.419z"/>
	<path fill-rule="evenodd" clip-rule="evenodd" fill="#FFFFFF" d="M612.213,394.18c-6.178,3.701-14.331,3.689-20.58-0.015
		c0.99-1.719,1.979-3.44,2.971-5.161c1.141-1.977,2.299-3.943,3.414-5.935c0.305-0.543,0.553-0.813,1.229-0.489
		c1.774,0.853,3.573,0.786,5.386,0.031c0.266-0.111,0.875,0.02,1,0.23C607.844,386.582,610.004,390.353,612.213,394.18z"/>
	<path fill-rule="evenodd" clip-rule="evenodd" fill="#FFFFFF" d="M591.65,358.548c2.291,3.968,4.549,7.879,6.857,11.879
		c-2.176,1.344-3.27,3.327-3.461,5.885c-4.539,0-9.054,0-13.568,0.002C580.977,370.883,584.344,362.823,591.65,358.548z"/>
	<path fill-rule="evenodd" clip-rule="evenodd" fill="#FFFFFF" d="M622.414,376.34c-4.564,0-9.055,0-13.535,0
		c-0.824-3.537-1.156-4.101-3.533-5.949c2.266-3.926,4.535-7.861,6.805-11.795C618.533,362.077,622.713,369.623,622.414,376.34z"/>
	<path fill-rule="evenodd" clip-rule="evenodd" fill="#FFFFFF" d="M606.492,376.342c0.027,2.516-1.951,4.554-4.482,4.617
		c-2.549,0.063-4.643-1.971-4.671-4.537c-0.028-2.557,2.031-4.627,4.591-4.617C604.453,371.815,606.465,373.814,606.492,376.342z"/>
</g>
<g>
	<path fill-rule="evenodd" clip-rule="evenodd" fill="#FFFFFF" d="M522.192,373.572c-8.568-3.608-15.355,0.24-18.528,5.163
		c-2.88,4.47-3.959,12.417,3.05,18.947c-0.373,0.023-0.649,0.054-0.925,0.055c-4.387,0.003-8.77,0.006-13.156,0
		c-2.211-0.002-3.479-1.204-3.48-3.418c-0.017-13.227-0.014-26.452-0.002-39.677c0.002-1.888,1.304-3.545,3.139-3.972
		c0.896-0.208,1.836-0.317,2.756-0.318c6.725-0.005,13.45,0.034,20.175,0.048c1.522,0.003,3.044-0.059,4.565-0.054
		c0.736,0.002,1.683-0.048,1.707,0.97c0.027,1.079-0.922,1.082-1.717,1.082c-7.987,0.001-15.976,0.003-23.963-0.015
		c-1.332-0.003-2.474,0.362-3.396,1.355c-0.768,0.829-0.933,1.784-0.479,2.779c0.433,0.949,1.079,1.591,2.297,1.583
		c6.91-0.038,13.819-0.02,20.729-0.008c1.484,0.002,2.971,0.028,4.454,0.093c1.601,0.07,2.848,1.241,2.866,2.84
		c0.047,4.122,0.01,8.246,0.001,12.37C522.285,373.455,522.225,373.514,522.192,373.572z"/>
	<path fill-rule="evenodd" clip-rule="evenodd" fill="#FFFFFF" d="M503.365,386.388c0-6.785,5.496-12.253,12.341-12.279
		c6.779-0.025,12.326,5.498,12.342,12.287c0.015,6.775-5.601,12.466-12.403,12.355C508.691,398.639,503.446,393.267,503.365,386.388
		z M515.687,378.552c-4.23-0.002-7.855,3.62-7.873,7.87c-0.019,4.243,3.559,7.795,7.896,7.837c4.26,0.041,7.892-3.594,7.853-7.859
		C523.522,382.103,519.962,378.555,515.687,378.552z"/>
	<path fill-rule="evenodd" clip-rule="evenodd" fill="#FFFFFF" d="M524.885,397.543c1.161-1.379,2.25-2.672,3.356-3.985
		c1.281,1.058,2.57,2.111,3.848,3.18c1.195,0.999,1.411,2.709,0.509,3.885c-0.829,1.077-2.592,1.23-3.814,0.247
		C527.459,399.805,526.193,398.665,524.885,397.543z"/>
</g>
<g>
	<path fill-rule="evenodd" clip-rule="evenodd" fill="#FFFFFF" d="M239.06,451.091c3.374-4.104,9.142-1.863,11.116,1.749
		c1.384,2.534,1.237,5.154,0.549,7.812c-1.007,3.891-3.157,6.928-7.043,8.261c-4.261,1.46-8.539,1.464-12.429-1.202
		c-1.933-1.325-3.055-3.326-3.731-5.541c-0.9-2.948-1.352-5.914,0.202-8.807c1.307-2.435,3.388-3.863,6.076-4.305
		C235.862,448.72,237.679,449.317,239.06,451.091z"/>
	<path fill-rule="evenodd" clip-rule="evenodd" fill="#FFFFFF" d="M240.743,489.938c-5.131,0-10.269-0.165-15.392,0.04
		c-6.938,0.277-10.779-6.505-9.026-12.454c1.32-4.481,4.422-6.677,9.117-6.678c10.433-0.004,20.865,0,31.298,0.002
		c0.344,0,0.69-0.007,1.032,0.028c0.991,0.105,1.669,0.831,1.668,1.759c0,0.931-0.674,1.698-1.626,1.825
		c-0.305,0.04-0.619,0.021-0.929,0.021c-10.123,0.001-20.246,0-30.369,0.003c-1.571,0-3.083,0.197-4.366,1.246
		c-2.047,1.674-2.562,3.867-1.981,6.309c0.573,2.41,2.228,3.801,4.667,4.209c0.675,0.112,1.37,0.142,2.056,0.142
		c9.781,0.009,19.561,0.006,29.34,0.008c0.517,0,1.035-0.002,1.548,0.043c1.058,0.092,1.615,0.707,1.615,1.737
		c0,1.05-0.534,1.636-1.607,1.748c-0.239,0.024-0.481,0.013-0.722,0.013C251.625,489.938,246.185,489.938,240.743,489.938z"/>
	<path fill-rule="evenodd" clip-rule="evenodd" fill="#FFFFFF" d="M255.714,476.117c-1.919,2.863-1.74,5.658-0.168,8.574
		c-0.339,0.016-0.697,0.046-1.056,0.046c-9.225,0.003-18.45,0.009-27.674-0.002c-1.949-0.003-3.676-0.541-4.781-2.308
		c-1.464-2.34-0.03-5.347,2.924-6.135c0.363-0.097,0.745-0.168,1.119-0.168C235.918,476.115,245.76,476.117,255.714,476.117z"/>
	<path fill-rule="evenodd" clip-rule="evenodd" fill="#FFFFFF" d="M235.588,443.534c1.033,0.361,1.851,0.675,2.687,0.932
		c1.318,0.404,1.812,1.442,2.071,2.599c1.252-0.855,2.496-1.707,3.739-2.558c0.027,0.05,0.054,0.1,0.081,0.15
		c-1.706,1.697-3.413,3.396-4.995,4.971c-1.085-0.596-2.231-1.165-3.305-1.849c-0.309-0.195-0.58-0.723-0.573-1.093
		C235.313,445.617,235.483,444.551,235.588,443.534z"/>
</g>
<path fill-rule="evenodd" clip-rule="evenodd" fill="#FFFFFF" d="M618.885,470.398c4.53-5.688,5.151-13.311,1.335-19.482
	c-3.876-6.263-10.024-9.016-16.997-10.103c-5.328-0.831-10.323,0.506-15.076,2.938c-5.897,3.018-9.27,7.518-8.621,14.422
	c0.222,2.365-0.695,4.312-2.158,6.043c-0.871,1.029-1.931,1.901-2.783,2.944c-0.906,1.108-0.654,1.98,0.599,2.673
	c0.407,0.224,0.819,0.44,1.213,0.688c1.569,0.986,1.697,1.387,0.748,3.005c-0.404,0.689-0.226,1.097,0.367,1.469
	c0.276,0.174,0.557,0.343,0.875,0.538c-0.787,0.802-0.73,1.46,0.052,2.204c0.376,0.357,0.682,0.998,0.674,1.506
	c-0.02,1.087-0.257,2.172-0.412,3.258c-0.198,1.379,0.202,2.229,1.501,2.716c0.814,0.307,1.724,0.565,2.575,0.527
	c1.769-0.083,3.526-0.386,5.29-0.584c1.173-0.132,2.348-0.327,3.521-0.327c0.992,0,1.654,0.433,1.884,1.623
	c0.356,1.851,0.997,3.645,1.54,5.544c0.002,0,0.003-0.001,0.004-0.001c-0.01,0.062-0.015,0.125-0.01,0.188
	c0.131,1.632,5.353,2.544,11.665,2.037c6.311-0.507,11.321-2.241,11.19-3.873c-0.017-0.198-0.109-0.387-0.269-0.562
	c-0.815-2.057-1.571-4.014-2.381-5.939c-1.688-4.015-1.167-7.683,1.629-11.024C617.519,472.013,618.227,471.226,618.885,470.398z
	 M612.68,469.922c-2.189,1.228-3.529,2.981-3.637,5.681c-0.875,0-1.618,0-2.388,0c0-2.345-0.185-4.641,0.09-6.88
	c0.112-0.912,1.133-1.793,1.897-2.526c1.647-1.581,1.862-1.513,3.202,0.492c0.359-0.126,0.737-0.26,1.474-0.52
	c-0.897-1.021-1.646-1.87-2.464-2.799c0.127-0.887,0.234-1.971,0.461-3.029c0.069-0.326,0.412-0.655,0.714-0.857
	c0.864-0.578,1.773-1.091,2.836-1.732c-0.5-0.429-0.801-0.688-1.148-0.986c-0.314,0.276-0.579,0.53-0.865,0.759
	c-1.154,0.922-1.407,0.801-2.429-0.189c-0.731-0.708-1.674-1.279-2.623-1.659c-0.885-0.354-0.925-0.751-0.665-1.53
	c0.17-0.506,0.097-1.093,0.133-1.644c-0.222-0.057-0.442-0.113-0.662-0.17c-0.431,0.848-0.86,1.694-1.373,2.702
	c-1.901,0.785-2.147-1.597-3.462-2.132c0.219-0.781,0.417-1.492,0.642-2.296c-0.513-0.085-0.872-0.144-1.287-0.213
	c-0.153,0.452-0.191,0.926-0.442,1.217c-0.364,0.426-0.859,0.756-1.343,1.058c-0.236,0.147-0.586,0.096-0.855,0.207
	c-1.19,0.499-2.226,0.581-3.09-0.661c-0.309-0.444-0.94-0.664-1.425-0.984c-0.126,0.041-0.251,0.083-0.377,0.124
	c0.056,0.429-0.051,1.035,0.193,1.256c2.014,1.831,1.771,3.217-0.918,4.5c-0.909-1.191-1.845-2.415-3.604-2.393
	c-0.424,0.982,0.224,1.178,0.903,1.542c0.578,0.31,0.98,0.945,1.604,1.584c-2.004,0.819-4.83-0.785-5.416,2.434
	c0.129,0.08,0.264,0.188,0.417,0.249c0.152,0.06,0.324,0.074,0.456,0.103c0.114-0.05,0.235-0.063,0.257-0.117
	c0.375-0.938,1.09-1.155,2.038-1.115c3.109,0.134,5.279-1.37,6.82-3.98c0.218-0.37,0.666-0.675,1.075-0.846
	c0.695-0.287,1.444-0.601,2.173-0.61c0.684-0.008,1.438,0.255,2.031,0.611c0.309,0.187,0.579,1.118,0.45,1.229
	c-0.692,0.594-0.365,2.034-1.783,2.025c-1.297-0.008-2.489,0.401-3.415,1.458c0.557,1.116,1.17,0.417,1.834,0.168
	c0.646-0.241,1.364-0.286,2.012-0.41c0.414,1.077,0.758,1.969,1.104,2.872c0.978-0.271,1.124-0.734,0.774-1.543
	c-0.229-0.524-0.324-1.147-0.322-1.726c0.004-1.709,0.869-2.475,2.557-2.322c0.462,0.043,0.925,0.13,1.37,0.257
	c1.5,0.426,3.255,0.673,3.641,2.516c0.448,2.137,0.078,4.392-1.705,5.68c-2.475,1.786-3.127,3.999-2.847,6.812
	c0.128,1.293,0.021,2.608,0.021,4.023c-0.757,0-1.439,0-2.27,0c0-2.288,0.003-4.524-0.001-6.759
	c-0.004-2.823-2.915-5.089-5.747-4.756c-1.364,0.158-2.797-0.274-4.2-0.436c-0.396-0.044-0.798-0.104-1.195-0.098
	c-1.55,0.027-3.126,0.277-4.643,0.073c-2.199-0.294-3.938-1.479-4.343-3.829c-0.43-2.49,0.229-4.678,2.309-6.336
	c0.51-0.405,0.99-0.985,1.214-1.585c0.749-2.012,2.248-3.165,4.661-3.269c0.776-0.032,1.267-0.251,1.794-0.873
	c1.276-1.505,3.019-1.565,4.78-1.067c0.922,0.261,1.618,0.365,2.506-0.343c1.482-1.186,3.171-0.613,4.668,0.15
	c1.014,0.517,1.976,0.761,3.126,0.721c2.282-0.082,3.91,1.127,5.103,3.002c0.19,0.301,0.421,0.72,0.709,0.795
	c2.048,0.535,2.539,2.214,2.903,3.932c0.328,1.54,0.2,3.117,1.028,4.626c0.761,1.386,0.023,2.863-0.728,4.194
	c-0.427,0.758-0.791,1.56-1.096,2.375C615.271,467.784,614.208,469.065,612.68,469.922z"/>
<g>
	<path fill-rule="evenodd" clip-rule="evenodd" fill="#FFFFFF" d="M326.291,484.497c-1.29-0.172-2.33-0.312-3.541-0.474
		c0-1.945,0-3.847,0-5.748c0-1.911,0-3.821,0-5.536c-2.107-0.827-4.161-1.398-5.981-2.395c-4.634-2.535-7.341-6.572-8.37-11.722
		c-0.311-1.554,0.021-1.909,1.571-2.055c0.606-0.058,1.222-0.034,1.833-0.034c8.93-0.004,17.859-0.005,26.789-0.007
		c2.602-0.001,2.907,0.28,2.339,2.855c-0.858,3.888-2.924,7.034-6.032,9.562c-2.319,1.886-4.966,2.883-7.84,3.385
		c-0.75,0.131-0.772,0.554-0.771,1.12c0.008,3.181,0.004,6.361,0.004,9.542C326.291,483.431,326.291,483.869,326.291,484.497z
		 M320.703,468.56c-0.027-0.312,0.03-0.597-0.081-0.779c-1.374-2.269-1.682-4.782-1.861-7.357c-0.026-0.379-0.737-0.943-1.193-1.012
		c-1.034-0.154-2.106-0.052-3.163-0.054c-2.133-0.003-2.518,0.603-1.646,2.602c0.064,0.147,0.152,0.289,0.25,0.418
		c1.21,1.595,2.262,3.36,3.696,4.721C317.667,468.01,318.888,469.14,320.703,468.56z"/>
	<path fill-rule="evenodd" clip-rule="evenodd" fill="#FFFFFF" d="M331.09,449.241c-2.413,0.2-4.673,0.438-6.941,0.556
		c-1.251,0.064-1.587-0.465-1.327-1.676c0.729-3.396,5.476-7.293,9.354-6.205c0.039,0.011,0.091-0.003,0.12,0.019
		c1.706,1.244,3.486,0.362,5.243,0.189c5.08-0.497,9.396,1.078,12.387,5.244c2.408,3.354,3.134,7.287,2.474,11.395
		c-0.617,3.834-2.113,7.235-4.642,10.273c-3.31,3.976-7.447,6.515-12.345,7.903c-2.282,0.646-4.613,1.118-7.145,1.722
		c0-1.725-0.041-3.06,0.036-4.389c0.014-0.254,0.463-0.649,0.755-0.695c3.412-0.533,6.645-1.591,9.542-3.47
		c4.854-3.146,8.209-7.423,8.67-13.342c0.348-4.469-2.463-8.224-7.316-8.091c-1.637,0.045-3.268,0.484-4.886,0.818
		c-0.329,0.068-0.746,0.417-0.855,0.729c-0.801,2.291-2.765,3.103-4.8,3.681c-1.222,0.347-2.558,0.297-4.006,0.163
		c0.9-0.826,1.776-1.679,2.707-2.47C329.065,450.789,330.069,450.045,331.09,449.241z M327.049,444.417
		c0.012,1.292,0.511,1.789,1.758,1.751c1.115-0.033,1.65-0.628,1.629-1.81c-0.017-0.973-0.854-1.845-1.75-1.823
		C327.723,442.559,327.039,443.345,327.049,444.417z"/>
	<path fill-rule="evenodd" clip-rule="evenodd" fill="#FFFFFF" d="M320.917,474.516c0,1.41,0.053,2.629-0.039,3.836
		c-0.022,0.287-0.491,0.685-0.824,0.775c-1.292,0.352-2.615,0.562-3.581,1.645c-1.062,1.19-1.12,2.417,0.271,3.148
		c1.732,0.91,3.625,1.759,5.535,2.029c3.167,0.447,6.403,0.374,9.605,0.603c0.991,0.07,1.983,0.344,2.933,0.654
		c0.313,0.103,0.717,0.656,0.67,0.934c-0.054,0.32-0.53,0.75-0.877,0.809c-1.56,0.263-3.135,0.468-4.712,0.59
		c-4.244,0.327-8.477,0.127-12.609-0.887c-1.946-0.479-3.865-1.26-5.25-2.887c-1.274-1.497-1.651-3.987-0.624-5.705
		C313.505,476.563,316.746,474.922,320.917,474.516z"/>
	<path fill-rule="evenodd" clip-rule="evenodd" fill="#FFFFFF" d="M322.989,491.238c1.157,0,2.204,0,3.298,0
		c0.05,0.479,0.091,0.872,0.151,1.447c0.96,0,1.924-0.033,2.884,0.008c1.581,0.068,2.501,0.956,2.541,2.377
		c0.021,0.729-0.231,1.153-1.051,1.15c-4.484-0.014-8.969,0.009-13.453-0.032c-0.336-0.004-0.981-0.472-0.952-0.614
		c0.17-0.823,0.312-1.784,0.836-2.358c0.4-0.439,1.347-0.464,2.062-0.514c1.127-0.077,2.263-0.021,3.433-0.021
		C322.833,492.135,322.908,491.704,322.989,491.238z"/>
</g>
<g>
	<path fill-rule="evenodd" clip-rule="evenodd" fill="#FFFFFF" d="M604.444,309.928c-3.271,0.196-5.393-1.541-7.008-4.12
		c-2.204-3.518-2.74-7.407-2.438-11.453c0.386-5.18,1.985-10.034,4.081-14.745c0.66-1.484,1.338-2.96,2.002-4.442
		c0.364-0.812,0.956-1.122,1.837-0.906c7.129,1.75,14.034,4.003,19.91,8.645c1.417,1.12,2.896,2.164,4.351,3.236
		c0.821,0.605,1.033,1.321,0.539,2.258c-2.613,4.96-5.238,9.914-9.102,14.06c-3.287,3.529-7.013,6.362-11.91,7.243
		C605.963,309.837,605.199,309.855,604.444,309.928z M599.498,293.924c-0.3,2.479,0.038,4.736,1.14,6.833
		c0.897,1.708,2.324,2.824,4.25,2.986c3.142,0.264,5.619-1.27,7.948-3.311C606.712,301.674,602.277,299.555,599.498,293.924z
		 M611.185,291.277c1.169,3.318,4.552,5.258,7.949,3.865C617.728,291.723,615.097,290.428,611.185,291.277z M600.464,286.046
		c1.282,3.345,4.333,5.008,7.815,3.775C607.076,286.52,603.756,284.89,600.464,286.046z"/>
	<path fill-rule="evenodd" clip-rule="evenodd" fill="#FFFFFF" d="M605.185,271.598c-0.729-0.208-1.407-0.49-2.11-0.584
		c-2.274-0.304-3.924,0.729-5.035,3.084c-0.508,1.077-0.959,2.182-1.51,3.236c-0.14,0.267-0.581,0.582-0.845,0.548
		c-3.553-0.435-5.862,1.68-7.12,4.935c-0.372,0.96-0.561,1.991-0.711,3.069c2.095-1.919,3.926-4.133,6.936-4.78
		c-0.903,3.093-1.775,6.081-2.67,9.15c-3.041-0.77-5.608-2.443-7.867-4.612c-3.715-3.567-6.2-7.961-8.231-12.625
		c-0.965-2.214-1.788-4.491-2.643-6.752c-0.508-1.346-0.378-1.789,0.881-2.489c3.498-1.946,6.945-4.004,10.56-5.708
		c3.32-1.566,7.021-1.883,10.623-2.431c1.392-0.212,2.79-0.383,4.182-0.599c0.98-0.152,1.744,0.096,2.066,1.102
		c1.569,4.881,3.067,9.781,3.519,14.926C605.223,271.24,605.193,271.416,605.185,271.598z M588.697,270.423
		c-3.728-0.524-6.777,1.25-7.088,5.339C585.437,276.357,588.085,274.383,588.697,270.423z M601.516,268.325
		c-2.667-2.599-6.222-2.696-8.731,0.277C595.604,271.25,599.157,271.137,601.516,268.325z"/>
</g>
<g>
	<path fill-rule="evenodd" clip-rule="evenodd" fill="#FFFFFF" d="M434.293,353.08c2.195,0,4.391-0.014,6.586,0.004
		c2.455,0.018,3.674,1.253,3.68,3.738c0.013,4.297,0.017,8.594-0.001,12.891c-0.009,2.36-1.273,3.605-3.652,3.623
		c-4.436,0.032-8.872,0.062-13.308,0.065c-2.537,0.002-3.911-1.287-3.951-3.867c-0.065-4.25-0.068-8.502,0-12.75
		c0.04-2.496,1.391-3.693,3.92-3.703C429.809,353.072,432.052,353.08,434.293,353.08z M427.25,364.796c4.658,0,9.232,0,13.805,0
		c0-1.133,0-2.139,0-3.174c-4.659,0-9.232,0-13.805,0C427.25,362.755,427.25,363.761,427.25,364.796z"/>
	<path fill-rule="evenodd" clip-rule="evenodd" fill="#FFFFFF" d="M409.733,397.136c-2.196,0-4.393,0.018-6.588-0.005
		c-2.507-0.025-3.807-1.32-3.813-3.798c-0.012-4.299-0.014-8.598,0.001-12.896c0.008-2.302,1.338-3.672,3.642-3.687
		c4.533-0.029,9.065-0.029,13.598,0.001c2.101,0.014,3.536,1.206,3.593,3.311c0.124,4.574,0.132,9.154,0.021,13.729
		c-0.053,2.159-1.503,3.312-3.724,3.339C414.22,397.157,411.977,397.136,409.733,397.136z M411.917,386.967
		c1.468-1.343,2.664-2.438,3.735-3.417c-0.846-0.876-1.571-1.626-2.328-2.411c-1.171,1.119-2.341,2.238-3.574,3.417
		c-1.262-1.203-2.462-2.348-3.739-3.565c-0.83,0.826-1.547,1.542-2.459,2.45c1.331,1.181,2.569,2.279,3.839,3.406
		c-1.368,1.346-2.525,2.483-3.495,3.438c0.813,0.868,1.532,1.636,2.288,2.443c1.159-1.107,2.331-2.227,3.563-3.405
		c1.261,1.197,2.465,2.338,3.706,3.515c0.842-0.806,1.576-1.509,2.377-2.274C414.556,389.392,413.36,388.293,411.917,386.967z"/>
	<path fill-rule="evenodd" clip-rule="evenodd" fill="#FFFFFF" d="M409.796,353.08c2.242,0,4.485-0.014,6.727,0.004
		c2.177,0.016,3.602,1.098,3.657,3.203c0.122,4.619,0.12,9.246-0.005,13.865c-0.056,2.068-1.449,3.17-3.525,3.18
		c-4.574,0.02-9.147,0.019-13.721,0.002c-2.297-0.009-3.584-1.271-3.595-3.536c-0.021-4.392-0.021-8.782,0-13.174
		c0.011-2.263,1.297-3.518,3.595-3.54C405.219,353.062,407.508,353.08,409.796,353.08z M402.832,361.535c0,1.209,0,2.217,0,3.416
		c1.766,0,3.458,0,5.252,0c0,1.765,0,3.335,0,4.942c1.161,0,2.209,0,3.428,0c0-1.677,0-3.28,0-5.045c1.821,0,3.473,0,5.133,0
		c0-1.174,0-2.182,0-3.353c-1.727,0-3.381,0-5.202,0c0-1.763,0-3.364,0-4.954c-1.224,0-2.271,0-3.478,0c0,1.697,0,3.303,0,4.993
		C406.183,361.535,404.561,361.535,402.832,361.535z"/>
	<path fill-rule="evenodd" clip-rule="evenodd" fill="#FFFFFF" d="M434.078,397.136c-2.149,0-4.3,0.012-6.448-0.003
		c-2.524-0.017-3.929-1.231-3.976-3.698c-0.08-4.344-0.079-8.691,0-13.035c0.043-2.377,1.477-3.645,3.882-3.653
		c4.393-0.018,8.785-0.017,13.178-0.001c2.558,0.009,3.842,1.325,3.847,3.909c0.008,4.206,0.01,8.411,0,12.617
		c-0.006,2.563-1.294,3.841-3.894,3.861C438.47,397.149,436.274,397.136,434.078,397.136z M441.049,381.97
		c-4.622,0-9.161,0-13.793,0c0,1.079,0,2.076,0,3.168c4.622,0,9.161,0,13.793,0C441.049,384.059,441.049,383.062,441.049,381.97z
		 M441.044,391.968c0-1.234,0-2.19,0-3.187c-4.643,0-9.188,0-13.879,0c0,0.645,0.06,1.201-0.013,1.74
		c-0.16,1.206,0.373,1.517,1.504,1.468c1.864-0.081,3.734-0.021,5.602-0.021C436.488,391.968,438.72,391.968,441.044,391.968z"/>
</g>
<path fill-rule="evenodd" clip-rule="evenodd" fill="#FFFFFF" d="M338.675,258.887c0.408-1.103,0.641-1.734,0.896-2.424
	c-0.528-0.422-1.054-0.843-1.874-1.499c0.943-0.264,1.602-0.448,2.353-0.657c0.125-0.679,0.247-1.333,0.455-2.456
	c0.744,0.702,1.24,1.171,1.813,1.712c0.611-0.171,1.3-0.364,2.287-0.64c-0.262,0.948-0.451,1.635-0.639,2.325
	c0.514,0.43,1.026,0.857,1.831,1.529c-0.991,0.276-1.654,0.462-2.371,0.663c-0.171,0.677-0.345,1.365-0.603,2.388
	c-0.703-0.704-1.163-1.164-1.64-1.642C340.508,258.375,339.821,258.566,338.675,258.887z"/>
<path fill-rule="evenodd" clip-rule="evenodd" fill="#FFFFFF" d="M350.82,267.286c-0.124,0.648-0.251,1.313-0.47,2.458
	c-0.727-0.784-1.199-1.293-1.724-1.86c-0.649,0.223-1.328,0.456-2.438,0.836c0.371-1.066,0.603-1.735,0.852-2.451
	c-0.521-0.409-1.054-0.827-1.88-1.476c0.959-0.268,1.625-0.454,2.381-0.665c0.132-0.666,0.261-1.315,0.483-2.434
	c0.741,0.734,1.233,1.222,1.797,1.781c0.644-0.181,1.335-0.374,2.394-0.669c-0.36,0.948-0.593,1.561-0.858,2.26
	c0.515,0.439,1.059,0.903,1.968,1.68C352.234,266.981,351.551,267.128,350.82,267.286z"/>
<path fill-rule="evenodd" clip-rule="evenodd" fill="#FFFFFF" d="M307.022,272.739c-0.124,0.745-0.241,1.443-0.44,2.639
	c-0.749-0.896-1.166-1.396-1.645-1.968c-0.668,0.244-1.39,0.507-2.546,0.929c0.419-1.13,0.667-1.801,0.938-2.53
	c-0.558-0.407-1.092-0.798-1.939-1.418c0.992-0.277,1.652-0.462,2.449-0.685c0.109-0.605,0.235-1.312,0.442-2.461
	c0.75,0.772,1.234,1.271,1.721,1.772c0.632-0.211,1.263-0.425,2.427-0.819c-0.415,1.077-0.663,1.719-0.962,2.494
	c0.511,0.372,1.053,0.765,1.912,1.389C308.395,272.355,307.699,272.549,307.022,272.739z"/>
<path fill-rule="evenodd" clip-rule="evenodd" fill="#FFFFFF" d="M355.307,303.293c-1.036-0.16-1.69-0.26-2.416-0.372
	c-0.325,0.616-0.661,1.252-1.194,2.265c-0.411-0.949-0.667-1.543-0.964-2.23c-0.671,0.029-1.395,0.061-2.573,0.107
	c0.683-0.865,1.119-1.418,1.626-2.061c-0.412-0.512-0.838-1.043-1.522-1.89c1.054,0.039,1.791,0.066,2.619,0.097
	c0.281-0.569,0.573-1.164,1.059-2.152c0.466,0.955,0.773,1.583,1.111,2.279c0.642-0.055,1.309-0.109,2.486-0.206
	c-0.713,0.899-1.146,1.447-1.627,2.054C354.298,301.766,354.694,302.366,355.307,303.293z"/>
<g>
	<g>
		<circle fill-rule="evenodd" clip-rule="evenodd" fill="#FFFFFF" cx="330.203" cy="283.556" r="19.33"/>
	</g>
	<g>
		<path fill="#FFFFFF" d="M332.348,291.231c-1.281,0.357-31.39,8.687-33.252,2.02c-1.863-6.668,28.203-15.151,29.483-15.509
			c1.281-0.358,31.389-8.688,33.252-2.021C363.694,282.39,333.628,290.873,332.348,291.231z M301.711,292.52
			c1.421,1.258,12.311,1.045,29.914-3.874c17.604-4.918,27.026-10.381,27.59-12.193c-1.421-1.258-12.312-1.044-29.915,3.873
			C311.698,285.245,302.274,290.708,301.711,292.52z"/>
	</g>
</g>
<path opacity="0.5" fill="#3780C3" d="M503.405,0c26.545,45.903,76.167,76.789,133.005,76.789
	c56.839,0,106.461-30.886,133.006-76.789H503.405z"/>
<path opacity="0.5" fill="#3780C3" d="M40.322,0c26.545,45.903,76.167,76.789,133.006,76.789S279.788,45.903,306.334,0H40.322z"/>
<path fill-rule="evenodd" clip-rule="evenodd" fill="#F1F1F0" d="M353.437,592.664c-3.452-11.402-14.039-19.705-26.568-19.705
	s-23.116,8.303-26.568,19.705H353.437z"/>
<path fill-rule="evenodd" clip-rule="evenodd" fill="#F1F1F0" d="M449.746,592.664c-3.452-11.402-14.039-19.705-26.569-19.705
	c-12.529,0-23.115,8.303-26.567,19.705H449.746z"/>
<path fill-rule="evenodd" clip-rule="evenodd" fill="#F1F1F0" d="M540.229,592.664c-3.453-11.402-14.04-19.705-26.569-19.705
	c-12.53,0-23.117,8.303-26.569,19.705H540.229z"/>
</svg>
